{
.appVersion = "895";
classes = (
{
automatic = 1;

glyphs = (
{
color = 4;
glyphname = A;
lastChange = "2016-08-03 21:46:19 +0000";
layers = (
{
anchors = (
{
name = bottom;
position = "{302, 0}";
},
{
name = ogonek;
position = "{576, 1}";
},
{
name = top;
position = "{610, 962}";
}
);
background = {
paths = (
{
closed = 1;
nodes = (
"588 -3 OFFCURVE",
"601 10 OFFCURVE",
"601 24 CURVE SMOOTH",
"601 32 OFFCURVE",
"599 46 OFFCURVE",
"594 69 CURVE SMOOTH",
"588 92 OFFCURVE",
"584 109 OFFCURVE",
"582 121 CURVE SMOOTH",
"577 145 OFFCURVE",
"575 166 OFFCURVE",
"575 194 CURVE",
"574 208 OFFCURVE",
"574 220 OFFCURVE",
"573 228 CURVE",
"571 236 OFFCURVE",
"571 241 OFFCURVE",
"571 243 CURVE SMOOTH",
"571 248 LINE",
"576 248 OFFCURVE",
"582 247 OFFCURVE",
"587 246 CURVE",
"592 245 OFFCURVE",
"598 245 OFFCURVE",
"605 244 CURVE SMOOTH",
"619 243 OFFCURVE",
"634 257 OFFCURVE",
"634 269 CURVE SMOOTH",
"634 274 OFFCURVE",
"632 279 OFFCURVE",
"629 284 CURVE SMOOTH",
"625 288 OFFCURVE",
"604 292 OFFCURVE",
"564 297 CURVE",
"556 373 OFFCURVE",
"552 437 OFFCURVE",
"552 490 CURVE SMOOTH",
"552 543 OFFCURVE",
"557 609 OFFCURVE",
"566 687 CURVE SMOOTH",
"576 764 OFFCURVE",
"582 818 OFFCURVE",
"585 847 CURVE SMOOTH",
"588 875 OFFCURVE",
"594 903 OFFCURVE",
"601 929 CURVE",
"608 937 OFFCURVE",
"610 952 OFFCURVE",
"600 962 CURVE",
"599 972 OFFCURVE",
"594 977 OFFCURVE",
"586 977 CURVE SMOOTH",
"575 977 OFFCURVE",
"562 967 OFFCURVE",
"556 953 CURVE",
"523 803 OFFCURVE",
"346 480 OFFCURVE",
"233 310 CURVE",
"172 313 OFFCURVE",
"129 315 OFFCURVE",
"103 319 CURVE",
"89 317 OFFCURVE",
"75 303 OFFCURVE",
"75 289 CURVE SMOOTH",
"75 282 OFFCURVE",
"80 276 OFFCURVE",
"89 273 CURVE",
"114 271 OFFCURVE",
"152 268 OFFCURVE",
"202 265 CURVE",
"197 257 OFFCURVE",
"191 249 OFFCURVE",
"185 242 CURVE SMOOTH",
"179 234 OFFCURVE",
"171 224 OFFCURVE",
"162 211 CURVE SMOOTH",
"100 128 OFFCURVE",
"35 74 OFFCURVE",
"-35 47 CURVE",
"-36 46 LINE",
"-40 51 OFFCURVE",
"-44 54 OFFCURVE",
"-51 54 CURVE SMOOTH",
"-63 54 OFFCURVE",
"-78 40 OFFCURVE",
"-78 23 CURVE SMOOTH",
"-78 6 OFFCURVE",
"-69 -2 OFFCURVE",
"-52 -2 CURVE SMOOTH",
"-38 -2 OFFCURVE",
"-18 4 OFFCURVE",
"8 17 CURVE",
"84 52 OFFCURVE",
"165 134 OFFCURVE",
"251 264 CURVE",
"296 263 OFFCURVE",
"341 262 OFFCURVE",
"387 262 CURVE SMOOTH",
"432 261 OFFCURVE",
"477 258 OFFCURVE",
"521 254 CURVE",
"524 240 LINE",
"525 231 OFFCURVE",
"526 219 OFFCURVE",
"528 204 CURVE SMOOTH",
"529 188 OFFCURVE",
"530 172 OFFCURVE",
"532 154 CURVE SMOOTH",
"535 118 OFFCURVE",
"539 78 OFFCURVE",
"545 48 CURVE SMOOTH",
"552 19 OFFCURVE",
"562 -3 OFFCURVE",
"575 -3 CURVE SMOOTH"
);
},
{
closed = 1;
nodes = (
"478 305 OFFCURVE",
"439 307 OFFCURVE",
"400 308 CURVE SMOOTH",
"360 308 OFFCURVE",
"321 309 OFFCURVE",
"282 309 CURVE",
"340 399 OFFCURVE",
"450 587 OFFCURVE",
"529 751 CURVE",
"515 645 OFFCURVE",
"508 554 OFFCURVE",
"508 479 CURVE SMOOTH",
"508 405 OFFCURVE",
"511 345 OFFCURVE",
"516 302 CURVE"
);
}
);
};
layerId = "79E705E9-1ED7-4818-9510-7FD15DA5A41F";
paths = (
{
closed = 1;
nodes = (
"588 -3 OFFCURVE",
"601 10 OFFCURVE",
"601 24 CURVE SMOOTH",
"601 -12 OFFCURVE",
"571 237 OFFCURVE",
"571 248 CURVE",
"605 244 LINE",
"619 243 OFFCURVE",
"634 257 OFFCURVE",
"634 269 CURVE SMOOTH",
"634 290 OFFCURVE",
"618 290 OFFCURVE",
"564 297 CURVE",
"556 373 OFFCURVE",
"552 437 OFFCURVE",
"552 490 CURVE SMOOTH",
"552 568 OFFCURVE",
"578 844 OFFCURVE",
"601 929 CURVE",
"614 944 OFFCURVE",
"599 977 OFFCURVE",
"586 977 CURVE SMOOTH",
"575 977 OFFCURVE",
"562 967 OFFCURVE",
"556 953 CURVE",
"523 803 OFFCURVE",
"346 480 OFFCURVE",
"233 310 CURVE",
"172 313 OFFCURVE",
"129 315 OFFCURVE",
"103 319 CURVE",
"89 317 OFFCURVE",
"75 303 OFFCURVE",
"75 289 CURVE SMOOTH",
"75 265 OFFCURVE",
"135 269 OFFCURVE",
"202 265 CURVE",
"127 161 OFFCURVE",
"62 85 OFFCURVE",
"-36 46 CURVE",
"-40 51 OFFCURVE",
"-44 54 OFFCURVE",
"-51 54 CURVE SMOOTH",
"-63 54 OFFCURVE",
"-78 40 OFFCURVE",
"-78 23 CURVE SMOOTH",
"-78 6 OFFCURVE",
"-69 -2 OFFCURVE",
"-52 -2 CURVE SMOOTH",
"-38 -2 OFFCURVE",
"-18 4 OFFCURVE",
"8 17 CURVE",
"84 52 OFFCURVE",
"165 134 OFFCURVE",
"251 264 CURVE",
"347 262 OFFCURVE",
"419 263 OFFCURVE",
"521 254 CURVE",
"533 156 OFFCURVE",
"535 97 OFFCURVE",
"545 48 CURVE SMOOTH",
"552 19 OFFCURVE",
"562 -3 OFFCURVE",
"575 -3 CURVE SMOOTH"
);
},
{
closed = 1;
nodes = (
"447 307 OFFCURVE",
"351 309 OFFCURVE",
"282 309 CURVE",
"340 399 OFFCURVE",
"450 587 OFFCURVE",
"529 751 CURVE",
"515 645 OFFCURVE",
"508 554 OFFCURVE",
"508 479 CURVE SMOOTH",
"508 405 OFFCURVE",
"511 345 OFFCURVE",
"516 302 CURVE"
);
}
);
width = 702;
}
);
leftKerningGroup = A;
note = A;
rightKerningGroup = A;
unicode = 0041;
},
{
color = 4;
glyphname = Abreve;
lastChange = "2016-08-03 21:46:19 +0000";
layers = (
{
components = (
{
name = A;
},
{
name = brevecomb;
transform = "{1, 0, 0, 1, 468, 457}";
}
);
layerId = "79E705E9-1ED7-4818-9510-7FD15DA5A41F";
width = 702;
},
{
anchors = (
{
name = bottom;
position = "{302, 0}";
},
{
name = ogonek;
position = "{576, 1}";
},
{
name = top;
position = "{615, 1125}";
}
);
associatedMasterId = "79E705E9-1ED7-4818-9510-7FD15DA5A41F";
layerId = "2D20584F-649D-4241-BD5C-F9521AB75C07";
name = "Regular Italic Aug 3 16, 14:46";
paths = (
{
closed = 1;
nodes = (
"588 -3 OFFCURVE",
"601 10 OFFCURVE",
"601 24 CURVE SMOOTH",
"601 -12 OFFCURVE",
"571 237 OFFCURVE",
"571 248 CURVE",
"605 244 LINE",
"619 243 OFFCURVE",
"634 257 OFFCURVE",
"634 269 CURVE SMOOTH",
"634 290 OFFCURVE",
"618 290 OFFCURVE",
"564 297 CURVE",
"556 373 OFFCURVE",
"552 437 OFFCURVE",
"552 490 CURVE SMOOTH",
"552 568 OFFCURVE",
"578 844 OFFCURVE",
"601 929 CURVE",
"614 944 OFFCURVE",
"599 977 OFFCURVE",
"586 977 CURVE SMOOTH",
"575 977 OFFCURVE",
"562 967 OFFCURVE",
"556 953 CURVE",
"523 803 OFFCURVE",
"346 480 OFFCURVE",
"233 310 CURVE",
"172 313 OFFCURVE",
"129 315 OFFCURVE",
"103 319 CURVE",
"89 317 OFFCURVE",
"75 303 OFFCURVE",
"75 289 CURVE SMOOTH",
"75 265 OFFCURVE",
"135 269 OFFCURVE",
"202 265 CURVE",
"127 161 OFFCURVE",
"62 85 OFFCURVE",
"-36 46 CURVE",
"-40 51 OFFCURVE",
"-44 54 OFFCURVE",
"-51 54 CURVE SMOOTH",
"-63 54 OFFCURVE",
"-78 40 OFFCURVE",
"-78 23 CURVE SMOOTH",
"-78 6 OFFCURVE",
"-69 -2 OFFCURVE",
"-52 -2 CURVE SMOOTH",
"-38 -2 OFFCURVE",
"-18 4 OFFCURVE",
"8 17 CURVE",
"84 52 OFFCURVE",
"165 134 OFFCURVE",
"251 264 CURVE",
"347 262 OFFCURVE",
"419 263 OFFCURVE",
"521 254 CURVE",
"533 156 OFFCURVE",
"535 97 OFFCURVE",
"545 48 CURVE SMOOTH",
"552 19 OFFCURVE",
"562 -3 OFFCURVE",
"575 -3 CURVE SMOOTH"
);
},
{
closed = 1;
nodes = (
"447 307 OFFCURVE",
"351 309 OFFCURVE",
"282 309 CURVE",
"340 399 OFFCURVE",
"450 587 OFFCURVE",
"529 751 CURVE",
"515 645 OFFCURVE",
"508 554 OFFCURVE",
"508 479 CURVE SMOOTH",
"508 405 OFFCURVE",
"511 345 OFFCURVE",
"516 302 CURVE"
);
},
{
closed = 1;
nodes = (
"649.8 1037 OFFCURVE",
"709.8 1100 OFFCURVE",
"761 1188 CURVE",
"763.4 1192 OFFCURVE",
"764.2 1197 OFFCURVE",
"764.2 1202 CURVE SMOOTH",
"764.2 1213 OFFCURVE",
"759.4 1219 OFFCURVE",
"750.6 1219 CURVE SMOOTH",
"745 1219 OFFCURVE",
"739.4 1216 OFFCURVE",
"734.6 1211 CURVE",
"690.6 1136 OFFCURVE",
"648.2 1082 OFFCURVE",
"581 1082 CURVE SMOOTH",
"552.2 1082 OFFCURVE",
"536.2 1103 OFFCURVE",
"531.4 1146 CURVE SMOOTH",
"527.4 1175 OFFCURVE",
"525 1193 OFFCURVE",
"522.6 1200 CURVE SMOOTH",
"520.2 1207 OFFCURVE",
"516.2 1210 OFFCURVE",
"510.6 1210 CURVE SMOOTH",
"500.2 1210 OFFCURVE",
"488.2 1196 OFFCURVE",
"488.2 1179 CURVE SMOOTH",
"488.2 1096 OFFCURVE",
"524.2 1037 OFFCURVE",
"586.6 1037 CURVE SMOOTH"
);
}
);
width = 702;
}
);
leftKerningGroup = A;
rightKerningGroup = A;
unicode = 0102;
},
{
color = 4;
glyphname = AE;
lastChange = "2016-08-03 06:54:07 +0000";
layers = (
{
anchors = (
{
name = bottom;
position = "{482, 0}";
},
{
name = top;
position = "{649, 960}";
}
);
layerId = "79E705E9-1ED7-4818-9510-7FD15DA5A41F";
paths = (
{
closed = 1;
nodes = (
"818 -9 OFFCURVE",
"837 -8 OFFCURVE",
"854 -3 CURVE SMOOTH",
"867 0 OFFCURVE",
"873 7 OFFCURVE",
"873 19 CURVE SMOOTH",
"873 29 OFFCURVE",
"867 36 OFFCURVE",
"856 39 CURVE",
"843 38 OFFCURVE",
"820 37 OFFCURVE",
"787 37 CURVE SMOOTH",
"401 45 LINE",
"429 101 OFFCURVE",
"443 176 OFFCURVE",
"456 259 CURVE",
"513 256 OFFCURVE",
"563 251 OFFCURVE",
"603 243 CURVE",
"620 243 OFFCURVE",
"634 257 OFFCURVE",
"634 269 CURVE SMOOTH",
"634 300 OFFCURVE",
"551 300 OFFCURVE",
"463 305 CURVE",
"464 312 OFFCURVE",
"484 416 OFFCURVE",
"497 472 CURVE",
"630 468 OFFCURVE",
"749 462 OFFCURVE",
"787 473 CURVE SMOOTH",
"800 478 OFFCURVE",
"806 486 OFFCURVE",
"806 500 CURVE SMOOTH",
"806 528 OFFCURVE",
"691 515 OFFCURVE",
"507 518 CURVE",
"518 568 OFFCURVE",
"572 809 OFFCURVE",
"597 895 CURVE",
"654 914 OFFCURVE",
"740 921 OFFCURVE",
"952 921 CURVE",
"965 925 OFFCURVE",
"976 938 OFFCURVE",
"976 951 CURVE SMOOTH",
"976 964 OFFCURVE",
"958 968 OFFCURVE",
"899 968 CURVE SMOOTH",
"768 968 OFFCURVE",
"671 959 OFFCURVE",
"606 943 CURVE",
"614 966 OFFCURVE",
"604 977 OFFCURVE",
"586 977 CURVE SMOOTH",
"559 977 OFFCURVE",
"556 944 OFFCURVE",
"548 921 CURVE",
"529 913 OFFCURVE",
"520 907 OFFCURVE",
"520 893 CURVE SMOOTH",
"520 884 OFFCURVE",
"526 880 OFFCURVE",
"535 877 CURVE",
"519 829 OFFCURVE",
"499 781 OFFCURVE",
"475 735 CURVE SMOOTH",
"381 554 OFFCURVE",
"301 412 OFFCURVE",
"233 310 CURVE",
"172 313 OFFCURVE",
"129 315 OFFCURVE",
"103 319 CURVE",
"89 317 OFFCURVE",
"75 303 OFFCURVE",
"75 289 CURVE SMOOTH",
"75 282 OFFCURVE",
"80 276 OFFCURVE",
"89 273 CURVE",
"114 271 OFFCURVE",
"152 268 OFFCURVE",
"202 265 CURVE",
"114 141 OFFCURVE",
"50 80 OFFCURVE",
"-36 46 CURVE",
"-39 51 OFFCURVE",
"-44 54 OFFCURVE",
"-50 54 CURVE SMOOTH",
"-64 54 OFFCURVE",
"-78 40 OFFCURVE",
"-78 23 CURVE SMOOTH",
"-78 6 OFFCURVE",
"-69 -2 OFFCURVE",
"-52 -2 CURVE SMOOTH",
"10 -2 OFFCURVE",
"131 82 OFFCURVE",
"251 264 CURVE",
"410 261 LINE",
"398 191 OFFCURVE",
"373 67 OFFCURVE",
"346 31 CURVE SMOOTH",
"337 18 OFFCURVE",
"345 -1 OFFCURVE",
"371 -1 CURVE",
"405 2 LINE",
"427 2 OFFCURVE",
"734 -9 OFFCURVE",
"793 -9 CURVE SMOOTH"
);
},
{
closed = 1;
nodes = (
"282 309 LINE",
"342 402 OFFCURVE",
"416 532 OFFCURVE",
"502 696 CURVE",
"417 307 LINE"
);
}
);
width = 953;
}
);
leftMetricsKey = A;
note = AE;
rightMetricsKey = E;
unicode = 00C6;
},
{
color = 4;
glyphname = B;
lastChange = "2016-08-03 06:54:23 +0000";
layers = (
{
anchors = (
{
name = bottom;
position = "{257, 0}";
},
{
name = top;
position = "{257, 960}";
}
);
layerId = "79E705E9-1ED7-4818-9510-7FD15DA5A41F";
paths = (
{
closed = 1;
nodes = (
"33 -60 OFFCURVE",
"46 -48 OFFCURVE",
"50 -31 CURVE",
"50 -24 OFFCURVE",
"51 -16 OFFCURVE",
"53 -7 CURVE",
"74 -8 LINE",
"323 -8 OFFCURVE",
"479 88 OFFCURVE",
"479 278 CURVE SMOOTH",
"479 377 OFFCURVE",
"379 489 OFFCURVE",
"266 496 CURVE",
"368 510 OFFCURVE",
"465 619 OFFCURVE",
"465 730 CURVE SMOOTH",
"465 865 OFFCURVE",
"383 952 OFFCURVE",
"260 956 CURVE",
"249 967 OFFCURVE",
"236 967 OFFCURVE",
"229 954 CURVE",
"179 944 OFFCURVE",
"133 919 OFFCURVE",
"133 888 CURVE SMOOTH",
"133 873 OFFCURVE",
"144 868 OFFCURVE",
"150 868 CURVE SMOOTH",
"166 868 OFFCURVE",
"186 897 OFFCURVE",
"209 907 CURVE",
"166 771 OFFCURVE",
"162 659 OFFCURVE",
"126 510 CURVE",
"90 510 OFFCURVE",
"72 502 OFFCURVE",
"72 486 CURVE SMOOTH",
"72 475 OFFCURVE",
"77 469 OFFCURVE",
"87 469 CURVE",
"117 468 LINE",
"20 46 LINE",
"-23 46 OFFCURVE",
"-51 65 OFFCURVE",
"-65 65 CURVE SMOOTH",
"-72 65 OFFCURVE",
"-82 54 OFFCURVE",
"-82 46 CURVE SMOOTH",
"-82 31 OFFCURVE",
"-76 17 OFFCURVE",
"-19 6 CURVE SMOOTH",
"-9 4 OFFCURVE",
"0 2 OFFCURVE",
"10 0 CURVE",
"6 -16 OFFCURVE",
"4 -30 OFFCURVE",
"3 -40 CURVE",
"4 -53 OFFCURVE",
"11 -60 OFFCURVE",
"22 -60 CURVE SMOOTH"
);
},
{
closed = 1;
nodes = (
"84 37 OFFCURVE",
"71 38 OFFCURVE",
"62 39 CURVE",
"61 33 OFFCURVE",
"158 456 OFFCURVE",
"160 466 CURVE",
"181 464 OFFCURVE",
"199 464 OFFCURVE",
"213 464 CURVE SMOOTH",
"324 464 OFFCURVE",
"433 372 OFFCURVE",
"433 272 CURVE SMOOTH",
"433 129 OFFCURVE",
"314 37 OFFCURVE",
"101 37 CURVE SMOOTH"
);
},
{
closed = 1;
nodes = (
"203 657 OFFCURVE",
"207 769 OFFCURVE",
"250 913 CURVE",
"348 911 OFFCURVE",
"416 849 OFFCURVE",
"416 729 CURVE SMOOTH",
"416 610 OFFCURVE",
"307 511 OFFCURVE",
"170 511 CURVE"
);
}
);
width = 514;
}
);
leftKerningGroup = B;
note = B;
rightKerningGroup = B;
unicode = 0042;
},
{
color = 4;
glyphname = C;
lastChange = "2016-08-03 06:55:48 +0000";
layers = (
{
anchors = (
{
name = bottom;
position = "{267, 0}";
},
{
name = top;
position = "{459, 960}";
}
);
layerId = "79E705E9-1ED7-4818-9510-7FD15DA5A41F";
paths = (
{
closed = 1;
nodes = (
"288 -15 OFFCURVE",
"340 6 OFFCURVE",
"397 49 CURVE SMOOTH",
"422 69 OFFCURVE",
"458 84 OFFCURVE",
"458 107 CURVE SMOOTH",
"458 119 OFFCURVE",
"452 125 OFFCURVE",
"441 125 CURVE SMOOTH",
"430 125 OFFCURVE",
"408 106 OFFCURVE",
"385 90 CURVE SMOOTH",
"334 53 OFFCURVE",
"288 34 OFFCURVE",
"248 34 CURVE SMOOTH",
"140 34 OFFCURVE",
"89 154 OFFCURVE",
"89 293 CURVE SMOOTH",
"89 431 OFFCURVE",
"180 722 OFFCURVE",
"290 852 CURVE SMOOTH",
"331 901 OFFCURVE",
"370 926 OFFCURVE",
"406 926 CURVE SMOOTH",
"479 926 OFFCURVE",
"532 869 OFFCURVE",
"542 786 CURVE SMOOTH",
"548 739 OFFCURVE",
"586 735 OFFCURVE",
"592 776 CURVE",
"592 866 OFFCURVE",
"511 974 OFFCURVE",
"407 974 CURVE SMOOTH",
"303 974 OFFCURVE",
"207 856 OFFCURVE",
"141 700 CURVE SMOOTH",
"74 543 OFFCURVE",
"38 379 OFFCURVE",
"38 268 CURVE SMOOTH",
"38 150 OFFCURVE",
"106 -15 OFFCURVE",
"240 -15 CURVE SMOOTH"
);
}
);
width = 544;
}
);
leftKerningGroup = O;
leftMetricsKey = O;
note = C;
rightKerningGroup = C;
unicode = 0043;
},
{
color = 4;
glyphname = D;
lastChange = "2016-08-03 06:56:20 +0000";
layers = (
{
anchors = (
{
name = bottom;
position = "{137, 0}";
},
{
name = center;
position = "{270, 517}";
},
{
name = top;
position = "{438, 960}";
}
);
layerId = "79E705E9-1ED7-4818-9510-7FD15DA5A41F";
paths = (
{
closed = 1;
nodes = (
"101 -55 OFFCURVE",
"109 -40 OFFCURVE",
"112 -10 CURVE",
"179 -10 OFFCURVE",
"239 -4 OFFCURVE",
"298 13 CURVE SMOOTH",
"511 73 OFFCURVE",
"695 253 OFFCURVE",
"695 628 CURVE SMOOTH",
"695 899 OFFCURVE",
"559 1003 OFFCURVE",
"339 956 CURVE",
"334 963 OFFCURVE",
"318 965 OFFCURVE",
"307 948 CURVE",
"258 935 OFFCURVE",
"210 913 OFFCURVE",
"162 883 CURVE SMOOTH",
"153 877 OFFCURVE",
"149 870 OFFCURVE",
"149 860 CURVE SMOOTH",
"149 848 OFFCURVE",
"155 842 OFFCURVE",
"167 842 CURVE SMOOTH",
"179 842 OFFCURVE",
"222 873 OFFCURVE",
"288 896 CURVE",
"218 688 OFFCURVE",
"146 400 OFFCURVE",
"71 35 CURVE",
"16 35 OFFCURVE",
"18 55 OFFCURVE",
"-13 55 CURVE SMOOTH",
"-20 55 OFFCURVE",
"-29 44 OFFCURVE",
"-29 37 CURVE SMOOTH",
"-29 2 OFFCURVE",
"21 3 OFFCURVE",
"65 -7 CURVE",
"63 -32 OFFCURVE",
"58 -55 OFFCURVE",
"83 -55 CURVE SMOOTH"
);
},
{
closed = 1;
nodes = (
"139 127 OFFCURVE",
"157 214 OFFCURVE",
"175 295 CURVE SMOOTH",
"226 528 OFFCURVE",
"279 733 OFFCURVE",
"335 909 CURVE",
"504 955 OFFCURVE",
"648 881 OFFCURVE",
"648 616 CURVE SMOOTH",
"648 314 OFFCURVE",
"493 33 OFFCURVE",
"120 33 CURVE"
);
}
);
width = 711;
}
);
leftKerningGroup = D;
note = D;
rightKerningGroup = Z;
unicode = 0044;
},
{
color = 4;
glyphname = E;
lastChange = "2016-08-03 06:54:17 +0000";
layers = (
{
anchors = (
{
name = bottom;
position = "{234, 0}";
},
{
name = ogonek;
position = "{503, 5}";
},
{
name = top;
position = "{425, 960}";
},
{
name = topleft;
position = "{10, 960}";
}
);
layerId = "79E705E9-1ED7-4818-9510-7FD15DA5A41F";
paths = (
{
closed = 1;
nodes = (
"493 -9 OFFCURVE",
"515 -5 OFFCURVE",
"515 22 CURVE SMOOTH",
"515 30 OFFCURVE",
"509 36 OFFCURVE",
"498 39 CURVE",
"465 36 OFFCURVE",
"546 35 OFFCURVE",
"43 45 CURVE",
"72 144 OFFCURVE",
"117 370 OFFCURVE",
"145 472 CURVE",
"365 467 LINE SMOOTH",
"409 467 OFFCURVE",
"448 469 OFFCURVE",
"448 500 CURVE SMOOTH",
"448 507 OFFCURVE",
"447 516 OFFCURVE",
"431 516 CURVE",
"383 514 OFFCURVE",
"208 513 OFFCURVE",
"155 518 CURVE",
"180 617 OFFCURVE",
"208 789 OFFCURVE",
"239 895 CURVE",
"296 914 OFFCURVE",
"382 921 OFFCURVE",
"594 921 CURVE SMOOTH",
"603 921 OFFCURVE",
"618 930 OFFCURVE",
"618 950 CURVE SMOOTH",
"618 958 OFFCURVE",
"612 963 OFFCURVE",
"599 965 CURVE SMOOTH",
"543 974 OFFCURVE",
"337 965 OFFCURVE",
"246 943 CURVE",
"245 953 OFFCURVE",
"239 958 OFFCURVE",
"229 958 CURVE SMOOTH",
"209 958 OFFCURVE",
"199 948 OFFCURVE",
"199 927 CURVE",
"180 917 OFFCURVE",
"170 905 OFFCURVE",
"170 894 CURVE SMOOTH",
"170 881 OFFCURVE",
"175 875 OFFCURVE",
"186 874 CURVE",
"147 698 OFFCURVE",
"115 547 OFFCURVE",
"89 424 CURVE SMOOTH",
"63 300 OFFCURVE",
"45 218 OFFCURVE",
"36 178 CURVE SMOOTH",
"21 110 OFFCURVE",
"-3 43 OFFCURVE",
"-12 31 CURVE SMOOTH",
"-18 23 OFFCURVE",
"-19 -1 OFFCURVE",
"13 -1 CURVE",
"47 2 LINE",
"65 2 OFFCURVE",
"376 -9 OFFCURVE",
"433 -9 CURVE SMOOTH"
);
}
);
width = 594;
}
);
leftKerningGroup = E;
note = E;
rightKerningGroup = E;
unicode = 0045;
},
{
color = 4;
glyphname = F;
lastChange = "2016-08-03 06:57:01 +0000";
layers = (
{
anchors = (
{
name = bottom;
position = "{179, 0}";
},
{
name = top;
position = "{379, 960}";
}
);
layerId = "79E705E9-1ED7-4818-9510-7FD15DA5A41F";
paths = (
{
closed = 1;
nodes = (
"175 -26 OFFCURVE",
"184 -19 OFFCURVE",
"190 -6 CURVE",
"213 98 OFFCURVE",
"260 324 OFFCURVE",
"283 493 CURVE",
"399 505 OFFCURVE",
"546 506 OFFCURVE",
"581 510 CURVE",
"595 512 OFFCURVE",
"607 525 OFFCURVE",
"607 539 CURVE SMOOTH",
"607 546 OFFCURVE",
"603 555 OFFCURVE",
"593 555 CURVE",
"510 555 OFFCURVE",
"440 552 OFFCURVE",
"289 538 CURVE",
"292 565 LINE SMOOTH",
"304 680 OFFCURVE",
"321 737 OFFCURVE",
"342 846 CURVE",
"499 887 OFFCURVE",
"678 908 OFFCURVE",
"880 911 CURVE",
"894 915 OFFCURVE",
"905 928 OFFCURVE",
"905 940 CURVE SMOOTH",
"905 948 OFFCURVE",
"899 954 OFFCURVE",
"888 957 CURVE",
"686 954 OFFCURVE",
"507 933 OFFCURVE",
"352 894 CURVE",
"359 931 LINE",
"368 946 OFFCURVE",
"366 962 OFFCURVE",
"346 962 CURVE SMOOTH",
"336 962 OFFCURVE",
"328 957 OFFCURVE",
"321 947 CURVE",
"315 929 OFFCURVE",
"310 907 OFFCURVE",
"304 881 CURVE",
"258 868 OFFCURVE",
"59 820 OFFCURVE",
"59 766 CURVE SMOOTH",
"59 754 OFFCURVE",
"64 748 OFFCURVE",
"77 748 CURVE SMOOTH",
"95 748 OFFCURVE",
"132 790 OFFCURVE",
"292 833 CURVE",
"271 735 OFFCURVE",
"256 643 OFFCURVE",
"246 558 CURVE SMOOTH",
"243 533 LINE",
"208 532 LINE",
"184 532 OFFCURVE",
"151 537 OFFCURVE",
"151 506 CURVE SMOOTH",
"151 481 OFFCURVE",
"224 486 OFFCURVE",
"235 488 CURVE",
"219 363 OFFCURVE",
"193 219 OFFCURVE",
"146 -6 CURVE",
"147 -19 OFFCURVE",
"152 -26 OFFCURVE",
"163 -26 CURVE SMOOTH"
);
}
);
width = 758;
}
);
leftKerningGroup = F;
note = F;
rightKerningGroup = F;
unicode = 0046;
},
{
color = 4;
glyphname = G;
lastChange = "2016-08-03 06:57:17 +0000";
layers = (
{
anchors = (
{
name = bottom;
position = "{274, 0}";
},
{
name = top;
position = "{437, 957}";
}
);
layerId = "79E705E9-1ED7-4818-9510-7FD15DA5A41F";
paths = (
{
closed = 1;
nodes = (
"419 -448 OFFCURVE",
"435 -436 OFFCURVE",
"437 -420 CURVE",
"467 -272 OFFCURVE",
"480 -183 OFFCURVE",
"522 -24 CURVE SMOOTH",
"566 143 OFFCURVE",
"631 295 OFFCURVE",
"716 435 CURVE",
"719 442 OFFCURVE",
"720 447 OFFCURVE",
"720 450 CURVE SMOOTH",
"720 461 OFFCURVE",
"712 467 OFFCURVE",
"696 467 CURVE",
"595 435 OFFCURVE",
"504 410 OFFCURVE",
"424 392 CURVE",
"406 402 OFFCURVE",
"387 407 OFFCURVE",
"368 407 CURVE SMOOTH",
"337 407 OFFCURVE",
"299 392 OFFCURVE",
"255 360 CURVE",
"247 353 OFFCURVE",
"243 345 OFFCURVE",
"243 337 CURVE SMOOTH",
"243 326 OFFCURVE",
"250 320 OFFCURVE",
"263 319 CURVE",
"317 326 OFFCURVE",
"366 334 OFFCURVE",
"409 343 CURVE",
"461 306 OFFCURVE",
"531 232 OFFCURVE",
"537 215 CURVE",
"537 188 OFFCURVE",
"532 161 OFFCURVE",
"509 126 CURVE SMOOTH",
"467 62 OFFCURVE",
"389 30 OFFCURVE",
"273 30 CURVE SMOOTH",
"132 30 OFFCURVE",
"87 159 OFFCURVE",
"87 300 CURVE SMOOTH",
"87 520 OFFCURVE",
"245 910 OFFCURVE",
"437 910 CURVE SMOOTH",
"498 910 OFFCURVE",
"541 879 OFFCURVE",
"567 816 CURVE SMOOTH",
"593 757 OFFCURVE",
"627 705 OFFCURVE",
"636 770 CURVE",
"616 884 OFFCURVE",
"550 957 OFFCURVE",
"437 957 CURVE SMOOTH",
"245 957 OFFCURVE",
"41 571 OFFCURVE",
"41 279 CURVE SMOOTH",
"41 133 OFFCURVE",
"116 -15 OFFCURVE",
"266 -15 CURVE SMOOTH",
"364 -15 OFFCURVE",
"443 12 OFFCURVE",
"504 67 CURVE",
"467 -53 OFFCURVE",
"438 -140 OFFCURVE",
"391 -427 CURVE",
"392 -441 OFFCURVE",
"398 -448 OFFCURVE",
"409 -448 CURVE SMOOTH"
);
},
{
closed = 1;
nodes = (
"557 266 OFFCURVE",
"507 323 OFFCURVE",
"472 356 CURVE",
"532 370 OFFCURVE",
"591 387 OFFCURVE",
"650 407 CURVE",
"635 382 OFFCURVE",
"586 282 OFFCURVE",
"571 249 CURVE"
);
}
);
width = 745;
}
);
leftKerningGroup = O;
leftMetricsKey = O;
note = G;
rightKerningGroup = G;
unicode = 0047;
},
{
color = 4;
glyphname = H;
lastChange = "2016-08-03 06:57:24 +0000";
layers = (
{
anchors = (
{
name = bottom;
position = "{338, 0}";
},
{
name = center;
position = "{439, 356}";
},
{
name = top;
position = "{556, 960}";
},
{
name = topleft;
position = "{230, 960}";
}
);
layerId = "79E705E9-1ED7-4818-9510-7FD15DA5A41F";
paths = (
{
closed = 1;
nodes = (
"125 -34 OFFCURVE",
"134 -27 OFFCURVE",
"141 -14 CURVE",
"183 155 OFFCURVE",
"228 296 OFFCURVE",
"269 464 CURVE",
"372 492 OFFCURVE",
"501 509 OFFCURVE",
"656 515 CURVE",
"642 427 LINE SMOOTH",
"631 366 OFFCURVE",
"583 148 OFFCURVE",
"578 10 CURVE",
"579 -4 OFFCURVE",
"584 -11 OFFCURVE",
"595 -11 CURVE SMOOTH",
"607 -11 OFFCURVE",
"622 1 OFFCURVE",
"624 17 CURVE",
"630 183 OFFCURVE",
"682 372 OFFCURVE",
"701 517 CURVE",
"735 517 OFFCURVE",
"764 516 OFFCURVE",
"813 516 CURVE",
"827 520 OFFCURVE",
"837 533 OFFCURVE",
"837 544 CURVE SMOOTH",
"837 553 OFFCURVE",
"832 562 OFFCURVE",
"820 562 CURVE SMOOTH",
"708 562 LINE",
"720 656 OFFCURVE",
"770 948 OFFCURVE",
"771 961 CURVE",
"771 973 OFFCURVE",
"762 978 OFFCURVE",
"754 978 CURVE SMOOTH",
"742 978 OFFCURVE",
"728 969 OFFCURVE",
"725 954 CURVE",
"722 929 OFFCURVE",
"691 777 OFFCURVE",
"662 561 CURVE",
"508 554 OFFCURVE",
"381 538 OFFCURVE",
"281 512 CURVE",
"313 711 OFFCURVE",
"333 858 OFFCURVE",
"341 951 CURVE",
"342 963 OFFCURVE",
"338 968 OFFCURVE",
"324 968 CURVE SMOOTH",
"307 968 OFFCURVE",
"297 960 OFFCURVE",
"295 944 CURVE SMOOTH",
"286 877 OFFCURVE",
"265 636 OFFCURVE",
"232 499 CURVE",
"153 478 OFFCURVE",
"119 454 OFFCURVE",
"119 403 CURVE SMOOTH",
"119 385 OFFCURVE",
"126 374 OFFCURVE",
"140 374 CURVE SMOOTH",
"163 374 OFFCURVE",
"164 388 OFFCURVE",
"164 403 CURVE SMOOTH",
"164 428 OFFCURVE",
"176 442 OFFCURVE",
"220 455 CURVE",
"179 304 OFFCURVE",
"133 138 OFFCURVE",
"96 -14 CURVE",
"97 -27 OFFCURVE",
"103 -34 OFFCURVE",
"113 -34 CURVE SMOOTH"
);
}
);
width = 837;
}
);
leftKerningGroup = H;
note = H;
rightKerningGroup = H;
unicode = 0048;
},
{
color = 4;
glyphname = Hbar;
lastChange = "2016-08-03 06:57:24 +0000";
layers = (
{
components = (
{
name = H;
}
);
layerId = "79E705E9-1ED7-4818-9510-7FD15DA5A41F";
paths = (
{
closed = 1;
nodes = (
"609 763 OFFCURVE",
"742 767 OFFCURVE",
"868 767 CURVE",
"881 771 OFFCURVE",
"892 784 OFFCURVE",
"892 796 CURVE SMOOTH",
"892 804 OFFCURVE",
"886 813 OFFCURVE",
"875 813 CURVE SMOOTH",
"748 813 OFFCURVE",
"615 809 OFFCURVE",
"496 802 CURVE",
"194 789 LINE",
"191 791 OFFCURVE",
"187 792 OFFCURVE",
"181 792 CURVE SMOOTH",
"169 792 OFFCURVE",
"155 779 OFFCURVE",
"155 767 CURVE SMOOTH",
"155 743 OFFCURVE",
"165 734 OFFCURVE",
"407 748 CURVE SMOOTH",
"529 755 LINE"
);
}
);
width = 837;
}
);
leftKerningGroup = H;
rightKerningGroup = H;
unicode = 0126;
},
{
color = 4;
glyphname = I;
lastChange = "2016-08-03 06:58:18 +0000";
layers = (
{
anchors = (
{
name = bottom;
position = "{161, 0}";
},
{
name = ogonek;
position = "{246, 5}";
},
{
name = top;
position = "{393, 960}";
},
{
name = topleft;
position = "{367, 960}";
}
);
layerId = "79E705E9-1ED7-4818-9510-7FD15DA5A41F";
paths = (
{
closed = 1;
nodes = (
"280 -8 OFFCURVE",
"293 8 OFFCURVE",
"293 16 CURVE SMOOTH",
"293 34 OFFCURVE",
"276 42 OFFCURVE",
"190 45 CURVE",
"225 238 OFFCURVE",
"291 528 OFFCURVE",
"387 915 CURVE",
"398 915 OFFCURVE",
"413 914 OFFCURVE",
"457 914 CURVE",
"472 917 OFFCURVE",
"484 930 OFFCURVE",
"484 943 CURVE SMOOTH",
"484 950 OFFCURVE",
"479 956 OFFCURVE",
"469 959 CURVE",
"433 959 OFFCURVE",
"393 960 OFFCURVE",
"271 960 CURVE",
"254 960 OFFCURVE",
"240 945 OFFCURVE",
"240 934 CURVE SMOOTH",
"240 921 OFFCURVE",
"246 915 OFFCURVE",
"259 915 CURVE",
"340 915 LINE",
"324 844 OFFCURVE",
"294 719 OFFCURVE",
"252 539 CURVE SMOOTH",
"209 358 OFFCURVE",
"175 194 OFFCURVE",
"147 46 CURVE",
"85 46 OFFCURVE",
"49 37 OFFCURVE",
"49 12 CURVE SMOOTH",
"49 3 OFFCURVE",
"55 -5 OFFCURVE",
"69 -5 CURVE SMOOTH",
"74 -5 LINE",
"140 14 OFFCURVE",
"205 -10 OFFCURVE",
"264 -10 CURVE"
);
}
);
width = 435;
}
);
leftKerningGroup = I;
leftMetricsKey = I;
note = I;
rightKerningGroup = I;
rightMetricsKey = I;
unicode = 0049;
},
{
color = 4;
glyphname = J;
lastChange = "2016-08-03 06:57:36 +0000";
layers = (
{
anchors = (
{
name = bottom;
position = "{176, 0}";
},
{
name = top;
position = "{388, 960}";
}
);
layerId = "79E705E9-1ED7-4818-9510-7FD15DA5A41F";
paths = (
{
closed = 1;
nodes = (
"326 -13 OFFCURVE",
"398 138 OFFCURVE",
"437 337 CURVE SMOOTH",
"451 415 OFFCURVE",
"516 776 OFFCURVE",
"561 945 CURVE",
"558 956 OFFCURVE",
"552 962 OFFCURVE",
"542 962 CURVE SMOOTH",
"526 961 OFFCURVE",
"520 965 OFFCURVE",
"506 958 CURVE SMOOTH",
"484 945 OFFCURVE",
"462 939 OFFCURVE",
"440 939 CURVE SMOOTH",
"395 939 OFFCURVE",
"317 966 OFFCURVE",
"275 971 CURVE",
"261 969 OFFCURVE",
"247 955 OFFCURVE",
"247 941 CURVE SMOOTH",
"247 935 OFFCURVE",
"251 929 OFFCURVE",
"261 925 CURVE",
"311 920 OFFCURVE",
"386 892 OFFCURVE",
"439 892 CURVE SMOOTH",
"464 892 OFFCURVE",
"488 899 OFFCURVE",
"512 912 CURVE",
"508 895 OFFCURVE",
"403 395 OFFCURVE",
"398 371 CURVE SMOOTH",
"363 204 OFFCURVE",
"305 30 OFFCURVE",
"162 30 CURVE SMOOTH",
"76 30 OFFCURVE",
"25 112 OFFCURVE",
"4 198 CURVE SMOOTH",
"2 207 OFFCURVE",
"-4 211 OFFCURVE",
"-16 211 CURVE SMOOTH",
"-25 211 OFFCURVE",
"-39 198 OFFCURVE",
"-39 179 CURVE SMOOTH",
"-39 169 OFFCURVE",
"-29 144 OFFCURVE",
"-10 103 CURVE SMOOTH",
"26 25 OFFCURVE",
"78 -13 OFFCURVE",
"145 -13 CURVE SMOOTH"
);
}
);
width = 536;
}
);
leftKerningGroup = J;
note = J;
rightKerningGroup = J;
unicode = 004A;
},
{
color = 4;
glyphname = K;
lastChange = "2016-08-03 06:57:42 +0000";
layers = (
{
anchors = (
{
name = bottom;
position = "{215, 0}";
},
{
name = top;
position = "{408, 960}";
}
);
layerId = "79E705E9-1ED7-4818-9510-7FD15DA5A41F";
paths = (
{
closed = 1;
nodes = (
"22 -9 OFFCURVE",
"36 3 OFFCURVE",
"39 19 CURVE",
"51 94 OFFCURVE",
"74 207 OFFCURVE",
"108 360 CURVE",
"115 371 OFFCURVE",
"136 391 OFFCURVE",
"145 401 CURVE",
"167 276 OFFCURVE",
"219 141 OFFCURVE",
"297 63 CURVE SMOOTH",
"362 -5 OFFCURVE",
"427 -17 OFFCURVE",
"499 -4 CURVE SMOOTH",
"533 1 OFFCURVE",
"584 46 OFFCURVE",
"584 69 CURVE SMOOTH",
"584 81 OFFCURVE",
"578 87 OFFCURVE",
"564 87 CURVE SMOOTH",
"559 87 OFFCURVE",
"552 84 OFFCURVE",
"546 79 CURVE",
"506 20 OFFCURVE",
"429 29 OFFCURVE",
"382 55 CURVE SMOOTH",
"292 103 OFFCURVE",
"203 251 OFFCURVE",
"185 438 CURVE",
"219 478 OFFCURVE",
"287 555 OFFCURVE",
"388 669 CURVE SMOOTH",
"489 783 OFFCURVE",
"565 870 OFFCURVE",
"615 930 CURVE SMOOTH",
"621 937 OFFCURVE",
"623 943 OFFCURVE",
"623 950 CURVE SMOOTH",
"623 971 OFFCURVE",
"600 970 OFFCURVE",
"586 959 CURVE",
"525 887 OFFCURVE",
"444 793 OFFCURVE",
"341 679 CURVE SMOOTH",
"238 564 OFFCURVE",
"168 486 OFFCURVE",
"131 444 CURVE",
"150 529 OFFCURVE",
"169 614 OFFCURVE",
"189 699 CURVE SMOOTH",
"213 799 OFFCURVE",
"225 858 OFFCURVE",
"243 958 CURVE SMOOTH",
"243 970 OFFCURVE",
"238 976 OFFCURVE",
"227 976 CURVE SMOOTH",
"217 976 OFFCURVE",
"204 966 OFFCURVE",
"198 952 CURVE",
"181 876 OFFCURVE",
"150 742 OFFCURVE",
"105 549 CURVE SMOOTH",
"61 357 OFFCURVE",
"23 178 OFFCURVE",
"-7 12 CURVE",
"-5 -2 OFFCURVE",
"0 -9 OFFCURVE",
"11 -9 CURVE SMOOTH"
);
}
);
width = 613;
}
);
leftKerningGroup = K;
note = K;
rightKerningGroup = K;
unicode = 004B;
},
{
color = 4;
glyphname = L;
lastChange = "2016-08-03 06:58:28 +0000";
layers = (
{
anchors = (
{
name = bottom;
position = "{269, 0}";
},
{
name = center;
position = "{167, 447}";
},
{
name = top;
position = "{277, 960}";
},
{
name = topright;
position = "{368, 624}";
}
);
layerId = "79E705E9-1ED7-4818-9510-7FD15DA5A41F";
paths = (
{
closed = 1;
nodes = (
"349 -7 OFFCURVE",
"394 -4 OFFCURVE",
"440 0 CURVE",
"453 4 OFFCURVE",
"464 18 OFFCURVE",
"464 29 CURVE SMOOTH",
"464 37 OFFCURVE",
"461 46 OFFCURVE",
"447 46 CURVE",
"407 41 OFFCURVE",
"398 40 OFFCURVE",
"273 36 CURVE SMOOTH",
"229 36 OFFCURVE",
"171 42 OFFCURVE",
"100 54 CURVE",
"124 133 OFFCURVE",
"200 493 OFFCURVE",
"227 632 CURVE SMOOTH",
"254 771 OFFCURVE",
"275 874 OFFCURVE",
"290 940 CURVE",
"288 951 OFFCURVE",
"282 957 OFFCURVE",
"273 957 CURVE SMOOTH",
"262 957 OFFCURVE",
"248 946 OFFCURVE",
"244 933 CURVE",
"227 850 OFFCURVE",
"207 753 OFFCURVE",
"183 643 CURVE SMOOTH",
"153 504 OFFCURVE",
"85 128 OFFCURVE",
"44 65 CURVE SMOOTH",
"29 43 OFFCURVE",
"24 19 OFFCURVE",
"34 6 CURVE SMOOTH",
"37 1 OFFCURVE",
"6 -2 OFFCURVE",
"306 -7 CURVE SMOOTH"
);
}
);
width = 538;
}
);
leftKerningGroup = H;
note = L;
rightKerningGroup = L;
unicode = 004C;
},
{
color = 4;
glyphname = M;
lastChange = "2016-08-03 06:59:01 +0000";
layers = (
{
anchors = (
{
name = bottom;
position = "{443, 0}";
},
{
name = top;
position = "{555, 960}";
}
);
layerId = "79E705E9-1ED7-4818-9510-7FD15DA5A41F";
paths = (
{
closed = 1;
nodes = (
"834 -12 OFFCURVE",
"850 20 OFFCURVE",
"841 37 CURVE",
"846 515 OFFCURVE",
"875 943 OFFCURVE",
"875 953 CURVE SMOOTH",
"875 963 OFFCURVE",
"869 968 OFFCURVE",
"859 968 CURVE SMOOTH",
"848 968 OFFCURVE",
"838 960 OFFCURVE",
"830 944 CURVE SMOOTH",
"779 845 OFFCURVE",
"565 411 OFFCURVE",
"470 249 CURVE",
"419 465 OFFCURVE",
"376 699 OFFCURVE",
"317 950 CURVE SMOOTH",
"314 961 OFFCURVE",
"308 967 OFFCURVE",
"299 967 CURVE SMOOTH",
"289 967 OFFCURVE",
"275 956 OFFCURVE",
"271 943 CURVE",
"223 730 OFFCURVE",
"101 243 OFFCURVE",
"59 9 CURVE",
"60 -4 OFFCURVE",
"65 -11 OFFCURVE",
"76 -11 CURVE SMOOTH",
"88 -11 OFFCURVE",
"97 -4 OFFCURVE",
"104 9 CURVE",
"173 317 OFFCURVE",
"237 545 OFFCURVE",
"294 833 CURVE",
"307 770 OFFCURVE",
"425 235 OFFCURVE",
"442 157 CURVE",
"446 148 OFFCURVE",
"453 143 OFFCURVE",
"462 143 CURVE SMOOTH",
"471 143 OFFCURVE",
"480 150 OFFCURVE",
"487 164 CURVE SMOOTH",
"566 319 OFFCURVE",
"744 650 OFFCURVE",
"815 809 CURVE",
"814 728 OFFCURVE",
"792 179 OFFCURVE",
"792 83 CURVE SMOOTH",
"792 14 OFFCURVE",
"788 -12 OFFCURVE",
"813 -12 CURVE SMOOTH"
);
}
);
width = 982;
}
);
leftKerningGroup = M;
note = M;
rightKerningGroup = M;
unicode = 004D;
},
{
color = 4;
glyphname = N;
lastChange = "2016-08-03 06:59:17 +0000";
layers = (
{
anchors = (
{
name = bottom;
position = "{237, 0}";
},
{
name = top;
position = "{425, 960}";
}
);
layerId = "79E705E9-1ED7-4818-9510-7FD15DA5A41F";
paths = (
{
closed = 1;
nodes = (
"498 -11 OFFCURVE",
"499 19 OFFCURVE",
"507 58 CURVE SMOOTH",
"546 293 OFFCURVE",
"616 669 OFFCURVE",
"673 947 CURVE",
"673 963 OFFCURVE",
"675 971 OFFCURVE",
"663 971 CURVE SMOOTH",
"651 971 OFFCURVE",
"633 961 OFFCURVE",
"628 947 CURVE",
"603 808 OFFCURVE",
"484 189 OFFCURVE",
"465 77 CURVE",
"414 257 OFFCURVE",
"264 829 OFFCURVE",
"242 938 CURVE SMOOTH",
"237 961 OFFCURVE",
"230 969 OFFCURVE",
"215 969 CURVE SMOOTH",
"208 969 OFFCURVE",
"202 966 OFFCURVE",
"200 959 CURVE",
"195 950 OFFCURVE",
"57 277 OFFCURVE",
"28 154 CURVE SMOOTH",
"5 61 OFFCURVE",
"-6 12 OFFCURVE",
"-6 8 CURVE SMOOTH",
"-6 -4 OFFCURVE",
"1 -10 OFFCURVE",
"15 -10 CURVE SMOOTH",
"29 -10 OFFCURVE",
"38 -3 OFFCURVE",
"41 10 CURVE SMOOTH",
"98 250 OFFCURVE",
"171 611 OFFCURVE",
"221 845 CURVE",
"260 683 OFFCURVE",
"381 223 OFFCURVE",
"411 108 CURVE SMOOTH",
"424 55 OFFCURVE",
"441 -11 OFFCURVE",
"468 -11 CURVE SMOOTH"
);
}
);
width = 649;
}
);
leftKerningGroup = N;
note = N;
rightKerningGroup = N;
unicode = 004E;
},
{
color = 4;
glyphname = Eng;
lastChange = "2016-08-03 06:59:37 +0000";
layers = (
{
components = (
{
name = N;
}
);
layerId = "79E705E9-1ED7-4818-9510-7FD15DA5A41F";
paths = (
{
closed = 1;
nodes = (
"486 -29 LINE",
"517 -7 OFFCURVE",
"551 23 OFFCURVE",
"599 55 CURVE SMOOTH",
"605 59 OFFCURVE",
"607 66 OFFCURVE",
"607 75 CURVE SMOOTH",
"607 86 OFFCURVE",
"601 92 OFFCURVE",
"589 92 CURVE SMOOTH",
"569 92 OFFCURVE",
"528 40 OFFCURVE",
"488 19 CURVE"
);
},
{
closed = 1;
nodes = (
"536 229 LINE",
"488 204 LINE",
"427 -140 LINE SMOOTH",
"405 -256 OFFCURVE",
"369 -360 OFFCURVE",
"298 -360 CURVE SMOOTH",
"257 -360 OFFCURVE",
"243 -340 OFFCURVE",
"243 -286 CURVE SMOOTH",
"243 -194 OFFCURVE",
"401 -95 OFFCURVE",
"453 -52 CURVE",
"457 -1 LINE",
"407 -42 OFFCURVE",
"194 -163 OFFCURVE",
"194 -291 CURVE SMOOTH",
"194 -363 OFFCURVE",
"243 -410 OFFCURVE",
"307 -410 CURVE SMOOTH",
"398 -410 OFFCURVE",
"437 -308 OFFCURVE",
"465 -170 CURVE SMOOTH"
);
}
);
width = 737;
}
);
leftKerningGroup = N;
rightKerningGroup = j;
rightMetricsKey = N;
unicode = 014A;
},
{
color = 4;
glyphname = O;
lastChange = "2016-08-03 21:48:40 +0000";
layers = (
{
anchors = (
{
name = bottom;
position = "{229, 0}";
},
{
name = center;
position = "{302, 443}";
},
{
name = ogonek;
position = "{363, 35}";
},
{
name = top;
position = "{462, 960}";
},
{
name = topleft;
position = "{28, 960}";
},
{
name = topright;
position = "{538, 925}";
}
);
layerId = "79E705E9-1ED7-4818-9510-7FD15DA5A41F";
paths = (
{
closed = 1;
nodes = (
"340 -22 OFFCURVE",
"440 62 OFFCURVE",
"511 191 CURVE SMOOTH",
"582 321 OFFCURVE",
"622 482 OFFCURVE",
"622 625 CURVE SMOOTH",
"622 784 OFFCURVE",
"594 975 OFFCURVE",
"398 975 CURVE",
"382 973 OFFCURVE",
"373 965 OFFCURVE",
"373 953 CURVE SMOOTH",
"373 932 OFFCURVE",
"434 929 OFFCURVE",
"465 920 CURVE SMOOTH",
"494 912 OFFCURVE",
"518 889 OFFCURVE",
"537 852 CURVE SMOOTH",
"591 741 OFFCURVE",
"580 582 OFFCURVE",
"552 454 CURVE SMOOTH",
"510 252 OFFCURVE",
"398 24 OFFCURVE",
"235 24 CURVE SMOOTH",
"136 24 OFFCURVE",
"93 118 OFFCURVE",
"93 316 CURVE SMOOTH",
"93 480 OFFCURVE",
"188 839 OFFCURVE",
"348 839 CURVE SMOOTH",
"379 839 OFFCURVE",
"408 831 OFFCURVE",
"438 814 CURVE SMOOTH",
"479 795 OFFCURVE",
"496 820 OFFCURVE",
"468 848 CURVE",
"436 875 OFFCURVE",
"401 888 OFFCURVE",
"363 888 CURVE SMOOTH",
"172 888 OFFCURVE",
"48 581 OFFCURVE",
"48 295 CURVE SMOOTH",
"48 83 OFFCURVE",
"108 -22 OFFCURVE",
"226 -22 CURVE SMOOTH"
);
}
);
width = 661;
}
);
leftKerningGroup = O;
note = O;
rightKerningGroup = O;
unicode = 004F;
},
{
color = 4;
glyphname = Oslash;
lastChange = "2016-08-03 06:55:43 +0000";
layers = (
{
anchors = (
{
name = bottom;
position = "{310, 0}";
},
{
name = top;
position = "{439, 960}";
}
);
layerId = "79E705E9-1ED7-4818-9510-7FD15DA5A41F";
paths = (
{
closed = 1;
nodes = (
"92 -54 OFFCURVE",
"99 -49 OFFCURVE",
"104 -40 CURVE",
"123 2 LINE",
"147 -14 OFFCURVE",
"175 -22 OFFCURVE",
"208 -22 CURVE SMOOTH",
"497 -22 OFFCURVE",
"735 626 OFFCURVE",
"542 900 CURVE",
"568 990 LINE",
"574 1011 OFFCURVE",
"573 1024 OFFCURVE",
"556 1023 CURVE SMOOTH",
"532 1022 OFFCURVE",
"522 989 OFFCURVE",
"509 934 CURVE",
"476 961 OFFCURVE",
"432 975 OFFCURVE",
"380 975 CURVE",
"363 973 OFFCURVE",
"355 965 OFFCURVE",
"355 953 CURVE SMOOTH",
"355 947 OFFCURVE",
"360 942 OFFCURVE",
"369 938 CURVE SMOOTH",
"399 928 OFFCURVE",
"465 929 OFFCURVE",
"497 885 CURVE",
"490 861 OFFCURVE",
"349 591 OFFCURVE",
"120 80 CURVE",
"93 128 OFFCURVE",
"79 207 OFFCURVE",
"79 316 CURVE SMOOTH",
"79 396 OFFCURVE",
"91 477 OFFCURVE",
"115 559 CURVE SMOOTH",
"164 723 OFFCURVE",
"254 842 OFFCURVE",
"334 842 CURVE SMOOTH",
"359 842 OFFCURVE",
"373 839 OFFCURVE",
"393 826 CURVE SMOOTH",
"406 818 OFFCURVE",
"412 814 OFFCURVE",
"424 816 CURVE SMOOTH",
"437 818 OFFCURVE",
"445 842 OFFCURVE",
"423 860 CURVE SMOOTH",
"401 878 OFFCURVE",
"377 888 OFFCURVE",
"345 888 CURVE SMOOTH",
"154 888 OFFCURVE",
"30 577 OFFCURVE",
"30 305 CURVE SMOOTH",
"30 169 OFFCURVE",
"52 76 OFFCURVE",
"96 26 CURVE",
"65 -43 OFFCURVE",
"66 -36 OFFCURVE",
"66 -42 CURVE SMOOTH",
"66 -50 OFFCURVE",
"71 -54 OFFCURVE",
"82 -54 CURVE SMOOTH"
);
},
{
closed = 1;
nodes = (
"184 24 OFFCURVE",
"162 32 OFFCURVE",
"144 48 CURVE",
"513 874 OFFCURVE",
"376 544 OFFCURVE",
"520 848 CURVE",
"590 702 OFFCURVE",
"554 451 OFFCURVE",
"466 253 CURVE SMOOTH",
"406 120 OFFCURVE",
"315 24 OFFCURVE",
"211 24 CURVE SMOOTH"
);
}
);
width = 648;
}
);
leftKerningGroup = O;
note = Oslash;
rightKerningGroup = O;
rightMetricsKey = O;
unicode = 00D8;
},
{
color = 4;
glyphname = OE;
lastChange = "2016-08-03 06:55:37 +0000";
layers = (
{
layerId = "79E705E9-1ED7-4818-9510-7FD15DA5A41F";
paths = (
{
closed = 1;
nodes = (
"238 -22 OFFCURVE",
"267 -16 OFFCURVE",
"294 -5 CURVE SMOOTH",
"374 27 OFFCURVE",
"442 97 OFFCURVE",
"499 204 CURVE",
"482 117 OFFCURVE",
"464 59 OFFCURVE",
"446 31 CURVE",
"444 28 OFFCURVE",
"443 24 OFFCURVE",
"443 20 CURVE SMOOTH",
"443 11 OFFCURVE",
"448 -1 OFFCURVE",
"471 -1 CURVE",
"505 2 LINE",
"524 2 OFFCURVE",
"582 0 OFFCURVE",
"676 -3 CURVE SMOOTH",
"771 -7 OFFCURVE",
"843 -9 OFFCURVE",
"893 -9 CURVE SMOOTH",
"900 -9 LINE SMOOTH",
"947 -9 OFFCURVE",
"973 -5 OFFCURVE",
"973 22 CURVE SMOOTH",
"973 30 OFFCURVE",
"967 36 OFFCURVE",
"956 39 CURVE",
"943 38 OFFCURVE",
"920 37 OFFCURVE",
"887 37 CURVE SMOOTH",
"501 45 LINE",
"536 116 OFFCURVE",
"550 216 OFFCURVE",
"560 289 CURVE SMOOTH",
"565 325 OFFCURVE",
"578 386 OFFCURVE",
"597 472 CURVE",
"615 469 OFFCURVE",
"657 468 OFFCURVE",
"723 468 CURVE SMOOTH",
"739 468 LINE",
"823 467 LINE SMOOTH",
"852 467 OFFCURVE",
"873 469 OFFCURVE",
"886 473 CURVE SMOOTH",
"899 478 OFFCURVE",
"906 486 OFFCURVE",
"906 500 CURVE SMOOTH",
"906 508 OFFCURVE",
"900 513 OFFCURVE",
"889 516 CURVE",
"868 515 OFFCURVE",
"818 514 OFFCURVE",
"739 514 CURVE SMOOTH",
"677 514 LINE SMOOTH",
"649 514 OFFCURVE",
"626 516 OFFCURVE",
"607 518 CURVE",
"620 575 OFFCURVE",
"633 632 OFFCURVE",
"647 689 CURVE SMOOTH",
"660 747 OFFCURVE",
"670 790 OFFCURVE",
"677 820 CURVE SMOOTH",
"683 850 OFFCURVE",
"689 875 OFFCURVE",
"697 895 CURVE",
"749 912 OFFCURVE",
"845 921 OFFCURVE",
"985 921 CURVE SMOOTH",
"1052 921 LINE",
"1065 925 OFFCURVE",
"1076 938 OFFCURVE",
"1076 951 CURVE SMOOTH",
"1076 962 OFFCURVE",
"1060 968 OFFCURVE",
"1027 968 CURVE SMOOTH",
"1000 968 LINE SMOOTH",
"868 968 OFFCURVE",
"769 959 OFFCURVE",
"704 943 CURVE",
"703 953 OFFCURVE",
"697 958 OFFCURVE",
"687 958 CURVE SMOOTH",
"681 958 OFFCURVE",
"674 955 OFFCURVE",
"666 949 CURVE",
"660 942 OFFCURVE",
"657 936 OFFCURVE",
"657 929 CURVE SMOOTH",
"657 927 LINE",
"638 917 OFFCURVE",
"628 905 OFFCURVE",
"628 894 CURVE SMOOTH",
"628 881 OFFCURVE",
"633 875 OFFCURVE",
"644 874 CURVE",
"640 857 LINE SMOOTH",
"630 816 OFFCURVE",
"617 763 OFFCURVE",
"602 697 CURVE",
"589 882 OFFCURVE",
"515 975 OFFCURVE",
"380 975 CURVE",
"363 973 OFFCURVE",
"355 965 OFFCURVE",
"355 953 CURVE SMOOTH",
"355 947 OFFCURVE",
"360 942 OFFCURVE",
"369 938 CURVE SMOOTH",
"378 935 OFFCURVE",
"390 932 OFFCURVE",
"404 930 CURVE SMOOTH",
"417 927 OFFCURVE",
"431 924 OFFCURVE",
"446 920 CURVE SMOOTH",
"476 912 OFFCURVE",
"500 889 OFFCURVE",
"519 852 CURVE SMOOTH",
"544 799 OFFCURVE",
"557 739 OFFCURVE",
"557 672 CURVE SMOOTH",
"557 605 OFFCURVE",
"550 537 OFFCURVE",
"535 467 CURVE SMOOTH",
"483 228 OFFCURVE",
"368 24 OFFCURVE",
"208 24 CURVE SMOOTH",
"122 24 OFFCURVE",
"79 121 OFFCURVE",
"79 316 CURVE SMOOTH",
"79 396 OFFCURVE",
"91 477 OFFCURVE",
"115 559 CURVE SMOOTH",
"164 723 OFFCURVE",
"250 839 OFFCURVE",
"330 839 CURVE SMOOTH",
"360 839 OFFCURVE",
"390 831 OFFCURVE",
"420 814 CURVE SMOOTH",
"433 808 OFFCURVE",
"440 804 OFFCURVE",
"443 804 CURVE SMOOTH",
"454 804 OFFCURVE",
"459 812 OFFCURVE",
"459 828 CURVE SMOOTH",
"459 835 OFFCURVE",
"456 842 OFFCURVE",
"450 848 CURVE",
"417 875 OFFCURVE",
"382 888 OFFCURVE",
"345 888 CURVE SMOOTH",
"154 888 OFFCURVE",
"30 581 OFFCURVE",
"30 295 CURVE SMOOTH",
"30 83 OFFCURVE",
"89 -22 OFFCURVE",
"208 -22 CURVE SMOOTH"
);
}
);
width = 1017;
}
);
leftKerningGroup = O;
note = OE;
unicode = 0152;
},
{
color = 4;
glyphname = P;
lastChange = "2016-08-03 06:59:58 +0000";
layers = (
{
anchors = (
{
name = bottom;
position = "{82, -5}";
},
{
name = top;
position = "{281, 960}";
}
);
layerId = "79E705E9-1ED7-4818-9510-7FD15DA5A41F";
paths = (
{
closed = 1;
nodes = (
"82 -5 OFFCURVE",
"96 7 OFFCURVE",
"99 23 CURVE",
"109 81 OFFCURVE",
"166 345 OFFCURVE",
"173 384 CURVE",
"293 349 OFFCURVE",
"541 416 OFFCURVE",
"541 726 CURVE SMOOTH",
"541 860 OFFCURVE",
"442 967 OFFCURVE",
"298 967 CURVE",
"296 977 OFFCURVE",
"291 982 OFFCURVE",
"281 982 CURVE SMOOTH",
"271 982 OFFCURVE",
"263 975 OFFCURVE",
"256 962 CURVE",
"178 947 OFFCURVE",
"135 891 OFFCURVE",
"135 868 CURVE SMOOTH",
"135 857 OFFCURVE",
"141 851 OFFCURVE",
"153 851 CURVE SMOOTH",
"162 851 OFFCURVE",
"170 855 OFFCURVE",
"176 863 CURVE",
"190 888 OFFCURVE",
"211 905 OFFCURVE",
"241 914 CURVE",
"141 445 LINE",
"140 446 OFFCURVE",
"92 468 OFFCURVE",
"72 468 CURVE SMOOTH",
"60 468 OFFCURVE",
"46 460 OFFCURVE",
"46 444 CURVE SMOOTH",
"46 430 OFFCURVE",
"74 413 OFFCURVE",
"131 395 CURVE",
"118 325 OFFCURVE",
"70 118 OFFCURVE",
"53 16 CURVE",
"55 2 OFFCURVE",
"61 -5 OFFCURVE",
"71 -5 CURVE SMOOTH"
);
},
{
closed = 1;
nodes = (
"260 411 OFFCURVE",
"183 430 CURVE",
"288 922 LINE",
"418 922 OFFCURVE",
"499 821 OFFCURVE",
"499 702 CURVE SMOOTH",
"499 626 OFFCURVE",
"476 561 OFFCURVE",
"429 507 CURVE SMOOTH",
"361 430 OFFCURVE"
);
}
);
width = 561;
}
);
leftKerningGroup = D;
note = P;
rightKerningGroup = P;
unicode = 0050;
},
{
color = 4;
glyphname = Thorn;
lastChange = "2016-08-03 06:59:58 +0000";
layers = (
{
layerId = "79E705E9-1ED7-4818-9510-7FD15DA5A41F";
paths = (
{
closed = 1;
nodes = (
"47 -17 OFFCURVE",
"63 -6 OFFCURVE",
"69 10 CURVE",
"119 240 LINE",
"232 240 OFFCURVE",
"324 251 OFFCURVE",
"394 272 CURVE SMOOTH",
"557 321 OFFCURVE",
"646 440 OFFCURVE",
"646 659 CURVE SMOOTH",
"646 771 OFFCURVE",
"619 974 OFFCURVE",
"420 974 CURVE SMOOTH",
"371 974 OFFCURVE",
"317 948 OFFCURVE",
"258 897 CURVE",
"261 917 OFFCURVE",
"265 935 OFFCURVE",
"270 953 CURVE SMOOTH",
"279 989 OFFCURVE",
"299 1054 OFFCURVE",
"299 1100 CURVE",
"302 1111 LINE",
"303 1113 OFFCURVE",
"303 1116 OFFCURVE",
"303 1120 CURVE SMOOTH",
"303 1131 OFFCURVE",
"297 1136 OFFCURVE",
"285 1136 CURVE SMOOTH",
"270 1136 OFFCURVE",
"252 1122 OFFCURVE",
"252 1106 CURVE SMOOTH",
"252 1099 OFFCURVE",
"250 1089 OFFCURVE",
"248 1079 CURVE SMOOTH",
"24 3 LINE",
"23 1 OFFCURVE",
"23 0 OFFCURVE",
"23 -1 CURVE SMOOTH",
"23 -2 OFFCURVE",
"23 -3 OFFCURVE",
"23 -4 CURVE SMOOTH",
"23 -13 OFFCURVE",
"27 -17 OFFCURVE",
"35 -17 CURVE SMOOTH"
);
},
{
closed = 1;
nodes = (
"249 850 LINE",
"258 860 OFFCURVE",
"271 871 OFFCURVE",
"285 880 CURVE SMOOTH",
"333 911 OFFCURVE",
"377 927 OFFCURVE",
"416 927 CURVE SMOOTH",
"455 927 OFFCURVE",
"486 919 OFFCURVE",
"509 905 CURVE SMOOTH",
"571 868 OFFCURVE",
"602 782 OFFCURVE",
"602 650 CURVE SMOOTH",
"602 500 OFFCURVE",
"554 398 OFFCURVE",
"459 345 CURVE SMOOTH",
"430 328 OFFCURVE",
"392 314 OFFCURVE",
"346 303 CURVE SMOOTH",
"299 291 OFFCURVE",
"227 285 OFFCURVE",
"128 285 CURVE"
);
}
);
width = 628;
}
);
leftKerningGroup = D;
note = Thorn;
rightKerningGroup = P;
unicode = 00DE;
},
{
color = 4;
glyphname = Q;
lastChange = "2016-08-03 07:00:10 +0000";
layers = (
{
anchors = (
{
name = bottom;
position = "{236, 0}";
},
{
name = top;
position = "{382, 960}";
}
);
layerId = "79E705E9-1ED7-4818-9510-7FD15DA5A41F";
paths = (
{
closed = 1;
nodes = (
"874 -360 OFFCURVE",
"995 -339 OFFCURVE",
"1133 -313 CURVE",
"1147 -308 OFFCURVE",
"1157 -294 OFFCURVE",
"1157 -283 CURVE SMOOTH",
"1157 -273 OFFCURVE",
"1149 -268 OFFCURVE",
"1133 -268 CURVE",
"1000 -293 OFFCURVE",
"885 -314 OFFCURVE",
"777 -314 CURVE SMOOTH",
"580 -314 OFFCURVE",
"394 -217 OFFCURVE",
"217 -17 CURVE",
"233 -23 OFFCURVE",
"351 -40 OFFCURVE",
"458 84 CURVE SMOOTH",
"583 228 OFFCURVE",
"649 464 OFFCURVE",
"649 710 CURVE SMOOTH",
"649 835 OFFCURVE",
"556 984 OFFCURVE",
"433 984 CURVE SMOOTH",
"371 984 OFFCURVE",
"340 971 OFFCURVE",
"340 946 CURVE SMOOTH",
"340 936 OFFCURVE",
"347 931 OFFCURVE",
"360 929 CURVE",
"382 936 OFFCURVE",
"407 939 OFFCURVE",
"433 939 CURVE SMOOTH",
"616 939 OFFCURVE",
"619 646 OFFCURVE",
"584 483 CURVE SMOOTH",
"551 319 OFFCURVE",
"488 190 OFFCURVE",
"395 96 CURVE SMOOTH",
"346 47 OFFCURVE",
"297 23 OFFCURVE",
"249 23 CURVE SMOOTH",
"81 23 OFFCURVE",
"92 281 OFFCURVE",
"108 429 CURVE SMOOTH",
"126 581 OFFCURVE",
"166 697 OFFCURVE",
"228 777 CURVE SMOOTH",
"272 835 OFFCURVE",
"323 864 OFFCURVE",
"381 864 CURVE SMOOTH",
"390 864 OFFCURVE",
"433 850 OFFCURVE",
"446 850 CURVE SMOOTH",
"459 850 OFFCURVE",
"473 863 OFFCURVE",
"473 872 CURVE SMOOTH",
"473 891 OFFCURVE",
"429 900 OFFCURVE",
"395 900 CURVE SMOOTH",
"314 900 OFFCURVE",
"247 868 OFFCURVE",
"191 803 CURVE SMOOTH",
"96 692 OFFCURVE",
"51 496 OFFCURVE",
"51 283 CURVE SMOOTH",
"51 180 OFFCURVE",
"78 63 OFFCURVE",
"144 8 CURVE",
"353 -260 OFFCURVE",
"557 -360 OFFCURVE",
"772 -360 CURVE SMOOTH"
);
}
);
width = 666;
}
);
leftKerningGroup = O;
leftMetricsKey = O;
note = Q;
rightKerningGroup = Q;
unicode = 0051;
},
{
color = 4;
glyphname = R;
lastChange = "2016-08-03 07:00:20 +0000";
layers = (
{
anchors = (
{
name = bottom;
position = "{175, 0}";
},
{
name = top;
position = "{310, 960}";
}
);
layerId = "79E705E9-1ED7-4818-9510-7FD15DA5A41F";
paths = (
{
closed = 1;
nodes = (
"451 -37 OFFCURVE",
"489 -20 OFFCURVE",
"527 8 CURVE",
"548 29 OFFCURVE",
"519 63 OFFCURVE",
"505 42 CURVE SMOOTH",
"476 24 OFFCURVE",
"450 8 OFFCURVE",
"404 8 CURVE SMOOTH",
"296 8 OFFCURVE",
"237 193 OFFCURVE",
"237 421 CURVE",
"420 421 OFFCURVE",
"527 551 OFFCURVE",
"527 724 CURVE SMOOTH",
"527 896 OFFCURVE",
"422 979 OFFCURVE",
"271 958 CURVE",
"281 979 OFFCURVE",
"274 991 OFFCURVE",
"267 991 CURVE SMOOTH",
"257 991 OFFCURVE",
"244 979 OFFCURVE",
"234 949 CURVE",
"170 933 OFFCURVE",
"123 900 OFFCURVE",
"123 863 CURVE SMOOTH",
"123 854 OFFCURVE",
"127 847 OFFCURVE",
"136 843 CURVE",
"167 840 OFFCURVE",
"166 878 OFFCURVE",
"215 894 CURVE",
"157 636 OFFCURVE",
"29 16 OFFCURVE",
"29 14 CURVE SMOOTH",
"29 3 OFFCURVE",
"37 -2 OFFCURVE",
"52 -2 CURVE SMOOTH",
"67 -2 OFFCURVE",
"76 4 OFFCURVE",
"80 15 CURVE",
"264 917 LINE",
"282 922 OFFCURVE",
"308 925 OFFCURVE",
"342 925 CURVE SMOOTH",
"428 925 OFFCURVE",
"486 838 OFFCURVE",
"486 729 CURVE SMOOTH",
"486 659 OFFCURVE",
"465 598 OFFCURVE",
"424 547 CURVE SMOOTH",
"384 499 OFFCURVE",
"325 468 OFFCURVE",
"275 468 CURVE SMOOTH",
"248 468 OFFCURVE",
"216 486 OFFCURVE",
"205 486 CURVE SMOOTH",
"194 486 OFFCURVE",
"188 476 OFFCURVE",
"188 456 CURVE SMOOTH",
"188 363 OFFCURVE",
"196 280 OFFCURVE",
"212 207 CURVE SMOOTH",
"236 55 OFFCURVE",
"307 -37 OFFCURVE",
"391 -37 CURVE SMOOTH"
);
},
{
closed = 1;
nodes = (
"451 -37 OFFCURVE",
"489 -20 OFFCURVE",
"527 8 CURVE",
"548 29 OFFCURVE",
"519 63 OFFCURVE",
"505 42 CURVE SMOOTH",
"476 24 OFFCURVE",
"450 8 OFFCURVE",
"404 8 CURVE SMOOTH",
"296 8 OFFCURVE",
"237 193 OFFCURVE",
"237 421 CURVE",
"420 421 OFFCURVE",
"527 551 OFFCURVE",
"527 724 CURVE SMOOTH",
"527 896 OFFCURVE",
"422 979 OFFCURVE",
"271 958 CURVE",
"281 979 OFFCURVE",
"274 991 OFFCURVE",
"267 991 CURVE SMOOTH",
"257 991 OFFCURVE",
"244 979 OFFCURVE",
"234 949 CURVE",
"170 933 OFFCURVE",
"123 900 OFFCURVE",
"123 863 CURVE SMOOTH",
"123 854 OFFCURVE",
"127 847 OFFCURVE",
"136 843 CURVE",
"167 840 OFFCURVE",
"166 878 OFFCURVE",
"215 894 CURVE",
"157 636 OFFCURVE",
"29 16 OFFCURVE",
"29 14 CURVE SMOOTH",
"29 3 OFFCURVE",
"37 -2 OFFCURVE",
"52 -2 CURVE SMOOTH",
"67 -2 OFFCURVE",
"76 4 OFFCURVE",
"80 15 CURVE",
"264 917 LINE",
"282 922 OFFCURVE",
"308 925 OFFCURVE",
"342 925 CURVE SMOOTH",
"428 925 OFFCURVE",
"486 838 OFFCURVE",
"486 729 CURVE SMOOTH",
"486 659 OFFCURVE",
"465 598 OFFCURVE",
"424 547 CURVE SMOOTH",
"384 499 OFFCURVE",
"325 468 OFFCURVE",
"275 468 CURVE SMOOTH",
"248 468 OFFCURVE",
"216 486 OFFCURVE",
"205 486 CURVE SMOOTH",
"194 486 OFFCURVE",
"188 476 OFFCURVE",
"188 456 CURVE SMOOTH",
"188 363 OFFCURVE",
"196 280 OFFCURVE",
"212 207 CURVE SMOOTH",
"236 55 OFFCURVE",
"307 -37 OFFCURVE",
"391 -37 CURVE SMOOTH"
);
}
);
width = 507;
}
);
leftKerningGroup = D;
note = R;
rightKerningGroup = R;
unicode = 0052;
},
{
color = 4;
glyphname = S;
lastChange = "2016-08-03 07:00:30 +0000";
layers = (
{
anchors = (
{
name = bottom;
position = "{236, 0}";
},
{
name = top;
position = "{471, 967}";
}
);
layerId = "79E705E9-1ED7-4818-9510-7FD15DA5A41F";
paths = (
{
closed = 1;
nodes = (
"422 -11 OFFCURVE",
"488 127 OFFCURVE",
"488 245 CURVE SMOOTH",
"488 441 OFFCURVE",
"326 617 OFFCURVE",
"326 815 CURVE SMOOTH",
"326 874 OFFCURVE",
"358 925 OFFCURVE",
"421 925 CURVE SMOOTH",
"483 925 OFFCURVE",
"526 878 OFFCURVE",
"535 819 CURVE SMOOTH",
"537 807 OFFCURVE",
"543 801 OFFCURVE",
"553 801 CURVE SMOOTH",
"565 801 OFFCURVE",
"579 813 OFFCURVE",
"579 826 CURVE SMOOTH",
"579 858 OFFCURVE",
"537 967 OFFCURVE",
"421 967 CURVE SMOOTH",
"324 967 OFFCURVE",
"278 885 OFFCURVE",
"278 788 CURVE SMOOTH",
"278 738 OFFCURVE",
"305 651 OFFCURVE",
"359 525 CURVE SMOOTH",
"413 400 OFFCURVE",
"440 308 OFFCURVE",
"440 250 CURVE SMOOTH",
"440 135 OFFCURVE",
"367 33 OFFCURVE",
"249 33 CURVE SMOOTH",
"141 33 OFFCURVE",
"41 79 OFFCURVE",
"41 199 CURVE SMOOTH",
"41 264 OFFCURVE",
"67 316 OFFCURVE",
"134 377 CURVE",
"140 385 OFFCURVE",
"143 408 OFFCURVE",
"119 408 CURVE SMOOTH",
"101 408 OFFCURVE",
"66 369 OFFCURVE",
"50 349 CURVE SMOOTH",
"12 303 OFFCURVE",
"-7 248 OFFCURVE",
"-7 185 CURVE SMOOTH",
"-7 59 OFFCURVE",
"108 -11 OFFCURVE",
"244 -11 CURVE SMOOTH"
);
}
);
width = 618;
}
);
leftKerningGroup = S;
leftMetricsKey = S;
note = S;
rightKerningGroup = S;
rightMetricsKey = S;
unicode = 0053;
},
{
color = 4;
glyphname = Germandbls;
lastChange = "2016-08-03 07:00:36 +0000";
layers = (
{
anchors = (
{
name = bottom;
position = "{338, 0}";
}
);
background = {
paths = (
{
closed = 1;
nodes = (
"70 -46 OFFCURVE",
"88 -34 OFFCURVE",
"93 -18 CURVE",
"134 193 OFFCURVE",
"168 359 OFFCURVE",
"243 572 CURVE SMOOTH",
"327 779 OFFCURVE",
"401 922 OFFCURVE",
"528 922 CURVE SMOOTH",
"574 922 OFFCURVE",
"600 901 OFFCURVE",
"602 874 CURVE",
"651 874 LINE",
"657 937 OFFCURVE",
"604 967 OFFCURVE",
"550 967 CURVE SMOOTH",
"317 967 OFFCURVE",
"283 765 OFFCURVE",
"212 605 CURVE SMOOTH",
"152 451 OFFCURVE",
"45 36 OFFCURVE",
"45 -32 CURVE SMOOTH",
"45 -41 OFFCURVE",
"50 -46 OFFCURVE",
"58 -46 CURVE SMOOTH"
);
},
{
closed = 1;
nodes = (
"379 -8 OFFCURVE",
"428 10 OFFCURVE",
"467 46 CURVE SMOOTH",
"644 214 OFFCURVE",
"622 515 OFFCURVE",
"370 568 CURVE",
"353 581 LINE",
"307 551 OFFCURVE",
"290 556 OFFCURVE",
"290 530 CURVE SMOOTH",
"290 521 OFFCURVE",
"296 517 OFFCURVE",
"307 516 CURVE",
"337 519 OFFCURVE",
"359 520 OFFCURVE",
"374 520 CURVE SMOOTH",
"447 520 OFFCURVE",
"534 436 OFFCURVE",
"534 318 CURVE SMOOTH",
"534 170 OFFCURVE",
"455 38 OFFCURVE",
"338 38 CURVE SMOOTH",
"289 38 OFFCURVE",
"286 65 OFFCURVE",
"268 96 CURVE",
"254 110 OFFCURVE",
"222 93 OFFCURVE",
"222 60 CURVE SMOOTH",
"222 23 OFFCURVE",
"263 -8 OFFCURVE",
"339 -8 CURVE SMOOTH"
);
},
{
closed = 1;
nodes = (
"544 491 LINE",
"544 564 OFFCURVE",
"477 629 OFFCURVE",
"477 703 CURVE SMOOTH",
"477 762 OFFCURVE",
"537 874 OFFCURVE",
"651 874 CURVE",
"651 916 LINE",
"501 916 OFFCURVE",
"429 773 OFFCURVE",
"429 676 CURVE SMOOTH",
"429 627 OFFCURVE",
"496 542 OFFCURVE",
"496 491 CURVE"
);
}
);
};
layerId = "79E705E9-1ED7-4818-9510-7FD15DA5A41F";
paths = (
{
closed = 1;
nodes = (
"70 -46 OFFCURVE",
"88 -34 OFFCURVE",
"93 -18 CURVE",
"147 260 OFFCURVE",
"172 359 OFFCURVE",
"261 626 CURVE SMOOTH",
"320 804 OFFCURVE",
"402 928 OFFCURVE",
"532 928 CURVE SMOOTH",
"601 928 OFFCURVE",
"644 892 OFFCURVE",
"647 793 CURVE SMOOTH",
"647 768 OFFCURVE",
"681 761 OFFCURVE",
"686 782 CURVE",
"693 907 OFFCURVE",
"636 967 OFFCURVE",
"537 967 CURVE SMOOTH",
"356 967 OFFCURVE",
"261 770 OFFCURVE",
"203 608 CURVE SMOOTH",
"148 454 OFFCURVE",
"47 81 OFFCURVE",
"40 -32 CURVE SMOOTH",
"40 -41 OFFCURVE",
"50 -46 OFFCURVE",
"58 -46 CURVE SMOOTH"
);
},
{
closed = 1;
nodes = (
"675 824 LINE",
"485 864 OFFCURVE",
"403 798 OFFCURVE",
"403 692 CURVE SMOOTH",
"403 557 OFFCURVE",
"534 496 OFFCURVE",
"534 318 CURVE SMOOTH",
"534 170 OFFCURVE",
"455 38 OFFCURVE",
"338 38 CURVE SMOOTH",
"268 38 OFFCURVE",
"247 72 OFFCURVE",
"230 139 CURVE",
"216 153 OFFCURVE",
"176 136 OFFCURVE",
"176 103 CURVE SMOOTH",
"176 43 OFFCURVE",
"235 -8 OFFCURVE",
"339 -8 CURVE SMOOTH",
"472 -8 OFFCURVE",
"582 159 OFFCURVE",
"582 306 CURVE SMOOTH",
"582 506 OFFCURVE",
"450 567 OFFCURVE",
"450 697 CURVE SMOOTH",
"450 787 OFFCURVE",
"513 820 OFFCURVE",
"677 800 CURVE"
);
}
);
width = 717;
}
);
leftKerningGroup = D;
rightKerningGroup = B;
rightMetricsKey = S;
unicode = 1E9E;
},
{
color = 4;
glyphname = T;
lastChange = "2016-08-03 07:00:50 +0000";
layers = (
{
anchors = (
{
name = bottom;
position = "{191, 0}";
},
{
name = center;
position = "{300, 571}";
},
{
name = top;
position = "{382, 960}";
}
);
layerId = "79E705E9-1ED7-4818-9510-7FD15DA5A41F";
paths = (
{
closed = 1;
nodes = (
"198 -38 OFFCURVE",
"211 -26 OFFCURVE",
"215 -10 CURVE",
"281 393 OFFCURVE",
"331 576 OFFCURVE",
"398 909 CURVE",
"449 910 OFFCURVE",
"606 920 OFFCURVE",
"665 920 CURVE SMOOTH",
"698 920 OFFCURVE",
"714 930 OFFCURVE",
"714 950 CURVE SMOOTH",
"714 958 OFFCURVE",
"708 964 OFFCURVE",
"697 967 CURVE",
"645 967 OFFCURVE",
"445 956 OFFCURVE",
"418 954 CURVE",
"423 980 OFFCURVE",
"418 996 OFFCURVE",
"400 996 CURVE SMOOTH",
"384 996 OFFCURVE",
"371 982 OFFCURVE",
"362 954 CURVE",
"157 958 LINE SMOOTH",
"148 958 OFFCURVE",
"138 958 OFFCURVE",
"129 957 CURVE SMOOTH",
"95 955 OFFCURVE",
"78 944 OFFCURVE",
"78 926 CURVE SMOOTH",
"78 916 OFFCURVE",
"85 911 OFFCURVE",
"99 909 CURVE",
"168 913 OFFCURVE",
"245 912 OFFCURVE",
"350 909 CURVE",
"321 779 OFFCURVE",
"191 162 OFFCURVE",
"169 -17 CURVE",
"170 -31 OFFCURVE",
"176 -38 OFFCURVE",
"188 -38 CURVE SMOOTH"
);
}
);
width = 655;
}
);
leftKerningGroup = T;
leftMetricsKey = T;
note = T;
rightKerningGroup = T;
rightMetricsKey = T;
unicode = 0054;
},
{
color = 4;
glyphname = U;
lastChange = "2016-08-03 07:00:58 +0000";
layers = (
{
anchors = (
{
name = bottom;
position = "{211, 0}";
},
{
name = ogonek;
position = "{326, 23}";
},
{
name = top;
position = "{434, 960}";
},
{
name = topright;
position = "{657, 961}";
}
);
layerId = "79E705E9-1ED7-4818-9510-7FD15DA5A41F";
paths = (
{
closed = 1;
nodes = (
"334 -10 OFFCURVE",
"407 33 OFFCURVE",
"452 118 CURVE SMOOTH",
"524 251 OFFCURVE",
"583 595 OFFCURVE",
"627 778 CURVE SMOOTH",
"649 872 OFFCURVE",
"675 934 OFFCURVE",
"675 944 CURVE SMOOTH",
"675 955 OFFCURVE",
"669 961 OFFCURVE",
"657 961 CURVE SMOOTH",
"645 961 OFFCURVE",
"629 946 OFFCURVE",
"622 922 CURVE SMOOTH",
"556 700 OFFCURVE",
"528 459 OFFCURVE",
"434 175 CURVE SMOOTH",
"407 97 OFFCURVE",
"348 36 OFFCURVE",
"233 36 CURVE SMOOTH",
"143 36 OFFCURVE",
"91 95 OFFCURVE",
"91 172 CURVE SMOOTH",
"91 242 OFFCURVE",
"196 771 OFFCURVE",
"241 944 CURVE",
"241 955 OFFCURVE",
"234 961 OFFCURVE",
"220 961 CURVE SMOOTH",
"212 961 OFFCURVE",
"201 956 OFFCURVE",
"198 946 CURVE",
"137 725 OFFCURVE",
"49 218 OFFCURVE",
"49 182 CURVE SMOOTH",
"49 77 OFFCURVE",
"123 -10 OFFCURVE",
"232 -10 CURVE SMOOTH"
);
}
);
width = 639;
}
);
leftKerningGroup = U;
leftMetricsKey = U;
note = U;
rightKerningGroup = U;
rightMetricsKey = U;
unicode = 0055;
},
{
color = 4;
glyphname = V;
lastChange = "2016-08-03 07:01:04 +0000";
layers = (
{
anchors = (
{
name = bottom;
position = "{224, 0}";
},
{
name = top;
position = "{320, 960}";
}
);
layerId = "79E705E9-1ED7-4818-9510-7FD15DA5A41F";
paths = (
{
closed = 1;
nodes = (
"230 -23 OFFCURVE",
"249 0 CURVE SMOOTH",
"306 74 OFFCURVE",
"359 159 OFFCURVE",
"411 254 CURVE SMOOTH",
"561 535 OFFCURVE",
"615 732 OFFCURVE",
"574 983 CURVE",
"572 994 OFFCURVE",
"565 1000 OFFCURVE",
"554 1000 CURVE SMOOTH",
"542 1000 OFFCURVE",
"528 986 OFFCURVE",
"528 969 CURVE",
"551 765 OFFCURVE",
"554 727 OFFCURVE",
"493 549 CURVE SMOOTH",
"447 413 OFFCURVE",
"366 253 OFFCURVE",
"250 70 CURVE",
"224 293 OFFCURVE",
"147 721 OFFCURVE",
"125 948 CURVE",
"122 959 OFFCURVE",
"116 965 OFFCURVE",
"106 965 CURVE SMOOTH",
"97 965 OFFCURVE",
"83 954 OFFCURVE",
"79 941 CURVE",
"108 716 OFFCURVE",
"174 305 OFFCURVE",
"195 130 CURVE SMOOTH",
"200 79 OFFCURVE",
"206 35 OFFCURVE",
"211 -2 CURVE",
"217 -19 OFFCURVE"
);
}
);
width = 640;
}
);
leftKerningGroup = V;
note = V;
rightKerningGroup = V;
unicode = 0056;
},
{
color = 4;
glyphname = W;
lastChange = "2016-08-03 07:01:11 +0000";
layers = (
{
anchors = (
{
name = bottom;
position = "{439, 0}";
},
{
name = top;
position = "{471, 960}";
}
);
background = {
paths = (
{
closed = 1;
nodes = (
"259 -15 OFFCURVE",
"387 345 OFFCURVE",
"444 544 CURVE",
"444 351 OFFCURVE",
"458 201 OFFCURVE",
"488 92 CURVE SMOOTH",
"507 24 OFFCURVE",
"524 -10 OFFCURVE",
"539 -10 CURVE SMOOTH",
"554 -10 OFFCURVE",
"572 8 OFFCURVE",
"594 43 CURVE SMOOTH",
"756 308 OFFCURVE",
"838 560 OFFCURVE",
"838 800 CURVE SMOOTH",
"838 884 OFFCURVE",
"789 1031 OFFCURVE",
"715 1031 CURVE SMOOTH",
"656 1031 OFFCURVE",
"622 1007 OFFCURVE",
"609 962 CURVE SMOOTH",
"601 935 OFFCURVE",
"590 903 OFFCURVE",
"615 903 CURVE SMOOTH",
"628 903 OFFCURVE",
"637 910 OFFCURVE",
"644 923 CURVE SMOOTH",
"659 969 LINE",
"748 1063 OFFCURVE",
"790 902 OFFCURVE",
"790 771 CURVE SMOOTH",
"790 553 OFFCURVE",
"698 327 OFFCURVE",
"549 58 CURVE",
"478 216 OFFCURVE",
"492 565 OFFCURVE",
"488 703 CURVE",
"508 791 OFFCURVE",
"529 953 OFFCURVE",
"483 953 CURVE SMOOTH",
"467 953 OFFCURVE",
"457 942 OFFCURVE",
"450 920 CURVE SMOOTH",
"436 867 OFFCURVE",
"440 765 OFFCURVE",
"442 704 CURVE",
"348 350 OFFCURVE",
"325 320 OFFCURVE",
"216 70 CURVE",
"212 147 OFFCURVE",
"201 257 OFFCURVE",
"183 400 CURVE SMOOTH",
"151 653 OFFCURVE",
"141 831 OFFCURVE",
"141 879 CURVE",
"146 941 LINE",
"146 961 OFFCURVE",
"132 964 OFFCURVE",
"110 950 CURVE",
"102 944 OFFCURVE",
"98 931 OFFCURVE",
"98 910 CURVE SMOOTH",
"98 730 OFFCURVE",
"121 562 OFFCURVE",
"133 468 CURVE SMOOTH",
"145 375 OFFCURVE",
"167 205 OFFCURVE",
"167 17 CURVE SMOOTH",
"167 -3 OFFCURVE",
"177 -15 OFFCURVE",
"188 -15 CURVE SMOOTH"
);
}
);
};
layerId = "79E705E9-1ED7-4818-9510-7FD15DA5A41F";
paths = (
{
closed = 1;
nodes = (
"259 -15 OFFCURVE",
"387 345 OFFCURVE",
"444 544 CURVE",
"444 351 OFFCURVE",
"458 201 OFFCURVE",
"488 92 CURVE SMOOTH",
"507 24 OFFCURVE",
"524 -10 OFFCURVE",
"539 -10 CURVE SMOOTH",
"554 -10 OFFCURVE",
"572 8 OFFCURVE",
"594 43 CURVE SMOOTH",
"759 333 OFFCURVE",
"843 608 OFFCURVE",
"843 870 CURVE SMOOTH",
"843 929 OFFCURVE",
"799 1031 OFFCURVE",
"732 1031 CURVE SMOOTH",
"673 1031 OFFCURVE",
"639 1007 OFFCURVE",
"626 962 CURVE SMOOTH",
"618 935 OFFCURVE",
"607 903 OFFCURVE",
"632 903 CURVE SMOOTH",
"645 903 OFFCURVE",
"654 910 OFFCURVE",
"661 923 CURVE SMOOTH",
"676 969 LINE",
"695 982 OFFCURVE",
"712 987 OFFCURVE",
"727 987 CURVE SMOOTH",
"773 987 OFFCURVE",
"795 908 OFFCURVE",
"795 841 CURVE SMOOTH",
"795 602 OFFCURVE",
"701 353 OFFCURVE",
"549 58 CURVE",
"478 216 OFFCURVE",
"492 565 OFFCURVE",
"488 703 CURVE",
"508 791 OFFCURVE",
"529 953 OFFCURVE",
"483 953 CURVE SMOOTH",
"467 953 OFFCURVE",
"457 942 OFFCURVE",
"450 920 CURVE SMOOTH",
"436 867 OFFCURVE",
"440 765 OFFCURVE",
"442 704 CURVE",
"348 350 OFFCURVE",
"325 320 OFFCURVE",
"216 70 CURVE",
"212 147 OFFCURVE",
"201 257 OFFCURVE",
"183 400 CURVE SMOOTH",
"151 653 OFFCURVE",
"141 831 OFFCURVE",
"141 879 CURVE",
"146 941 LINE",
"146 961 OFFCURVE",
"132 964 OFFCURVE",
"110 950 CURVE",
"102 944 OFFCURVE",
"98 931 OFFCURVE",
"98 910 CURVE SMOOTH",
"98 730 OFFCURVE",
"121 562 OFFCURVE",
"133 468 CURVE SMOOTH",
"145 375 OFFCURVE",
"167 205 OFFCURVE",
"167 17 CURVE SMOOTH",
"167 -3 OFFCURVE",
"177 -15 OFFCURVE",
"188 -15 CURVE SMOOTH"
);
}
);
width = 834;
}
);
leftKerningGroup = V;
note = W;
rightKerningGroup = V;
unicode = 0057;
},
{
color = 4;
glyphname = X;
lastChange = "2016-08-03 07:01:15 +0000";
layers = (
{
anchors = (
{
name = bottom;
position = "{230, 0}";
},
{
name = top;
position = "{404, 960}";
}
);
layerId = "79E705E9-1ED7-4818-9510-7FD15DA5A41F";
paths = (
{
closed = 1;
nodes = (
"513 -28 OFFCURVE",
"529 -12 OFFCURVE",
"529 7 CURVE",
"486 91 OFFCURVE",
"430 260 OFFCURVE",
"360 515 CURVE",
"565 804 OFFCURVE",
"531 750 OFFCURVE",
"677 928 CURVE SMOOTH",
"686 939 OFFCURVE",
"690 947 OFFCURVE",
"690 952 CURVE SMOOTH",
"690 986 OFFCURVE",
"649 967 OFFCURVE",
"611 925 CURVE SMOOTH",
"538 843 OFFCURVE",
"448 728 OFFCURVE",
"343 578 CURVE",
"327 638 OFFCURVE",
"263 883 OFFCURVE",
"243 941 CURVE SMOOTH",
"235 963 OFFCURVE",
"230 975 OFFCURVE",
"227 977 CURVE",
"206 982 OFFCURVE",
"179 964 OFFCURVE",
"179 935 CURVE SMOOTH",
"179 924 OFFCURVE",
"184 918 OFFCURVE",
"194 918 CURVE",
"192 926 OFFCURVE",
"303 536 OFFCURVE",
"306 525 CURVE",
"276 482 OFFCURVE",
"247 439 OFFCURVE",
"218 396 CURVE SMOOTH",
"119 252 OFFCURVE",
"-3 81 OFFCURVE",
"-56 11 CURVE",
"-56 -5 OFFCURVE",
"-45 -13 OFFCURVE",
"-24 -13 CURVE SMOOTH",
"10 -13 OFFCURVE",
"184 260 OFFCURVE",
"323 462 CURVE",
"423 120 OFFCURVE",
"432 173 OFFCURVE",
"481 -22 CURVE",
"484 -26 OFFCURVE",
"491 -28 OFFCURVE",
"498 -28 CURVE SMOOTH"
);
}
);
width = 628;
}
);
leftKerningGroup = X;
note = X;
rightKerningGroup = X;
unicode = 0058;
},
{
color = 4;
glyphname = Y;
lastChange = "2016-08-03 07:01:24 +0000";
layers = (
{
anchors = (
{
name = bottom;
position = "{121, 0}";
},
{
name = top;
position = "{280, 960}";
},
{
name = topleft;
position = "{71, 960}";
}
);
layerId = "79E705E9-1ED7-4818-9510-7FD15DA5A41F";
paths = (
{
closed = 1;
nodes = (
"146 -6 OFFCURVE",
"157 0 OFFCURVE",
"161 13 CURVE SMOOTH",
"226 251 OFFCURVE",
"180 111 OFFCURVE",
"239 340 CURVE",
"250 363 OFFCURVE",
"269 407 OFFCURVE",
"293 472 CURVE SMOOTH",
"318 537 OFFCURVE",
"338 589 OFFCURVE",
"353 628 CURVE SMOOTH",
"430 824 OFFCURVE",
"527 928 OFFCURVE",
"527 950 CURVE SMOOTH",
"527 961 OFFCURVE",
"520 967 OFFCURVE",
"507 967 CURVE SMOOTH",
"500 967 OFFCURVE",
"494 964 OFFCURVE",
"490 959 CURVE SMOOTH",
"406 857 OFFCURVE",
"350 739 OFFCURVE",
"282 563 CURVE SMOOTH",
"248 474 OFFCURVE",
"224 413 OFFCURVE",
"208 380 CURVE",
"170 475 OFFCURVE",
"137 629 OFFCURVE",
"108 842 CURVE SMOOTH",
"96 931 LINE",
"109 953 OFFCURVE",
"94 968 OFFCURVE",
"75 968 CURVE SMOOTH",
"60 968 OFFCURVE",
"49 953 OFFCURVE",
"49 936 CURVE",
"55 890 OFFCURVE",
"64 834 OFFCURVE",
"75 769 CURVE SMOOTH",
"120 513 OFFCURVE",
"157 366 OFFCURVE",
"186 329 CURVE",
"165 201 OFFCURVE",
"167 172 OFFCURVE",
"125 29 CURVE SMOOTH",
"121 12 OFFCURVE",
"125 -2 OFFCURVE",
"135 -4 CURVE SMOOTH"
);
}
);
width = 478;
}
);
leftKerningGroup = Y;
leftMetricsKey = Y;
note = Y;
rightKerningGroup = Y;
rightMetricsKey = Y;
unicode = 0059;
},
{
color = 4;
glyphname = Z;
lastChange = "2016-08-03 07:01:33 +0000";
layers = (
{
anchors = (
{
name = bottom;
position = "{286, 0}";
},
{
name = top;
position = "{373, 958}";
}
);
layerId = "79E705E9-1ED7-4818-9510-7FD15DA5A41F";
paths = (
{
closed = 1;
nodes = (
"662 -248 OFFCURVE",
"771 -200 OFFCURVE",
"841 -140 CURVE SMOOTH",
"857 -126 OFFCURVE",
"865 -114 OFFCURVE",
"865 -103 CURVE SMOOTH",
"865 -92 OFFCURVE",
"860 -87 OFFCURVE",
"851 -87 CURVE SMOOTH",
"831 -87 OFFCURVE",
"796 -120 OFFCURVE",
"779 -134 CURVE SMOOTH",
"735 -169 OFFCURVE",
"668 -200 OFFCURVE",
"586 -200 CURVE SMOOTH",
"465 -200 OFFCURVE",
"346 -132 OFFCURVE",
"225 -12 CURVE SMOOTH",
"164 47 OFFCURVE",
"118 77 OFFCURVE",
"85 77 CURVE SMOOTH",
"66 77 OFFCURVE",
"48 72 OFFCURVE",
"29 59 CURVE",
"319 443 OFFCURVE",
"634 926 OFFCURVE",
"634 953 CURVE SMOOTH",
"634 966 OFFCURVE",
"621 973 OFFCURVE",
"593 973 CURVE SMOOTH",
"566 973 OFFCURVE",
"530 971 OFFCURVE",
"484 966 CURVE SMOOTH",
"402 955 OFFCURVE",
"398 957 OFFCURVE",
"122 964 CURVE",
"104 964 OFFCURVE",
"92 957 OFFCURVE",
"92 938 CURVE SMOOTH",
"92 929 OFFCURVE",
"97 922 OFFCURVE",
"106 919 CURVE",
"184 907 OFFCURVE",
"422 915 OFFCURVE",
"568 925 CURVE",
"491 788 OFFCURVE",
"385 627 OFFCURVE",
"253 442 CURVE SMOOTH",
"199 368 OFFCURVE",
"147 296 OFFCURVE",
"97 228 CURVE SMOOTH",
"33 141 OFFCURVE",
"-49 31 OFFCURVE",
"-49 14 CURVE SMOOTH",
"-49 2 OFFCURVE",
"-43 -4 OFFCURVE",
"-31 -4 CURVE SMOOTH",
"-5 -4 OFFCURVE",
"25 33 OFFCURVE",
"59 33 CURVE SMOOTH",
"115 33 OFFCURVE",
"158 -15 OFFCURVE",
"193 -53 CURVE SMOOTH",
"261 -129 OFFCURVE",
"436 -248 OFFCURVE",
"566 -248 CURVE SMOOTH"
);
}
);
width = 572;
}
);
leftKerningGroup = Z;
leftMetricsKey = Z;
note = Z;
rightKerningGroup = Z;
rightMetricsKey = Z;
unicode = 005A;
},
{
color = 4;
glyphname = B.alt;
lastChange = "2016-08-03 07:01:41 +0000";
layers = (
{
layerId = "79E705E9-1ED7-4818-9510-7FD15DA5A41F";
paths = (
{
closed = 1;
nodes = (
"33 -60 OFFCURVE",
"46 -48 OFFCURVE",
"50 -31 CURVE",
"50 -24 OFFCURVE",
"51 -16 OFFCURVE",
"53 -7 CURVE",
"74 -8 LINE",
"323 -8 OFFCURVE",
"479 88 OFFCURVE",
"479 278 CURVE SMOOTH",
"479 377 OFFCURVE",
"379 489 OFFCURVE",
"266 496 CURVE",
"368 510 OFFCURVE",
"465 619 OFFCURVE",
"465 730 CURVE SMOOTH",
"465 865 OFFCURVE",
"383 952 OFFCURVE",
"260 956 CURVE",
"255 961 OFFCURVE",
"250 964 OFFCURVE",
"245 964 CURVE SMOOTH",
"238 964 OFFCURVE",
"233 961 OFFCURVE",
"229 954 CURVE",
"179 944 OFFCURVE",
"133 919 OFFCURVE",
"133 888 CURVE SMOOTH",
"133 873 OFFCURVE",
"144 868 OFFCURVE",
"150 868 CURVE SMOOTH",
"161 868 OFFCURVE",
"170 874 OFFCURVE",
"176 886 CURVE",
"186 895 OFFCURVE",
"197 902 OFFCURVE",
"209 907 CURVE",
"191 850 OFFCURVE",
"176 785 OFFCURVE",
"165 712 CURVE SMOOTH",
"154 640 OFFCURVE",
"141 572 OFFCURVE",
"126 510 CURVE",
"90 510 OFFCURVE",
"72 502 OFFCURVE",
"72 486 CURVE SMOOTH",
"72 475 OFFCURVE",
"77 469 OFFCURVE",
"87 469 CURVE",
"117 468 LINE",
"105 415 OFFCURVE",
"92 362 OFFCURVE",
"80 310 CURVE SMOOTH",
"67 258 OFFCURVE",
"56 206 OFFCURVE",
"46 155 CURVE",
"20 46 LINE",
"-91 70 OFFCURVE",
"-180 138 OFFCURVE",
"-180 229 CURVE SMOOTH",
"-180 237 OFFCURVE",
"-179 246 OFFCURVE",
"-176 254 CURVE",
"-173 262 OFFCURVE",
"-172 271 OFFCURVE",
"-172 280 CURVE SMOOTH",
"-172 292 OFFCURVE",
"-178 298 OFFCURVE",
"-190 298 CURVE SMOOTH",
"-196 298 OFFCURVE",
"-201 295 OFFCURVE",
"-206 290 CURVE SMOOTH",
"-219 276 OFFCURVE",
"-226 253 OFFCURVE",
"-226 219 CURVE SMOOTH",
"-226 108 OFFCURVE",
"-110 28 OFFCURVE",
"10 0 CURVE",
"6 -16 OFFCURVE",
"4 -30 OFFCURVE",
"3 -40 CURVE",
"4 -53 OFFCURVE",
"11 -60 OFFCURVE",
"22 -60 CURVE SMOOTH"
);
},
{
closed = 1;
nodes = (
"84 37 OFFCURVE",
"71 38 OFFCURVE",
"62 39 CURVE",
"64 50 OFFCURVE",
"67 62 OFFCURVE",
"70 73 CURVE SMOOTH",
"78 106 LINE SMOOTH",
"81 117 OFFCURVE",
"83 126 OFFCURVE",
"85 135 CURVE SMOOTH",
"88 144 OFFCURVE",
"93 167 OFFCURVE",
"101 204 CURVE SMOOTH",
"109 242 OFFCURVE",
"128 329 OFFCURVE",
"160 466 CURVE",
"181 464 OFFCURVE",
"199 464 OFFCURVE",
"213 464 CURVE SMOOTH",
"324 464 OFFCURVE",
"433 372 OFFCURVE",
"433 272 CURVE SMOOTH",
"433 129 OFFCURVE",
"314 37 OFFCURVE",
"101 37 CURVE SMOOTH"
);
},
{
closed = 1;
nodes = (
"177 542 OFFCURVE",
"188 604 OFFCURVE",
"203 695 CURVE SMOOTH",
"218 787 OFFCURVE",
"234 859 OFFCURVE",
"250 913 CURVE",
"348 911 OFFCURVE",
"416 849 OFFCURVE",
"416 729 CURVE SMOOTH",
"416 610 OFFCURVE",
"307 521 OFFCURVE",
"170 511 CURVE"
);
}
);
width = 514;
}
);
leftKerningGroup = B;
note = B.alt;
rightKerningGroup = D;
},
{
color = 4;
glyphname = D.alt;
lastChange = "2016-08-03 07:01:46 +0000";
layers = (
{
layerId = "79E705E9-1ED7-4818-9510-7FD15DA5A41F";
paths = (
{
closed = 1;
nodes = (
"46 -55 OFFCURVE",
"51 -54 OFFCURVE",
"54 -51 CURVE SMOOTH",
"63 -45 OFFCURVE",
"67 -32 OFFCURVE",
"70 -10 CURVE",
"76 -10 LINE SMOOTH",
"142 -10 OFFCURVE",
"202 -2 OFFCURVE",
"256 13 CURVE SMOOTH",
"469 73 OFFCURVE",
"653 253 OFFCURVE",
"653 628 CURVE SMOOTH",
"653 790 OFFCURVE",
"605 895 OFFCURVE",
"511 942 CURVE SMOOTH",
"477 958 OFFCURVE",
"441 967 OFFCURVE",
"402 967 CURVE SMOOTH",
"363 967 OFFCURVE",
"328 963 OFFCURVE",
"297 956 CURVE",
"294 959 OFFCURVE",
"290 961 OFFCURVE",
"284 961 CURVE SMOOTH",
"277 961 OFFCURVE",
"271 957 OFFCURVE",
"264 948 CURVE",
"216 935 OFFCURVE",
"167 913 OFFCURVE",
"119 883 CURVE SMOOTH",
"111 877 OFFCURVE",
"107 870 OFFCURVE",
"107 860 CURVE SMOOTH",
"107 848 OFFCURVE",
"113 842 OFFCURVE",
"124 842 CURVE SMOOTH",
"127 842 OFFCURVE",
"130 843 OFFCURVE",
"135 844 CURVE",
"167 865 OFFCURVE",
"205 882 OFFCURVE",
"245 896 CURVE",
"175 688 OFFCURVE",
"103 400 OFFCURVE",
"29 35 CURVE",
"-38 41 OFFCURVE",
"-88 64 OFFCURVE",
"-124 104 CURVE SMOOTH",
"-157 141 OFFCURVE",
"-178 191 OFFCURVE",
"-201 250 CURVE SMOOTH",
"-205 258 OFFCURVE",
"-212 262 OFFCURVE",
"-223 262 CURVE SMOOTH",
"-232 262 OFFCURVE",
"-237 251 OFFCURVE",
"-239 229 CURVE",
"-225 188 OFFCURVE",
"-209 154 OFFCURVE",
"-190 125 CURVE SMOOTH",
"-141 48 OFFCURVE",
"-69 4 OFFCURVE",
"23 -7 CURVE",
"21 -19 OFFCURVE",
"21 -29 OFFCURVE",
"21 -35 CURVE SMOOTH",
"21 -48 OFFCURVE",
"27 -55 OFFCURVE",
"40 -55 CURVE SMOOTH"
);
},
{
closed = 1;
nodes = (
"153 408 OFFCURVE",
"226 700 OFFCURVE",
"293 909 CURVE",
"318 916 OFFCURVE",
"347 919 OFFCURVE",
"378 919 CURVE SMOOTH",
"530 919 OFFCURVE",
"606 818 OFFCURVE",
"606 616 CURVE SMOOTH",
"606 509 OFFCURVE",
"587 412 OFFCURVE",
"548 323 CURVE SMOOTH",
"471 147 OFFCURVE",
"310 33 OFFCURVE",
"77 33 CURVE SMOOTH",
"74 33 LINE"
);
}
);
width = 669;
}
);
leftKerningGroup = D;
note = D.alt;
rightKerningGroup = D;
},
{
color = 4;
glyphname = R.fina;
lastChange = "2016-08-03 07:01:50 +0000";
layers = (
{
layerId = "79E705E9-1ED7-4818-9510-7FD15DA5A41F";
paths = (
{
closed = 1;
nodes = (
"884 -294 OFFCURVE",
"986 -229 OFFCURVE",
"1085 -127 CURVE",
"1106 -106 OFFCURVE",
"1077 -72 OFFCURVE",
"1063 -93 CURVE SMOOTH",
"969 -175 OFFCURVE",
"886 -249 OFFCURVE",
"736 -249 CURVE SMOOTH",
"416 -249 OFFCURVE",
"237 51 OFFCURVE",
"237 421 CURVE",
"420 421 OFFCURVE",
"527 551 OFFCURVE",
"527 724 CURVE SMOOTH",
"527 896 OFFCURVE",
"422 979 OFFCURVE",
"271 958 CURVE",
"281 979 OFFCURVE",
"274 991 OFFCURVE",
"267 991 CURVE SMOOTH",
"257 991 OFFCURVE",
"244 979 OFFCURVE",
"234 949 CURVE",
"170 933 OFFCURVE",
"123 900 OFFCURVE",
"123 863 CURVE SMOOTH",
"123 854 OFFCURVE",
"127 847 OFFCURVE",
"136 843 CURVE",
"167 840 OFFCURVE",
"166 878 OFFCURVE",
"215 894 CURVE",
"157 636 OFFCURVE",
"29 16 OFFCURVE",
"29 14 CURVE SMOOTH",
"29 3 OFFCURVE",
"37 -2 OFFCURVE",
"52 -2 CURVE SMOOTH",
"67 -2 OFFCURVE",
"76 4 OFFCURVE",
"80 15 CURVE",
"264 917 LINE",
"282 922 OFFCURVE",
"308 925 OFFCURVE",
"342 925 CURVE SMOOTH",
"428 925 OFFCURVE",
"486 838 OFFCURVE",
"486 729 CURVE SMOOTH",
"486 659 OFFCURVE",
"465 598 OFFCURVE",
"424 547 CURVE SMOOTH",
"384 499 OFFCURVE",
"325 468 OFFCURVE",
"275 468 CURVE SMOOTH",
"248 468 OFFCURVE",
"216 486 OFFCURVE",
"205 486 CURVE SMOOTH",
"194 486 OFFCURVE",
"188 476 OFFCURVE",
"188 456 CURVE SMOOTH",
"188 363 OFFCURVE",
"196 280 OFFCURVE",
"212 207 CURVE SMOOTH",
"280 -105 OFFCURVE",
"483 -294 OFFCURVE",
"722 -294 CURVE SMOOTH"
);
}
);
width = 507;
}
);
leftKerningGroup = D;
rightKerningGroup = R;
},
{
color = 4;
glyphname = W.fina;
lastChange = "2016-08-03 07:01:58 +0000";
layers = (
{
anchors = (
{
name = bottom;
position = "{439, 0}";
},
{
name = top;
position = "{471, 960}";
}
);
layerId = "79E705E9-1ED7-4818-9510-7FD15DA5A41F";
paths = (
{
closed = 1;
nodes = (
"259 -15 OFFCURVE",
"387 345 OFFCURVE",
"444 544 CURVE",
"444 351 OFFCURVE",
"458 201 OFFCURVE",
"488 92 CURVE SMOOTH",
"507 24 OFFCURVE",
"524 -10 OFFCURVE",
"539 -10 CURVE SMOOTH",
"554 -10 OFFCURVE",
"572 8 OFFCURVE",
"594 43 CURVE SMOOTH",
"756 308 OFFCURVE",
"838 560 OFFCURVE",
"838 800 CURVE SMOOTH",
"838 958 OFFCURVE",
"711 1235 OFFCURVE",
"519 1235 CURVE SMOOTH",
"460 1235 OFFCURVE",
"426 1211 OFFCURVE",
"413 1166 CURVE SMOOTH",
"405 1139 OFFCURVE",
"394 1107 OFFCURVE",
"419 1107 CURVE SMOOTH",
"432 1107 OFFCURVE",
"441 1114 OFFCURVE",
"448 1127 CURVE SMOOTH",
"463 1173 LINE",
"499 1198 OFFCURVE",
"551 1189 OFFCURVE",
"594 1167 CURVE SMOOTH",
"698 1112 OFFCURVE",
"790 939 OFFCURVE",
"790 771 CURVE SMOOTH",
"790 553 OFFCURVE",
"698 327 OFFCURVE",
"549 58 CURVE",
"478 216 OFFCURVE",
"492 565 OFFCURVE",
"488 703 CURVE",
"508 791 OFFCURVE",
"529 953 OFFCURVE",
"483 953 CURVE SMOOTH",
"467 953 OFFCURVE",
"457 942 OFFCURVE",
"450 920 CURVE SMOOTH",
"436 867 OFFCURVE",
"440 765 OFFCURVE",
"442 704 CURVE",
"348 350 OFFCURVE",
"325 320 OFFCURVE",
"216 70 CURVE",
"212 147 OFFCURVE",
"201 257 OFFCURVE",
"183 400 CURVE SMOOTH",
"151 653 OFFCURVE",
"141 831 OFFCURVE",
"141 879 CURVE",
"146 941 LINE",
"146 961 OFFCURVE",
"132 964 OFFCURVE",
"110 950 CURVE",
"102 944 OFFCURVE",
"98 931 OFFCURVE",
"98 910 CURVE SMOOTH",
"98 730 OFFCURVE",
"121 562 OFFCURVE",
"133 468 CURVE SMOOTH",
"145 375 OFFCURVE",
"167 205 OFFCURVE",
"167 17 CURVE SMOOTH",
"167 -3 OFFCURVE",
"177 -15 OFFCURVE",
"188 -15 CURVE SMOOTH"
);
}
);
width = 877;
}
);
leftKerningGroup = D;
rightKerningGroup = D;
},
{
color = 4;
glyphname = D.init;
lastChange = "2016-08-03 07:01:58 +0000";
layers = (
{
layerId = "79E705E9-1ED7-4818-9510-7FD15DA5A41F";
paths = (
{
closed = 1;
nodes = (
"59 -55 OFFCURVE",
"66 -41 OFFCURVE",
"70 -10 CURVE",
"141 -10 OFFCURVE",
"203 -3 OFFCURVE",
"264 13 CURVE SMOOTH",
"480 73 OFFCURVE",
"653 248 OFFCURVE",
"653 628 CURVE SMOOTH",
"653 855 OFFCURVE",
"552 967 OFFCURVE",
"402 967 CURVE SMOOTH",
"363 967 OFFCURVE",
"328 963 OFFCURVE",
"297 956 CURVE",
"304 975 OFFCURVE",
"301 987 OFFCURVE",
"294 987 CURVE SMOOTH",
"286 987 OFFCURVE",
"275 975 OFFCURVE",
"264 948 CURVE",
"216 935 OFFCURVE",
"167 913 OFFCURVE",
"119 883 CURVE SMOOTH",
"111 877 OFFCURVE",
"107 870 OFFCURVE",
"107 860 CURVE SMOOTH",
"107 848 OFFCURVE",
"113 842 OFFCURVE",
"124 842 CURVE SMOOTH",
"136 842 OFFCURVE",
"185 875 OFFCURVE",
"245 896 CURVE",
"175 702 OFFCURVE",
"57 217 OFFCURVE",
"29 35 CURVE",
"-111 48 OFFCURVE",
"-152 124 OFFCURVE",
"-201 250 CURVE SMOOTH",
"-205 258 OFFCURVE",
"-212 262 OFFCURVE",
"-223 262 CURVE SMOOTH",
"-232 262 OFFCURVE",
"-247 251 OFFCURVE",
"-239 229 CURVE",
"-200 116 OFFCURVE",
"-130 11 OFFCURVE",
"23 -7 CURVE",
"19 -31 OFFCURVE",
"17 -55 OFFCURVE",
"40 -55 CURVE SMOOTH"
);
},
{
closed = 1;
nodes = (
"132 339 OFFCURVE",
"204 657 OFFCURVE",
"293 909 CURVE",
"318 916 OFFCURVE",
"347 919 OFFCURVE",
"378 919 CURVE SMOOTH",
"530 919 OFFCURVE",
"606 818 OFFCURVE",
"606 616 CURVE SMOOTH",
"606 510 OFFCURVE",
"586 413 OFFCURVE",
"546 324 CURVE SMOOTH",
"461 137 OFFCURVE",
"293 33 OFFCURVE",
"74 33 CURVE"
);
}
);
width = 671;
}
);
leftKerningGroup = D;
rightKerningGroup = D;
rightMetricsKey = D;
},
{
color = 4;
glyphname = Eth.init;
lastChange = "2016-08-03 07:01:58 +0000";
layers = (
{
layerId = "79E705E9-1ED7-4818-9510-7FD15DA5A41F";
paths = (
{
closed = 1;
nodes = (
"46 -55 OFFCURVE",
"51 -54 OFFCURVE",
"54 -51 CURVE SMOOTH",
"63 -45 OFFCURVE",
"67 -32 OFFCURVE",
"70 -10 CURVE",
"76 -10 LINE SMOOTH",
"146 -10 OFFCURVE",
"208 -2 OFFCURVE",
"264 13 CURVE SMOOTH",
"480 73 OFFCURVE",
"653 248 OFFCURVE",
"653 628 CURVE SMOOTH",
"653 790 OFFCURVE",
"605 895 OFFCURVE",
"511 942 CURVE SMOOTH",
"477 958 OFFCURVE",
"441 967 OFFCURVE",
"402 967 CURVE SMOOTH",
"363 967 OFFCURVE",
"328 963 OFFCURVE",
"297 956 CURVE",
"294 959 OFFCURVE",
"290 961 OFFCURVE",
"284 961 CURVE SMOOTH",
"277 961 OFFCURVE",
"271 957 OFFCURVE",
"264 948 CURVE",
"216 935 OFFCURVE",
"167 913 OFFCURVE",
"119 883 CURVE SMOOTH",
"111 877 OFFCURVE",
"107 870 OFFCURVE",
"107 860 CURVE SMOOTH",
"107 848 OFFCURVE",
"113 842 OFFCURVE",
"124 842 CURVE SMOOTH",
"127 842 OFFCURVE",
"130 843 OFFCURVE",
"135 844 CURVE",
"167 865 OFFCURVE",
"205 882 OFFCURVE",
"245 896 CURVE",
"208 793 OFFCURVE",
"172 669 OFFCURVE",
"137 526 CURVE",
"122 524 OFFCURVE",
"105 522 OFFCURVE",
"87 521 CURVE SMOOTH",
"69 519 OFFCURVE",
"47 518 OFFCURVE",
"22 518 CURVE SMOOTH",
"-4 518 OFFCURVE",
"-18 518 OFFCURVE",
"-21 517 CURVE",
"-24 519 OFFCURVE",
"-28 520 OFFCURVE",
"-34 520 CURVE SMOOTH",
"-46 520 OFFCURVE",
"-60 507 OFFCURVE",
"-60 495 CURVE SMOOTH",
"-60 489 OFFCURVE",
"-59 484 OFFCURVE",
"-55 480 CURVE",
"-56 479 OFFCURVE",
"-54 477 OFFCURVE",
"-50 476 CURVE",
"-43 473 OFFCURVE",
"-32 471 OFFCURVE",
"-20 470 CURVE SMOOTH",
"-14 470 OFFCURVE",
"-3 469 OFFCURVE",
"13 469 CURVE SMOOTH",
"28 469 OFFCURVE",
"55 472 OFFCURVE",
"92 476 CURVE SMOOTH",
"126 479 LINE",
"89 326 OFFCURVE",
"37 88 OFFCURVE",
"29 35 CURVE",
"-38 41 OFFCURVE",
"-88 64 OFFCURVE",
"-124 104 CURVE SMOOTH",
"-157 141 OFFCURVE",
"-178 191 OFFCURVE",
"-201 250 CURVE SMOOTH",
"-205 258 OFFCURVE",
"-212 262 OFFCURVE",
"-223 262 CURVE SMOOTH",
"-232 262 OFFCURVE",
"-237 251 OFFCURVE",
"-239 229 CURVE",
"-225 188 OFFCURVE",
"-209 154 OFFCURVE",
"-190 125 CURVE SMOOTH",
"-141 48 OFFCURVE",
"-69 4 OFFCURVE",
"23 -7 CURVE",
"21 -19 OFFCURVE",
"21 -29 OFFCURVE",
"21 -35 CURVE SMOOTH",
"21 -48 OFFCURVE",
"27 -55 OFFCURVE",
"40 -55 CURVE SMOOTH"
);
},
{
closed = 1;
nodes = (
"109 215 OFFCURVE",
"141 365 OFFCURVE",
"170 483 CURVE",
"261 491 OFFCURVE",
"352 495 OFFCURVE",
"444 495 CURVE",
"457 499 OFFCURVE",
"468 512 OFFCURVE",
"468 524 CURVE SMOOTH",
"468 532 OFFCURVE",
"462 538 OFFCURVE",
"451 541 CURVE",
"358 541 OFFCURVE",
"268 537 OFFCURVE",
"181 530 CURVE",
"216 670 OFFCURVE",
"253 796 OFFCURVE",
"293 909 CURVE",
"318 916 OFFCURVE",
"347 919 OFFCURVE",
"378 919 CURVE SMOOTH",
"530 919 OFFCURVE",
"606 818 OFFCURVE",
"606 616 CURVE SMOOTH",
"606 510 OFFCURVE",
"586 413 OFFCURVE",
"546 324 CURVE SMOOTH",
"466 147 OFFCURVE",
"304 33 OFFCURVE",
"77 33 CURVE SMOOTH",
"74 33 LINE"
);
}
);
width = 711;
}
);
leftKerningGroup = D;
rightKerningGroup = D;
},
{
color = 4;
glyphname = H.init;
lastChange = "2016-08-03 07:02:05 +0000";
layers = (
{
anchors = (
{
name = bottom;
position = "{300, 0}";
},
{
name = center;
position = "{300, 480}";
},
{
name = top;
position = "{300, 960}";
},
{
name = topleft;
position = "{20, 960}";
}
);
layerId = "79E705E9-1ED7-4818-9510-7FD15DA5A41F";
paths = (
{
closed = 1;
nodes = (
"125 -34 OFFCURVE",
"134 -27 OFFCURVE",
"141 -14 CURVE",
"183 155 OFFCURVE",
"228 296 OFFCURVE",
"269 464 CURVE",
"372 492 OFFCURVE",
"501 509 OFFCURVE",
"656 515 CURVE",
"642 427 LINE SMOOTH",
"631 366 OFFCURVE",
"583 148 OFFCURVE",
"578 10 CURVE",
"579 -4 OFFCURVE",
"584 -11 OFFCURVE",
"595 -11 CURVE SMOOTH",
"607 -11 OFFCURVE",
"622 1 OFFCURVE",
"624 17 CURVE",
"630 183 OFFCURVE",
"682 372 OFFCURVE",
"701 517 CURVE",
"754 511 OFFCURVE",
"731 512 OFFCURVE",
"813 516 CURVE",
"827 520 OFFCURVE",
"837 533 OFFCURVE",
"837 544 CURVE SMOOTH",
"837 553 OFFCURVE",
"832 559 OFFCURVE",
"820 562 CURVE",
"708 562 LINE",
"720 656 OFFCURVE",
"770 948 OFFCURVE",
"771 961 CURVE",
"768 972 OFFCURVE",
"762 978 OFFCURVE",
"754 978 CURVE SMOOTH",
"742 978 OFFCURVE",
"729 967 OFFCURVE",
"725 954 CURVE",
"722 929 OFFCURVE",
"691 777 OFFCURVE",
"662 561 CURVE",
"508 554 OFFCURVE",
"381 538 OFFCURVE",
"281 512 CURVE",
"313 711 OFFCURVE",
"333 858 OFFCURVE",
"341 951 CURVE",
"342 963 OFFCURVE",
"338 968 OFFCURVE",
"324 968 CURVE SMOOTH",
"307 968 OFFCURVE",
"297 960 OFFCURVE",
"295 944 CURVE SMOOTH",
"286 877 OFFCURVE",
"265 636 OFFCURVE",
"232 499 CURVE",
"215 493 OFFCURVE",
"108 456 OFFCURVE",
"45 419 CURVE SMOOTH",
"-34 372 OFFCURVE",
"-73 329 OFFCURVE",
"-73 289 CURVE SMOOTH",
"-73 270 OFFCURVE",
"-66 260 OFFCURVE",
"-52 260 CURVE SMOOTH",
"-30 260 OFFCURVE",
"-28 277 OFFCURVE",
"-28 299 CURVE SMOOTH",
"-28 335 OFFCURVE",
"115 416 OFFCURVE",
"220 450 CURVE",
"183 304 OFFCURVE",
"133 138 OFFCURVE",
"96 -14 CURVE",
"97 -27 OFFCURVE",
"103 -34 OFFCURVE",
"113 -34 CURVE SMOOTH"
);
}
);
width = 837;
}
);
rightKerningGroup = H;
rightMetricsKey = H;
},
{
color = 4;
glyphname = a;
lastChange = "2016-08-03 07:02:31 +0000";
layers = (
{
anchors = (
{
name = bottom;
position = "{170, 0}";
},
{
name = ogonek;
position = "{404, 5}";
},
{
name = top;
position = "{313, 504}";
}
);
layerId = "79E705E9-1ED7-4818-9510-7FD15DA5A41F";
paths = (
{
closed = 1;
nodes = (
"371 -2 OFFCURVE",
"380 11 OFFCURVE",
"380 24 CURVE SMOOTH",
"380 38 OFFCURVE",
"364 49 OFFCURVE",
"356 54 CURVE SMOOTH",
"353 56 OFFCURVE",
"349 58 OFFCURVE",
"346 60 CURVE",
"346 154 OFFCURVE",
"374 314 OFFCURVE",
"390 371 CURVE SMOOTH",
"398 399 OFFCURVE",
"402 414 OFFCURVE",
"402 415 CURVE SMOOTH",
"402 419 LINE SMOOTH",
"402 434 OFFCURVE",
"394 441 OFFCURVE",
"379 441 CURVE SMOOTH",
"375 441 OFFCURVE",
"371 440 OFFCURVE",
"368 438 CURVE",
"368 447 OFFCURVE",
"367 456 OFFCURVE",
"365 464 CURVE SMOOTH",
"361 491 OFFCURVE",
"344 504 OFFCURVE",
"313 504 CURVE SMOOTH",
"283 504 OFFCURVE",
"244 479 OFFCURVE",
"195 428 CURVE SMOOTH",
"99 327 OFFCURVE",
"16 167 OFFCURVE",
"16 72 CURVE SMOOTH",
"16 24 OFFCURVE",
"35 0 OFFCURVE",
"73 0 CURVE SMOOTH",
"93 0 OFFCURVE",
"111 6 OFFCURVE",
"128 19 CURVE SMOOTH",
"161 43 OFFCURVE",
"271 169 OFFCURVE",
"326 285 CURVE",
"304 186 OFFCURVE",
"293 116 OFFCURVE",
"293 75 CURVE SMOOTH",
"293 38 OFFCURVE",
"324 -2 OFFCURVE",
"355 -2 CURVE SMOOTH"
);
},
{
closed = 1;
nodes = (
"71 52 OFFCURVE",
"66 58 OFFCURVE",
"66 70 CURVE SMOOTH",
"66 109 OFFCURVE",
"78 155 OFFCURVE",
"103 207 CURVE SMOOTH",
"151 312 OFFCURVE",
"236 413 OFFCURVE",
"287 440 CURVE SMOOTH",
"298 446 OFFCURVE",
"307 449 OFFCURVE",
"313 449 CURVE SMOOTH",
"324 449 OFFCURVE",
"331 436 OFFCURVE",
"331 423 CURVE SMOOTH",
"331 397 OFFCURVE",
"325 384 OFFCURVE",
"280 300 CURVE SMOOTH",
"227 197 OFFCURVE",
"167 117 OFFCURVE",
"99 59 CURVE",
"94 54 OFFCURVE",
"88 52 OFFCURVE",
"81 52 CURVE SMOOTH"
);
}
);
width = 449;
}
);
leftKerningGroup = a;
leftMetricsKey = a;
note = a;
rightKerningGroup = a;
rightMetricsKey = a;
unicode = 0061;
},
{
color = 4;
glyphname = ae;
lastChange = "2016-08-03 07:02:35 +0000";
layers = (
{
anchors = (
{
name = bottom;
position = "{225, 0}";
},
{
name = top;
position = "{384, 505}";
}
);
layerId = "79E705E9-1ED7-4818-9510-7FD15DA5A41F";
paths = (
{
closed = 1;
nodes = (
"402 -10 OFFCURVE",
"493 36 OFFCURVE",
"493 64 CURVE SMOOTH",
"493 76 OFFCURVE",
"487 82 OFFCURVE",
"476 82 CURVE SMOOTH",
"454 82 OFFCURVE",
"407 36 OFFCURVE",
"355 36 CURVE SMOOTH",
"321 36 OFFCURVE",
"303 64 OFFCURVE",
"304 120 CURVE SMOOTH",
"306 197 LINE",
"406 238 OFFCURVE",
"534 301 OFFCURVE",
"534 427 CURVE SMOOTH",
"534 472 OFFCURVE",
"510 511 OFFCURVE",
"469 511 CURVE SMOOTH",
"435 511 OFFCURVE",
"400 493 OFFCURVE",
"366 458 CURVE",
"362 481 OFFCURVE",
"355 504 OFFCURVE",
"316 504 CURVE SMOOTH",
"284 504 OFFCURVE",
"244 479 OFFCURVE",
"195 428 CURVE SMOOTH",
"99 327 OFFCURVE",
"16 168 OFFCURVE",
"16 71 CURVE SMOOTH",
"16 25 OFFCURVE",
"33 0 OFFCURVE",
"79 0 CURVE SMOOTH",
"102 0 OFFCURVE",
"127 14 OFFCURVE",
"153 41 CURVE SMOOTH",
"188 78 OFFCURVE",
"223 120 OFFCURVE",
"257 167 CURVE",
"247 85 OFFCURVE",
"265 -10 OFFCURVE",
"356 -10 CURVE SMOOTH"
);
},
{
closed = 1;
nodes = (
"48 52 OFFCURVE",
"73 145 OFFCURVE",
"103 207 CURVE SMOOTH",
"169 351 OFFCURVE",
"277 449 OFFCURVE",
"313 449 CURVE SMOOTH",
"329 449 OFFCURVE",
"334 426 OFFCURVE",
"330 408 CURVE",
"251 221 OFFCURVE",
"132 52 OFFCURVE",
"81 52 CURVE SMOOTH"
);
},
{
closed = 1;
nodes = (
"319 274 OFFCURVE",
"334 316 OFFCURVE",
"359 366 CURVE",
"401 411 LINE",
"401 416 OFFCURVE",
"404 417 OFFCURVE",
"399 427 CURVE",
"420 452 OFFCURVE",
"439 464 OFFCURVE",
"457 464 CURVE SMOOTH",
"502 464 OFFCURVE",
"491 390 OFFCURVE",
"472 354 CURVE SMOOTH",
"437 294 OFFCURVE",
"369 270 OFFCURVE",
"314 240 CURVE"
);
}
);
width = 547;
}
);
leftKerningGroup = a;
leftMetricsKey = a;
note = ae;
rightKerningGroup = e;
unicode = 00E6;
},
{
color = 4;
glyphname = b;
lastChange = "2016-08-03 07:02:39 +0000";
layers = (
{
anchors = (
{
name = bottom;
position = "{165, -10}";
},
{
name = top;
position = "{233, 960}";
}
);
layerId = "79E705E9-1ED7-4818-9510-7FD15DA5A41F";
paths = (
{
closed = 1;
nodes = (
"208 -10 OFFCURVE",
"245 18 OFFCURVE",
"278 73 CURVE SMOOTH",
"331 160 OFFCURVE",
"363 313 OFFCURVE",
"363 409 CURVE SMOOTH",
"363 454 OFFCURVE",
"334 503 OFFCURVE",
"281 503 CURVE SMOOTH",
"229 503 OFFCURVE",
"189 453 OFFCURVE",
"148 379 CURVE",
"163 453 OFFCURVE",
"181 535 OFFCURVE",
"201 625 CURVE SMOOTH",
"221 716 OFFCURVE",
"240 818 OFFCURVE",
"257 931 CURVE",
"259 938 LINE",
"259 953 OFFCURVE",
"250 960 OFFCURVE",
"233 960 CURVE SMOOTH",
"225 960 OFFCURVE",
"218 955 OFFCURVE",
"213 944 CURVE",
"199 864 OFFCURVE",
"186 792 OFFCURVE",
"172 729 CURVE SMOOTH",
"159 667 OFFCURVE",
"150 623 OFFCURVE",
"146 598 CURVE SMOOTH",
"140 573 OFFCURVE",
"135 548 OFFCURVE",
"130 522 CURVE SMOOTH",
"121 470 OFFCURVE",
"110 409 OFFCURVE",
"98 335 CURVE SMOOTH",
"86 261 OFFCURVE",
"74 198 OFFCURVE",
"74 126 CURVE SMOOTH",
"74 54 OFFCURVE",
"104 -10 OFFCURVE",
"165 -10 CURVE SMOOTH"
);
},
{
closed = 1;
nodes = (
"138 41 OFFCURVE",
"125 69 OFFCURVE",
"125 126 CURVE SMOOTH",
"125 148 OFFCURVE",
"127 184 OFFCURVE",
"132 232 CURVE SMOOTH",
"142 329 OFFCURVE",
"232 454 OFFCURVE",
"275 454 CURVE SMOOTH",
"304 454 OFFCURVE",
"310 422 OFFCURVE",
"310 372 CURVE SMOOTH",
"310 347 OFFCURVE",
"308 323 OFFCURVE",
"305 300 CURVE SMOOTH",
"292 221 OFFCURVE",
"270 154 OFFCURVE",
"237 101 CURVE SMOOTH",
"213 61 OFFCURVE",
"189 41 OFFCURVE",
"165 41 CURVE SMOOTH"
);
}
);
width = 393;
}
);
leftKerningGroup = b;
note = b;
rightKerningGroup = b;
unicode = 0062;
},
{
color = 4;
glyphname = c;
lastChange = "2016-08-03 07:02:50 +0000";
layers = (
{
anchors = (
{
name = bottom;
position = "{166, 0}";
},
{
name = top;
position = "{255, 505}";
}
);
layerId = "79E705E9-1ED7-4818-9510-7FD15DA5A41F";
paths = (
{
closed = 1;
nodes = (
"196 -12 OFFCURVE",
"259 42 OFFCURVE",
"259 83 CURVE SMOOTH",
"259 94 OFFCURVE",
"253 100 OFFCURVE",
"240 100 CURVE SMOOTH",
"226 100 OFFCURVE",
"215 84 OFFCURVE",
"201 68 CURVE SMOOTH",
"182 47 OFFCURVE",
"162 37 OFFCURVE",
"140 37 CURVE SMOOTH",
"97 37 OFFCURVE",
"75 67 OFFCURVE",
"75 126 CURVE SMOOTH",
"75 167 OFFCURVE",
"84 215 OFFCURVE",
"103 269 CURVE SMOOTH",
"140 378 OFFCURVE",
"198 465 OFFCURVE",
"248 465 CURVE SMOOTH",
"267 465 OFFCURVE",
"277 455 OFFCURVE",
"281 434 CURVE SMOOTH",
"285 413 OFFCURVE",
"294 403 OFFCURVE",
"308 403 CURVE SMOOTH",
"322 403 OFFCURVE",
"335 416 OFFCURVE",
"335 428 CURVE SMOOTH",
"335 434 OFFCURVE",
"333 438 OFFCURVE",
"331 443 CURVE",
"327 445 OFFCURVE",
"324 451 OFFCURVE",
"321 459 CURVE",
"317 468 OFFCURVE",
"315 475 OFFCURVE",
"312 480 CURVE SMOOTH",
"303 501 OFFCURVE",
"285 511 OFFCURVE",
"256 511 CURVE SMOOTH",
"216 511 OFFCURVE",
"179 490 OFFCURVE",
"144 448 CURVE SMOOTH",
"73 363 OFFCURVE",
"26 226 OFFCURVE",
"26 109 CURVE SMOOTH",
"26 47 OFFCURVE",
"61 -12 OFFCURVE",
"129 -12 CURVE SMOOTH"
);
}
);
width = 335;
}
);
leftKerningGroup = o;
leftMetricsKey = o;
note = c;
rightKerningGroup = c;
rightMetricsKey = c;
unicode = 0063;
},
{
color = 4;
glyphname = d;
lastChange = "2016-08-03 07:03:10 +0000";
layers = (
{
anchors = (
{
name = bottom;
position = "{220, 0}";
},
{
name = center;
position = "{388, 670}";
},
{
name = top;
position = "{451, 923}";
},
{
name = topright;
position = "{479, 505}";
}
);
layerId = "79E705E9-1ED7-4818-9510-7FD15DA5A41F";
paths = (
{
closed = 1;
nodes = (
"295 -18 OFFCURVE",
"311 -6 OFFCURVE",
"313 10 CURVE",
"307 29 OFFCURVE",
"304 47 OFFCURVE",
"304 66 CURVE SMOOTH",
"303 131 OFFCURVE",
"332 231 OFFCURVE",
"361 347 CURVE SMOOTH",
"380 424 OFFCURVE",
"393 484 OFFCURVE",
"400 527 CURVE SMOOTH",
"407 570 OFFCURVE",
"422 644 OFFCURVE",
"445 750 CURVE SMOOTH",
"468 855 OFFCURVE",
"479 916 OFFCURVE",
"479 932 CURVE SMOOTH",
"479 936 LINE SMOOTH",
"479 951 OFFCURVE",
"472 959 OFFCURVE",
"458 959 CURVE SMOOTH",
"445 959 OFFCURVE",
"431 945 OFFCURVE",
"431 928 CURVE",
"431 926 OFFCURVE",
"407 813 OFFCURVE",
"402 786 CURVE SMOOTH",
"374 650 OFFCURVE",
"379 674 OFFCURVE",
"330 460 CURVE",
"316 490 OFFCURVE",
"294 505 OFFCURVE",
"263 505 CURVE SMOOTH",
"232 505 OFFCURVE",
"206 498 OFFCURVE",
"185 484 CURVE SMOOTH",
"143 456 OFFCURVE",
"122 433 OFFCURVE",
"86 369 CURVE SMOOTH",
"49 300 OFFCURVE",
"30 216 OFFCURVE",
"30 116 CURVE SMOOTH",
"30 62 OFFCURVE",
"56 -9 OFFCURVE",
"125 -9 CURVE SMOOTH",
"193 -9 OFFCURVE",
"233 29 OFFCURVE",
"260 110 CURVE",
"256 92 OFFCURVE",
"254 76 OFFCURVE",
"254 63 CURVE SMOOTH",
"254 35 OFFCURVE",
"268 -18 OFFCURVE",
"285 -18 CURVE SMOOTH"
);
},
{
closed = 1;
nodes = (
"92 40 OFFCURVE",
"75 81 OFFCURVE",
"75 126 CURVE SMOOTH",
"75 163 OFFCURVE",
"83 208 OFFCURVE",
"99 262 CURVE SMOOTH",
"130 369 OFFCURVE",
"186 463 OFFCURVE",
"250 463 CURVE SMOOTH",
"286 463 OFFCURVE",
"306 423 OFFCURVE",
"306 390 CURVE SMOOTH",
"306 242 OFFCURVE",
"180 40 OFFCURVE",
"134 40 CURVE SMOOTH"
);
}
);
width = 439;
}
);
leftKerningGroup = o;
note = d;
rightKerningGroup = d;
unicode = 0064;
},
{
color = 4;
glyphname = eth;
lastChange = "2016-08-02 02:49:13 +0000";
layers = (
{
layerId = "79E705E9-1ED7-4818-9510-7FD15DA5A41F";
paths = (
{
closed = 1;
nodes = (
"212 -9 OFFCURVE",
"282 96 OFFCURVE",
"323 213 CURVE SMOOTH",
"364 330 OFFCURVE",
"381 427 OFFCURVE",
"387 460 CURVE SMOOTH",
"390 476 OFFCURVE",
"395 500 OFFCURVE",
"401 530 CURVE SMOOTH",
"408 561 OFFCURVE",
"411 586 OFFCURVE",
"411 605 CURVE SMOOTH",
"411 657 OFFCURVE",
"402 704 OFFCURVE",
"385 744 CURVE",
"439 769 LINE",
"453 775 OFFCURVE",
"460 785 OFFCURVE",
"460 798 CURVE SMOOTH",
"460 812 OFFCURVE",
"454 819 OFFCURVE",
"442 819 CURVE SMOOTH",
"438 819 OFFCURVE",
"388 797 OFFCURVE",
"363 783 CURVE",
"328 834 OFFCURVE",
"271 875 OFFCURVE",
"229 896 CURVE SMOOTH",
"208 906 OFFCURVE",
"195 913 OFFCURVE",
"189 916 CURVE SMOOTH",
"184 918 OFFCURVE",
"179 920 OFFCURVE",
"175 920 CURVE SMOOTH",
"165 920 OFFCURVE",
"150 915 OFFCURVE",
"150 897 CURVE SMOOTH",
"150 888 OFFCURVE",
"155 881 OFFCURVE",
"166 877 CURVE SMOOTH",
"236 849 OFFCURVE",
"289 809 OFFCURVE",
"323 758 CURVE",
"300 745 OFFCURVE",
"271 732 OFFCURVE",
"238 720 CURVE",
"229 713 OFFCURVE",
"225 703 OFFCURVE",
"225 691 CURVE SMOOTH",
"225 678 OFFCURVE",
"231 672 OFFCURVE",
"243 672 CURVE",
"249 673 LINE",
"343 722 LINE",
"357 689 OFFCURVE",
"364 657 OFFCURVE",
"364 625 CURVE SMOOTH",
"364 592 OFFCURVE",
"360 560 OFFCURVE",
"353 530 CURVE SMOOTH",
"335 460 LINE",
"321 490 OFFCURVE",
"299 505 OFFCURVE",
"268 505 CURVE SMOOTH",
"237 505 OFFCURVE",
"211 498 OFFCURVE",
"190 484 CURVE SMOOTH",
"147 456 OFFCURVE",
"126 433 OFFCURVE",
"91 369 CURVE SMOOTH",
"54 301 OFFCURVE",
"35 217 OFFCURVE",
"35 116 CURVE SMOOTH",
"35 63 OFFCURVE",
"62 -9 OFFCURVE",
"122 -9 CURVE SMOOTH"
);
},
{
closed = 1;
nodes = (
"127 40 OFFCURVE",
"118 42 OFFCURVE",
"111 48 CURVE SMOOTH",
"90 63 OFFCURVE",
"80 90 OFFCURVE",
"80 126 CURVE SMOOTH",
"80 200 OFFCURVE",
"118 328 OFFCURVE",
"156 385 CURVE SMOOTH",
"193 441 OFFCURVE",
"222 463 OFFCURVE",
"249 463 CURVE SMOOTH",
"262 463 OFFCURVE",
"272 460 OFFCURVE",
"279 456 CURVE",
"300 442 OFFCURVE",
"311 415 OFFCURVE",
"311 373 CURVE SMOOTH",
"311 332 OFFCURVE",
"301 285 OFFCURVE",
"281 232 CURVE SMOOTH",
"240 128 OFFCURVE",
"186 40 OFFCURVE",
"139 40 CURVE SMOOTH"
);
}
);
width = 435;
}
);
note = eth;
unicode = 00F0;
},
{
color = 4;
glyphname = e;
lastChange = "2016-08-03 07:03:51 +0000";
layers = (
{
anchors = (
{
name = bottom;
position = "{132, 0}";
},
{
name = ogonek;
position = "{213, 28}";
},
{
name = top;
position = "{235, 505}";
}
);
layerId = "79E705E9-1ED7-4818-9510-7FD15DA5A41F";
paths = (
{
closed = 1;
nodes = (
"179 -10 OFFCURVE",
"270 36 OFFCURVE",
"270 64 CURVE SMOOTH",
"270 76 OFFCURVE",
"264 82 OFFCURVE",
"253 82 CURVE SMOOTH",
"229 82 OFFCURVE",
"185 36 OFFCURVE",
"132 36 CURVE SMOOTH",
"98 36 OFFCURVE",
"81 64 OFFCURVE",
"81 120 CURVE SMOOTH",
"83 192 LINE",
"125 209 OFFCURVE",
"163 227 OFFCURVE",
"195 246 CURVE SMOOTH",
"260 283 OFFCURVE",
"311 341 OFFCURVE",
"311 427 CURVE SMOOTH",
"311 472 OFFCURVE",
"287 511 OFFCURVE",
"246 511 CURVE SMOOTH",
"208 511 OFFCURVE",
"173 492 OFFCURVE",
"141 455 CURVE SMOOTH",
"76 378 OFFCURVE",
"33 257 OFFCURVE",
"33 127 CURVE SMOOTH",
"33 90 OFFCURVE",
"40 59 OFFCURVE",
"54 33 CURVE SMOOTH",
"68 6 OFFCURVE",
"88 -10 OFFCURVE",
"133 -10 CURVE SMOOTH"
);
},
{
closed = 1;
nodes = (
"91 248 OFFCURVE",
"94 258 OFFCURVE",
"98 272 CURVE SMOOTH",
"115 330 OFFCURVE",
"137 376 OFFCURVE",
"164 411 CURVE SMOOTH",
"190 446 OFFCURVE",
"213 464 OFFCURVE",
"232 464 CURVE SMOOTH",
"254 464 OFFCURVE",
"265 451 OFFCURVE",
"265 425 CURVE SMOOTH",
"265 318 OFFCURVE",
"208 287 OFFCURVE",
"91 240 CURVE"
);
}
);
width = 324;
}
);
leftKerningGroup = o;
note = e;
rightKerningGroup = e;
unicode = 0065;
},
{
color = 4;
glyphname = f;
lastChange = "2016-08-03 07:03:56 +0000";
layers = (
{
anchors = (
{
name = bottom;
position = "{171, 0}";
},
{
name = top;
position = "{209, 844}";
}
);
layerId = "79E705E9-1ED7-4818-9510-7FD15DA5A41F";
paths = (
{
closed = 1;
nodes = (
"-144 -411 OFFCURVE",
"-86 -394 OFFCURVE",
"-43 -358 CURVE SMOOTH",
"27 -301 OFFCURVE",
"73 -201 OFFCURVE",
"96 -59 CURVE SMOOTH",
"115 56 OFFCURVE",
"150 312 OFFCURVE",
"176 454 CURVE",
"192 454 OFFCURVE",
"284 453 OFFCURVE",
"293 454 CURVE SMOOTH",
"325 455 OFFCURVE",
"341 464 OFFCURVE",
"341 480 CURVE SMOOTH",
"341 493 OFFCURVE",
"332 499 OFFCURVE",
"313 499 CURVE",
"186 500 LINE",
"211 670 OFFCURVE",
"280 800 OFFCURVE",
"377 800 CURVE SMOOTH",
"405 800 OFFCURVE",
"430 800 OFFCURVE",
"457 795 CURVE",
"470 804 OFFCURVE",
"477 813 OFFCURVE",
"477 824 CURVE SMOOTH",
"477 844 OFFCURVE",
"449 854 OFFCURVE",
"394 854 CURVE SMOOTH",
"237 854 OFFCURVE",
"190 716 OFFCURVE",
"137 500 CURVE",
"36 500 OFFCURVE",
"14 500 OFFCURVE",
"14 472 CURVE SMOOTH",
"14 461 OFFCURVE",
"21 455 OFFCURVE",
"34 454 CURVE",
"127 456 LINE",
"106 319 OFFCURVE",
"58 -50 OFFCURVE",
"19 -164 CURVE SMOOTH",
"-19 -274 OFFCURVE",
"-85 -363 OFFCURVE",
"-211 -363 CURVE SMOOTH",
"-273 -363 OFFCURVE",
"-297 -356 OFFCURVE",
"-371 -303 CURVE",
"-394 -302 OFFCURVE",
"-406 -312 OFFCURVE",
"-406 -324 CURVE SMOOTH",
"-406 -362 OFFCURVE",
"-289 -411 OFFCURVE",
"-215 -411 CURVE SMOOTH"
);
}
);
width = 342;
}
);
leftKerningGroup = f;
note = f;
rightKerningGroup = f;
unicode = 0066;
},
{
color = 4;
glyphname = g;
lastChange = "2016-08-03 07:04:03 +0000";
layers = (
{
anchors = (
{
name = bottom;
position = "{75, -397}";
},
{
name = top;
position = "{285, 505}";
}
);
layerId = "79E705E9-1ED7-4818-9510-7FD15DA5A41F";
paths = (
{
closed = 1;
nodes = (
"99 -410 OFFCURVE",
"126 -397 OFFCURVE",
"150 -370 CURVE SMOOTH",
"181 -336 OFFCURVE",
"206 -269 OFFCURVE",
"225 -170 CURVE SMOOTH",
"254 -23 LINE",
"283 -2 OFFCURVE",
"317 23 OFFCURVE",
"359 55 CURVE SMOOTH",
"364 60 OFFCURVE",
"367 66 OFFCURVE",
"367 75 CURVE SMOOTH",
"367 86 OFFCURVE",
"361 92 OFFCURVE",
"349 92 CURVE SMOOTH",
"331 92 OFFCURVE",
"296 50 OFFCURVE",
"260 26 CURVE",
"263 40 OFFCURVE",
"301 216 OFFCURVE",
"304 229 CURVE SMOOTH",
"320 299 OFFCURVE",
"338 375 OFFCURVE",
"347 408 CURVE SMOOTH",
"354 431 OFFCURVE",
"365 463 OFFCURVE",
"365 480 CURVE SMOOTH",
"365 491 OFFCURVE",
"360 496 OFFCURVE",
"349 496 CURVE SMOOTH",
"344 496 OFFCURVE",
"340 495 OFFCURVE",
"336 493 CURVE",
"318 503 OFFCURVE",
"298 509 OFFCURVE",
"275 509 CURVE SMOOTH",
"230 509 OFFCURVE",
"188 486 OFFCURVE",
"151 440 CURVE SMOOTH",
"75 348 OFFCURVE",
"30 208 OFFCURVE",
"30 94 CURVE SMOOTH",
"30 32 OFFCURVE",
"59 -6 OFFCURVE",
"108 -6 CURVE SMOOTH",
"162 -6 OFFCURVE",
"217 74 OFFCURVE",
"251 173 CURVE",
"248 164 OFFCURVE",
"212 6 OFFCURVE",
"210 -7 CURVE",
"189 -24 OFFCURVE",
"160 -47 OFFCURVE",
"123 -74 CURVE SMOOTH",
"49 -128 OFFCURVE",
"-46 -187 OFFCURVE",
"-46 -291 CURVE SMOOTH",
"-46 -363 OFFCURVE",
"3 -410 OFFCURVE",
"67 -410 CURVE SMOOTH"
);
},
{
closed = 1;
nodes = (
"28 -360 OFFCURVE",
"3 -340 OFFCURVE",
"3 -296 CURVE SMOOTH",
"3 -214 OFFCURVE",
"82 -154 OFFCURVE",
"130 -118 CURVE SMOOTH",
"154 -100 OFFCURVE",
"178 -81 OFFCURVE",
"202 -61 CURVE",
"187 -140 LINE SMOOTH",
"164 -261 OFFCURVE",
"140 -360 OFFCURVE",
"65 -360 CURVE SMOOTH"
);
},
{
closed = 1;
nodes = (
"87 40 OFFCURVE",
"75 64 OFFCURVE",
"75 111 CURVE SMOOTH",
"75 159 OFFCURVE",
"85 210 OFFCURVE",
"106 268 CURVE SMOOTH",
"147 381 OFFCURVE",
"215 469 OFFCURVE",
"274 469 CURVE SMOOTH",
"290 469 OFFCURVE",
"303 465 OFFCURVE",
"313 456 CURVE",
"310 444 OFFCURVE",
"304 422 OFFCURVE",
"295 390 CURVE SMOOTH",
"286 357 OFFCURVE",
"273 312 OFFCURVE",
"256 254 CURVE SMOOTH",
"222 137 OFFCURVE",
"156 40 OFFCURVE",
"112 40 CURVE SMOOTH"
);
}
);
width = 380;
}
);
leftKerningGroup = g;
note = g;
rightKerningGroup = g;
unicode = 0067;
},
{
color = 4;
glyphname = h;
lastChange = "2016-08-03 07:04:08 +0000";
layers = (
{
anchors = (
{
name = bottom;
position = "{172, 0}";
},
{
name = center;
position = "{254, 787}";
},
{
name = top;
position = "{317, 960}";
}
);
layerId = "79E705E9-1ED7-4818-9510-7FD15DA5A41F";
paths = (
{
closed = 1;
nodes = (
"91 -8 OFFCURVE",
"94 0 OFFCURVE",
"93 32 CURVE",
"93 49 OFFCURVE",
"112 123 OFFCURVE",
"127 169 CURVE SMOOTH",
"143 215 OFFCURVE",
"264 450 OFFCURVE",
"334 450 CURVE SMOOTH",
"353 450 OFFCURVE",
"362 434 OFFCURVE",
"362 400 CURVE SMOOTH",
"362 386 OFFCURVE",
"361 374 OFFCURVE",
"359 364 CURVE SMOOTH",
"301 39 LINE SMOOTH",
"296 12 OFFCURVE",
"305 -7 OFFCURVE",
"327 -7 CURVE SMOOTH",
"346 -7 OFFCURVE",
"358 4 OFFCURVE",
"358 21 CURVE",
"356 60 LINE",
"356 78 OFFCURVE",
"366 132 OFFCURVE",
"384 225 CURVE SMOOTH",
"400 309 LINE SMOOTH",
"409 351 OFFCURVE",
"413 383 OFFCURVE",
"413 407 CURVE SMOOTH",
"413 454 OFFCURVE",
"389 500 OFFCURVE",
"340 500 CURVE SMOOTH",
"279 500 OFFCURVE",
"215 430 OFFCURVE",
"147 290 CURVE",
"157 337 OFFCURVE",
"170 396 OFFCURVE",
"185 465 CURVE SMOOTH",
"201 541 OFFCURVE",
"280 921 OFFCURVE",
"283 940 CURVE",
"279 957 OFFCURVE",
"268 965 OFFCURVE",
"251 965 CURVE SMOOTH",
"243 965 OFFCURVE",
"237 960 OFFCURVE",
"234 950 CURVE SMOOTH",
"229 924 OFFCURVE",
"170 626 OFFCURVE",
"138 474 CURVE SMOOTH",
"73 175 OFFCURVE",
"40 20 OFFCURVE",
"40 9 CURVE SMOOTH",
"40 -2 OFFCURVE",
"46 -8 OFFCURVE",
"57 -8 CURVE SMOOTH"
);
}
);
width = 468;
}
);
leftKerningGroup = h;
note = h;
rightKerningGroup = n;
unicode = 0068;
},
{
color = 4;
glyphname = idotless;
lastChange = "2016-08-03 07:04:14 +0000";
layers = (
{
anchors = (
{
name = bottom;
position = "{71, 0}";
},
{
name = ogonek;
position = "{71, 10}";
},
{
name = top;
position = "{154, 505}";
}
);
background = {
paths = (
{
closed = 1;
nodes = (
"83 -10 OFFCURVE",
"139 14 OFFCURVE",
"139 41 CURVE SMOOTH",
"139 54 OFFCURVE",
"134 61 OFFCURVE",
"123 61 CURVE SMOOTH",
"118 61 OFFCURVE",
"111 57 OFFCURVE",
"103 49 CURVE SMOOTH",
"95 41 OFFCURVE",
"89 36 OFFCURVE",
"85 36 CURVE SMOOTH",
"79 36 OFFCURVE",
"75 40 OFFCURVE",
"75 47 CURVE SMOOTH",
"75 54 OFFCURVE",
"90 123 OFFCURVE",
"121 255 CURVE SMOOTH",
"152 387 OFFCURVE",
"167 458 OFFCURVE",
"167 471 CURVE SMOOTH",
"167 495 OFFCURVE",
"155 519 OFFCURVE",
"140 519 CURVE SMOOTH",
"124 519 OFFCURVE",
"111 503 OFFCURVE",
"111 487 CURVE",
"116 469 OFFCURVE",
"118 458 OFFCURVE",
"118 454 CURVE SMOOTH",
"118 444 LINE SMOOTH",
"118 440 OFFCURVE",
"113 417 OFFCURVE",
"104 374 CURVE SMOOTH",
"94 331 OFFCURVE",
"86 294 OFFCURVE",
"80 264 CURVE SMOOTH",
"73 233 OFFCURVE",
"66 204 OFFCURVE",
"60 176 CURVE SMOOTH",
"54 147 OFFCURVE",
"49 125 OFFCURVE",
"45 109 CURVE SMOOTH",
"42 92 OFFCURVE",
"39 80 OFFCURVE",
"36 70 CURVE",
"32 61 OFFCURVE",
"31 52 OFFCURVE",
"31 45 CURVE SMOOTH",
"31 8 OFFCURVE",
"42 -10 OFFCURVE",
"65 -10 CURVE SMOOTH"
);
},
{
closed = 1;
nodes = (
"175 594 OFFCURVE",
"181 595 OFFCURVE",
"187 596 CURVE SMOOTH",
"206 599 OFFCURVE",
"216 615 OFFCURVE",
"216 643 CURVE SMOOTH",
"216 662 OFFCURVE",
"206 672 OFFCURVE",
"187 672 CURVE SMOOTH",
"164 672 OFFCURVE",
"139 650 OFFCURVE",
"139 629 CURVE SMOOTH",
"139 609 OFFCURVE",
"155 594 OFFCURVE",
"168 594 CURVE SMOOTH"
);
}
);
};
layerId = "79E705E9-1ED7-4818-9510-7FD15DA5A41F";
paths = (
{
closed = 1;
nodes = (
"83 -10 OFFCURVE",
"139 14 OFFCURVE",
"139 41 CURVE SMOOTH",
"139 54 OFFCURVE",
"134 61 OFFCURVE",
"123 61 CURVE SMOOTH",
"118 61 OFFCURVE",
"111 57 OFFCURVE",
"103 49 CURVE SMOOTH",
"95 41 OFFCURVE",
"89 36 OFFCURVE",
"85 36 CURVE SMOOTH",
"79 36 OFFCURVE",
"75 40 OFFCURVE",
"75 47 CURVE SMOOTH",
"75 54 OFFCURVE",
"90 123 OFFCURVE",
"121 255 CURVE SMOOTH",
"152 387 OFFCURVE",
"167 458 OFFCURVE",
"167 471 CURVE SMOOTH",
"167 495 OFFCURVE",
"155 519 OFFCURVE",
"140 519 CURVE SMOOTH",
"124 519 OFFCURVE",
"111 503 OFFCURVE",
"111 487 CURVE",
"116 469 OFFCURVE",
"118 458 OFFCURVE",
"118 454 CURVE SMOOTH",
"118 444 LINE SMOOTH",
"118 440 OFFCURVE",
"113 417 OFFCURVE",
"104 374 CURVE SMOOTH",
"94 331 OFFCURVE",
"86 294 OFFCURVE",
"80 264 CURVE SMOOTH",
"73 233 OFFCURVE",
"66 204 OFFCURVE",
"60 176 CURVE SMOOTH",
"54 147 OFFCURVE",
"49 125 OFFCURVE",
"45 109 CURVE SMOOTH",
"42 92 OFFCURVE",
"39 80 OFFCURVE",
"36 70 CURVE",
"32 61 OFFCURVE",
"31 52 OFFCURVE",
"31 45 CURVE SMOOTH",
"31 8 OFFCURVE",
"42 -10 OFFCURVE",
"65 -10 CURVE SMOOTH"
);
}
);
width = 214;
}
);
leftKerningGroup = i;
rightKerningGroup = i;
unicode = 0131;
},
{
color = 4;
glyphname = jdotless;
lastChange = "2016-08-03 07:04:19 +0000";
layers = (
{
anchors = (
{
name = bottom;
position = "{-224, -415}";
},
{
name = top;
position = "{149, 505}";
}
);
layerId = "79E705E9-1ED7-4818-9510-7FD15DA5A41F";
paths = (
{
closed = 1;
nodes = (
"-112 -414 OFFCURVE",
"-12 -362 OFFCURVE",
"42 -196 CURVE SMOOTH",
"74 -97 OFFCURVE",
"108 82 OFFCURVE",
"145 340 CURVE SMOOTH",
"166 490 LINE",
"166 502 OFFCURVE",
"160 508 OFFCURVE",
"149 508 CURVE SMOOTH",
"138 508 OFFCURVE",
"125 500 OFFCURVE",
"121 485 CURVE",
"83 204 OFFCURVE",
"36 -364 OFFCURVE",
"-224 -364 CURVE SMOOTH",
"-259 -364 OFFCURVE",
"-288 -359 OFFCURVE",
"-309 -351 CURVE",
"-322 -354 OFFCURVE",
"-334 -368 OFFCURVE",
"-334 -380 CURVE SMOOTH",
"-334 -386 OFFCURVE",
"-330 -391 OFFCURVE",
"-323 -395 CURVE SMOOTH",
"-299 -408 OFFCURVE",
"-269 -414 OFFCURVE",
"-233 -414 CURVE SMOOTH"
);
}
);
width = 201;
}
);
leftKerningGroup = j;
rightKerningGroup = j;
unicode = 0237;
},
{
color = 4;
glyphname = k;
lastChange = "2016-08-03 07:04:24 +0000";
layers = (
{
anchors = (
{
name = bottom;
position = "{218, 0}";
},
{
name = top;
position = "{264, 960}";
}
);
layerId = "79E705E9-1ED7-4818-9510-7FD15DA5A41F";
paths = (
{
closed = 1;
nodes = (
"72 -12 OFFCURVE",
"80 -4 OFFCURVE",
"83 13 CURVE SMOOTH",
"85 23 OFFCURVE",
"92 52 OFFCURVE",
"104 102 CURVE SMOOTH",
"117 150 OFFCURVE",
"124 183 OFFCURVE",
"126 200 CURVE",
"133 205 LINE",
"137 181 OFFCURVE",
"144 149 OFFCURVE",
"163 115 CURVE SMOOTH",
"200 46 OFFCURVE",
"260 -10 OFFCURVE",
"336 -10 CURVE SMOOTH",
"359 -10 OFFCURVE",
"381 2 OFFCURVE",
"403 27 CURVE SMOOTH",
"415 40 OFFCURVE",
"420 52 OFFCURVE",
"420 65 CURVE SMOOTH",
"420 87 OFFCURVE",
"411 98 OFFCURVE",
"394 98 CURVE SMOOTH",
"387 98 OFFCURVE",
"382 93 OFFCURVE",
"378 84 CURVE SMOOTH",
"372 65 OFFCURVE",
"365 37 OFFCURVE",
"332 37 CURVE SMOOTH",
"262 37 OFFCURVE",
"185 125 OFFCURVE",
"167 225 CURVE",
"279 292 OFFCURVE",
"334 345 OFFCURVE",
"334 423 CURVE SMOOTH",
"334 465 OFFCURVE",
"317 510 OFFCURVE",
"264 510 CURVE SMOOTH",
"237 510 OFFCURVE",
"210 496 OFFCURVE",
"183 467 CURVE",
"188 490 OFFCURVE",
"198 536 OFFCURVE",
"213 606 CURVE SMOOTH",
"250 766 OFFCURVE",
"238 727 OFFCURVE",
"268 864 CURVE SMOOTH",
"275 900 OFFCURVE",
"279 923 OFFCURVE",
"279 931 CURVE SMOOTH",
"279 953 OFFCURVE",
"269 964 OFFCURVE",
"247 964 CURVE SMOOTH",
"230 964 OFFCURVE",
"223 904 OFFCURVE",
"210 824 CURVE SMOOTH",
"183 665 OFFCURVE",
"138 478 OFFCURVE",
"78 224 CURVE SMOOTH",
"48 102 OFFCURVE",
"32 28 OFFCURVE",
"32 2 CURVE SMOOTH",
"32 -5 OFFCURVE",
"44 -12 OFFCURVE",
"60 -12 CURVE SMOOTH"
);
},
{
closed = 1;
nodes = (
"142 303 OFFCURVE",
"146 318 OFFCURVE",
"147 327 CURVE SMOOTH",
"164 419 OFFCURVE",
"202 464 OFFCURVE",
"253 464 CURVE SMOOTH",
"273 464 OFFCURVE",
"283 449 OFFCURVE",
"283 420 CURVE SMOOTH",
"283 391 OFFCURVE",
"273 365 OFFCURVE",
"253 342 CURVE SMOOTH",
"214 297 OFFCURVE",
"167 269 OFFCURVE",
"149 258 CURVE SMOOTH",
"140 253 OFFCURVE",
"134 249 OFFCURVE",
"131 246 CURVE"
);
}
);
width = 436;
}
);
leftKerningGroup = k;
note = k;
rightKerningGroup = k;
unicode = 006B;
},
{
color = 4;
glyphname = l;
lastChange = "2016-08-03 07:04:29 +0000";
layers = (
{
anchors = (
{
name = bottom;
position = "{102, 0}";
},
{
name = center;
position = "{131, 459}";
},
{
name = top;
position = "{191, 961}";
},
{
name = topright;
position = "{241, 505}";
}
);
layerId = "79E705E9-1ED7-4818-9510-7FD15DA5A41F";
paths = (
{
closed = 1;
nodes = (
"167 -8 OFFCURVE",
"213 9 OFFCURVE",
"213 39 CURVE SMOOTH",
"213 54 OFFCURVE",
"206 61 OFFCURVE",
"191 61 CURVE SMOOTH",
"189 61 OFFCURVE",
"187 60 OFFCURVE",
"181 57 CURVE",
"176 54 OFFCURVE",
"170 51 OFFCURVE",
"164 48 CURVE SMOOTH",
"150 42 OFFCURVE",
"138 35 OFFCURVE",
"121 35 CURVE SMOOTH",
"104 35 OFFCURVE",
"90 54 OFFCURVE",
"90 74 CURVE SMOOTH",
"90 84 OFFCURVE",
"94 114 OFFCURVE",
"103 164 CURVE SMOOTH",
"120 264 OFFCURVE",
"199 637 OFFCURVE",
"224 752 CURVE SMOOTH",
"257 913 OFFCURVE",
"245 843 OFFCURVE",
"261 943 CURVE SMOOTH",
"261 958 OFFCURVE",
"254 966 OFFCURVE",
"240 966 CURVE SMOOTH",
"228 966 OFFCURVE",
"221 960 OFFCURVE",
"218 950 CURVE",
"215 939 OFFCURVE",
"158 671 OFFCURVE",
"126 519 CURVE SMOOTH",
"117 476 OFFCURVE",
"108 434 OFFCURVE",
"100 393 CURVE SMOOTH",
"83 311 OFFCURVE",
"69 238 OFFCURVE",
"59 181 CURVE SMOOTH",
"49 124 OFFCURVE",
"45 100 OFFCURVE",
"45 61 CURVE SMOOTH",
"45 22 OFFCURVE",
"68 -8 OFFCURVE",
"118 -8 CURVE SMOOTH"
);
}
);
width = 261;
}
);
leftKerningGroup = l;
note = l;
rightKerningGroup = l;
unicode = 006C;
},
{
color = 4;
glyphname = m;
lastChange = "2016-08-03 07:04:50 +0000";
layers = (
{
anchors = (
{
name = bottom;
position = "{285, 0}";
},
{
name = top;
position = "{356, 505}";
}
);
layerId = "79E705E9-1ED7-4818-9510-7FD15DA5A41F";
paths = (
{
closed = 1;
nodes = (
"83 -14 OFFCURVE",
"104 20 OFFCURVE",
"125 87 CURVE SMOOTH",
"129 98 OFFCURVE",
"134 115 OFFCURVE",
"142 136 CURVE SMOOTH",
"156 179 OFFCURVE",
"277 459 OFFCURVE",
"354 459 CURVE SMOOTH",
"368 459 OFFCURVE",
"375 448 OFFCURVE",
"375 425 CURVE SMOOTH",
"375 380 OFFCURVE",
"353 311 OFFCURVE",
"333 261 CURVE SMOOTH",
"313 212 OFFCURVE",
"275 125 OFFCURVE",
"260 16 CURVE",
"261 0 OFFCURVE",
"270 -9 OFFCURVE",
"285 -9 CURVE SMOOTH",
"293 -9 OFFCURVE",
"299 -6 OFFCURVE",
"303 -1 CURVE",
"307 4 OFFCURVE",
"311 17 OFFCURVE",
"316 37 CURVE SMOOTH",
"326 76 OFFCURVE",
"347 137 OFFCURVE",
"357 167 CURVE SMOOTH",
"363 182 OFFCURVE",
"368 199 OFFCURVE",
"374 220 CURVE SMOOTH",
"395 290 OFFCURVE",
"425 349 OFFCURVE",
"466 396 CURVE SMOOTH",
"502 438 OFFCURVE",
"542 462 OFFCURVE",
"560 462 CURVE SMOOTH",
"577 462 OFFCURVE",
"583 461 OFFCURVE",
"583 434 CURVE",
"575 350 OFFCURVE",
"545 271 OFFCURVE",
"529 225 CURVE SMOOTH",
"521 202 OFFCURVE",
"514 183 OFFCURVE",
"510 167 CURVE SMOOTH",
"505 150 OFFCURVE",
"499 130 OFFCURVE",
"491 106 CURVE SMOOTH",
"484 83 OFFCURVE",
"480 61 OFFCURVE",
"480 40 CURVE SMOOTH",
"480 7 OFFCURVE",
"488 -9 OFFCURVE",
"503 -9 CURVE SMOOTH",
"519 -9 OFFCURVE",
"527 6 OFFCURVE",
"530 15 CURVE SMOOTH",
"532 19 OFFCURVE",
"533 32 OFFCURVE",
"536 54 CURVE SMOOTH",
"540 98 OFFCURVE",
"573 199 OFFCURVE",
"589 246 CURVE SMOOTH",
"597 269 OFFCURVE",
"604 292 OFFCURVE",
"611 315 CURVE SMOOTH",
"624 360 OFFCURVE",
"633 407 OFFCURVE",
"633 446 CURVE SMOOTH",
"633 485 OFFCURVE",
"606 510 OFFCURVE",
"582 510 CURVE SMOOTH",
"569 510 OFFCURVE",
"557 507 OFFCURVE",
"545 502 CURVE SMOOTH",
"506 486 OFFCURVE",
"468 456 OFFCURVE",
"432 412 CURVE",
"432 415 OFFCURVE",
"432 417 OFFCURVE",
"433 420 CURVE SMOOTH",
"433 422 OFFCURVE",
"433 425 OFFCURVE",
"433 428 CURVE SMOOTH",
"433 471 OFFCURVE",
"405 509 OFFCURVE",
"365 509 CURVE SMOOTH",
"329 509 OFFCURVE",
"295 492 OFFCURVE",
"265 458 CURVE SMOOTH",
"234 423 OFFCURVE",
"200 364 OFFCURVE",
"165 282 CURVE SMOOTH",
"156 262 OFFCURVE",
"148 245 OFFCURVE",
"141 230 CURVE",
"166 335 LINE SMOOTH",
"179 391 OFFCURVE",
"187 443 OFFCURVE",
"188 490 CURVE SMOOTH",
"188 498 LINE",
"185 509 OFFCURVE",
"179 515 OFFCURVE",
"170 515 CURVE SMOOTH",
"167 515 OFFCURVE",
"162 514 OFFCURVE",
"155 511 CURVE",
"146 501 OFFCURVE",
"141 493 OFFCURVE",
"141 488 CURVE SMOOTH",
"140 482 OFFCURVE",
"139 477 OFFCURVE",
"138 471 CURVE SMOOTH",
"120 348 OFFCURVE",
"98 230 OFFCURVE",
"70 120 CURVE",
"63 101 OFFCURVE",
"58 80 OFFCURVE",
"54 58 CURVE SMOOTH",
"50 35 OFFCURVE",
"45 16 OFFCURVE",
"40 0 CURVE",
"40 -8 OFFCURVE",
"51 -14 OFFCURVE",
"64 -14 CURVE SMOOTH"
);
}
);
width = 688;
}
);
leftKerningGroup = n;
note = m;
rightKerningGroup = n;
unicode = 006D;
},
{
color = 4;
glyphname = n;
lastChange = "2016-08-03 07:04:50 +0000";
layers = (
{
anchors = (
{
name = bottom;
position = "{180, 0}";
},
{
name = top;
position = "{259, 505}";
}
);
layerId = "79E705E9-1ED7-4818-9510-7FD15DA5A41F";
paths = (
{
closed = 1;
nodes = (
"334 -6 OFFCURVE",
"341 79 OFFCURVE",
"354 160 CURVE SMOOTH",
"369 256 OFFCURVE",
"391 339 OFFCURVE",
"391 393 CURVE SMOOTH",
"391 465 OFFCURVE",
"369 501 OFFCURVE",
"324 501 CURVE SMOOTH",
"299 501 OFFCURVE",
"271 480 OFFCURVE",
"242 438 CURVE SMOOTH",
"197 373 OFFCURVE",
"157 277 OFFCURVE",
"138 233 CURVE SMOOTH",
"129 211 OFFCURVE",
"120 192 OFFCURVE",
"113 177 CURVE",
"123 236 LINE SMOOTH",
"150 387 OFFCURVE",
"180 455 OFFCURVE",
"180 473 CURVE SMOOTH",
"180 483 OFFCURVE",
"170 500 OFFCURVE",
"153 500 CURVE SMOOTH",
"136 500 OFFCURVE",
"133 498 OFFCURVE",
"125 482 CURVE SMOOTH",
"117 467 OFFCURVE",
"40 42 OFFCURVE",
"40 24 CURVE SMOOTH",
"40 6 OFFCURVE",
"41 0 OFFCURVE",
"55 0 CURVE SMOOTH",
"68 0 OFFCURVE",
"79 13 OFFCURVE",
"91 39 CURVE SMOOTH",
"103 63 OFFCURVE",
"253 444 OFFCURVE",
"314 444 CURVE SMOOTH",
"332 444 OFFCURVE",
"341 428 OFFCURVE",
"341 396 CURVE SMOOTH",
"341 376 OFFCURVE",
"338 349 OFFCURVE",
"332 313 CURVE SMOOTH",
"283 21 LINE SMOOTH",
"280 1 OFFCURVE",
"290 -6 OFFCURVE",
"311 -6 CURVE SMOOTH"
);
}
);
width = 446;
}
);
leftKerningGroup = n;
note = n;
rightKerningGroup = n;
unicode = 006E;
},
{
color = 4;
glyphname = eng;
lastChange = "2016-08-03 07:04:55 +0000";
layers = (
{
background = {
paths = (
{
closed = 1;
nodes = (
"316 -29 LINE",
"347 -7 OFFCURVE",
"381 23 OFFCURVE",
"429 55 CURVE SMOOTH",
"435 59 OFFCURVE",
"437 66 OFFCURVE",
"437 75 CURVE SMOOTH",
"437 86 OFFCURVE",
"431 92 OFFCURVE",
"419 92 CURVE SMOOTH",
"399 92 OFFCURVE",
"358 40 OFFCURVE",
"318 19 CURVE"
);
},
{
closed = 1;
nodes = (
"366 229 LINE",
"318 204 LINE",
"257 -140 LINE SMOOTH",
"236 -256 OFFCURVE",
"199 -360 OFFCURVE",
"128 -360 CURVE SMOOTH",
"87 -360 OFFCURVE",
"73 -340 OFFCURVE",
"73 -286 CURVE SMOOTH",
"73 -194 OFFCURVE",
"231 -95 OFFCURVE",
"283 -52 CURVE",
"287 -1 LINE",
"237 -42 OFFCURVE",
"24 -163 OFFCURVE",
"24 -291 CURVE SMOOTH",
"24 -363 OFFCURVE",
"73 -410 OFFCURVE",
"137 -410 CURVE SMOOTH",
"228 -410 OFFCURVE",
"270 -309 OFFCURVE",
"295 -170 CURVE SMOOTH"
);
}
);
};
components = (
{
name = n;
}
);
layerId = "79E705E9-1ED7-4818-9510-7FD15DA5A41F";
paths = (
{
closed = 1;
nodes = (
"263 -22 OFFCURVE",
"19 -163 OFFCURVE",
"19 -291 CURVE SMOOTH",
"19 -363 OFFCURVE",
"68 -410 OFFCURVE",
"132 -410 CURVE SMOOTH",
"223 -410 OFFCURVE",
"261 -309 OFFCURVE",
"290 -170 CURVE SMOOTH",
"337 54 LINE",
"290 59 LINE",
"252 -140 LINE SMOOTH",
"230 -256 OFFCURVE",
"198 -364 OFFCURVE",
"127 -364 CURVE SMOOTH",
"86 -364 OFFCURVE",
"68 -333 OFFCURVE",
"68 -296 CURVE SMOOTH",
"68 -200 OFFCURVE",
"259 -74 OFFCURVE",
"311 -29 CURVE",
"342 -7 OFFCURVE",
"376 23 OFFCURVE",
"424 55 CURVE SMOOTH",
"430 59 OFFCURVE",
"432 66 OFFCURVE",
"432 75 CURVE SMOOTH",
"432 86 OFFCURVE",
"426 92 OFFCURVE",
"414 92 CURVE SMOOTH",
"394 92 OFFCURVE",
"353 40 OFFCURVE",
"313 19 CURVE"
);
}
);
width = 446;
}
);
leftKerningGroup = n;
rightKerningGroup = j;
unicode = 014B;
},
{
color = 4;
glyphname = o;
lastChange = "2016-08-03 07:05:09 +0000";
layers = (
{
anchors = (
{
name = bottom;
position = "{135, 1}";
},
{
name = center;
position = "{190, 252}";
},
{
name = ogonek;
position = "{153, 10}";
},
{
name = top;
position = "{259, 505}";
},
{
name = topright;
position = "{340, 439}";
}
);
layerId = "79E705E9-1ED7-4818-9510-7FD15DA5A41F";
paths = (
{
closed = 1;
nodes = (
"154 -9 OFFCURVE",
"174 -2 OFFCURVE",
"193 10 CURVE SMOOTH",
"270 60 OFFCURVE",
"351 220 OFFCURVE",
"351 365 CURVE SMOOTH",
"351 458 OFFCURVE",
"320 505 OFFCURVE",
"259 505 CURVE SMOOTH",
"217 505 OFFCURVE",
"178 486 OFFCURVE",
"144 448 CURVE SMOOTH",
"73 373 OFFCURVE",
"30 251 OFFCURVE",
"30 130 CURVE SMOOTH",
"30 62 OFFCURVE",
"59 -9 OFFCURVE",
"133 -9 CURVE SMOOTH"
);
},
{
closed = 1;
nodes = (
"130 36 OFFCURVE",
"122 39 OFFCURVE",
"114 43 CURVE SMOOTH",
"88 60 OFFCURVE",
"75 91 OFFCURVE",
"75 137 CURVE SMOOTH",
"75 204 OFFCURVE",
"93 273 OFFCURVE",
"128 343 CURVE SMOOTH",
"151 391 OFFCURVE",
"178 424 OFFCURVE",
"208 443 CURVE SMOOTH",
"224 454 OFFCURVE",
"239 459 OFFCURVE",
"252 459 CURVE SMOOTH",
"278 459 OFFCURVE",
"287 452 OFFCURVE",
"295 432 CURVE SMOOTH",
"300 422 OFFCURVE",
"302 398 OFFCURVE",
"302 360 CURVE SMOOTH",
"302 322 OFFCURVE",
"293 277 OFFCURVE",
"275 224 CURVE SMOOTH",
"240 118 OFFCURVE",
"182 36 OFFCURVE",
"141 36 CURVE SMOOTH"
);
}
);
width = 381;
}
);
leftKerningGroup = o;
note = o;
rightKerningGroup = o;
unicode = 006F;
},
{
color = 4;
glyphname = oslash;
lastChange = "2016-08-03 07:05:09 +0000";
layers = (
{
anchors = (
{
name = top;
position = "{258, 505}";
}
);
background = {
components = (
{
name = o;
}
);
paths = (
{
closed = 1;
nodes = (
"28 -61 OFFCURVE",
"36 -55 OFFCURVE",
"86 26 CURVE",
"92 38 OFFCURVE",
"301 399 OFFCURVE",
"319 448 CURVE",
"365 546 LINE",
"366 555 OFFCURVE",
"359 562 OFFCURVE",
"348 562 CURVE",
"335 562 OFFCURVE",
"336 555 OFFCURVE",
"290 473 CURVE",
"268 404 OFFCURVE",
"11 -31 OFFCURVE",
"6 -45 CURVE SMOOTH",
"3 -54 OFFCURVE",
"8 -59 OFFCURVE",
"17 -60 CURVE SMOOTH"
);
}
);
};
components = (
{
name = o;
}
);
layerId = "79E705E9-1ED7-4818-9510-7FD15DA5A41F";
paths = (
{
closed = 1;
nodes = (
"28 -61 OFFCURVE",
"36 -55 OFFCURVE",
"86 26 CURVE",
"92 38 OFFCURVE",
"301 399 OFFCURVE",
"319 448 CURVE",
"365 546 LINE",
"366 555 OFFCURVE",
"359 562 OFFCURVE",
"348 562 CURVE",
"335 562 OFFCURVE",
"336 555 OFFCURVE",
"290 473 CURVE",
"268 404 OFFCURVE",
"11 -31 OFFCURVE",
"6 -45 CURVE SMOOTH",
"3 -54 OFFCURVE",
"8 -59 OFFCURVE",
"17 -60 CURVE SMOOTH"
);
}
);
width = 378;
}
);
leftKerningGroup = o;
note = oslash;
rightKerningGroup = o;
unicode = 00F8;
},
{
color = 4;
glyphname = oe;
lastChange = "2016-08-03 07:05:14 +0000";
layers = (
{
layerId = "79E705E9-1ED7-4818-9510-7FD15DA5A41F";
paths = (
{
closed = 1;
nodes = (
"410 -10 OFFCURVE",
"498 36 OFFCURVE",
"498 64 CURVE SMOOTH",
"498 76 OFFCURVE",
"492 82 OFFCURVE",
"481 82 CURVE SMOOTH",
"457 82 OFFCURVE",
"413 36 OFFCURVE",
"360 36 CURVE SMOOTH",
"326 36 OFFCURVE",
"309 64 OFFCURVE",
"309 120 CURVE SMOOTH",
"311 192 LINE",
"354 209 OFFCURVE",
"391 227 OFFCURVE",
"423 246 CURVE SMOOTH",
"488 283 OFFCURVE",
"539 342 OFFCURVE",
"539 427 CURVE SMOOTH",
"539 472 OFFCURVE",
"515 511 OFFCURVE",
"474 511 CURVE SMOOTH",
"426 511 OFFCURVE",
"381 480 OFFCURVE",
"340 417 CURVE",
"330 476 OFFCURVE",
"300 505 OFFCURVE",
"252 505 CURVE SMOOTH",
"210 505 OFFCURVE",
"171 486 OFFCURVE",
"137 448 CURVE SMOOTH",
"66 373 OFFCURVE",
"23 251 OFFCURVE",
"23 130 CURVE SMOOTH",
"23 61 OFFCURVE",
"52 -9 OFFCURVE",
"124 -9 CURVE SMOOTH",
"175 -9 OFFCURVE",
"222 26 OFFCURVE",
"264 95 CURVE",
"272 25 OFFCURVE",
"302 -10 OFFCURVE",
"351 -10 CURVE SMOOTH"
);
},
{
closed = 1;
nodes = (
"97 36 OFFCURVE",
"68 71 OFFCURVE",
"68 137 CURVE SMOOTH",
"68 204 OFFCURVE",
"85 273 OFFCURVE",
"121 343 CURVE SMOOTH",
"153 408 OFFCURVE",
"204 459 OFFCURVE",
"245 459 CURVE SMOOTH",
"308 459 OFFCURVE",
"311 395 OFFCURVE",
"269 224 CURVE SMOOTH",
"243 116 OFFCURVE",
"177 36 OFFCURVE",
"134 36 CURVE SMOOTH"
);
},
{
closed = 1;
nodes = (
"353 392 OFFCURVE",
"393 464 OFFCURVE",
"460 464 CURVE SMOOTH",
"482 464 OFFCURVE",
"493 451 OFFCURVE",
"493 425 CURVE SMOOTH",
"493 321 OFFCURVE",
"420 291 OFFCURVE",
"326 244 CURVE"
);
}
);
width = 552;
}
);
leftKerningGroup = o;
note = oe;
rightKerningGroup = e;
unicode = 0153;
},
{
color = 4;
glyphname = p;
lastChange = "2016-08-03 07:11:53 +0000";
layers = (
{
anchors = (
{
name = bottom;
position = "{-18, -387}";
},
{
name = top;
position = "{272, 505}";
}
);
layerId = "79E705E9-1ED7-4818-9510-7FD15DA5A41F";
paths = (
{
closed = 1;
nodes = (
"-14 -410 OFFCURVE",
"-4 -403 OFFCURVE",
"2 -390 CURVE",
"18 -330 OFFCURVE",
"33 -262 OFFCURVE",
"48 -187 CURVE SMOOTH",
"63 -112 OFFCURVE",
"79 -38 OFFCURVE",
"95 38 CURVE",
"109 1 OFFCURVE",
"129 -13 OFFCURVE",
"166 -13 CURVE SMOOTH",
"213 -13 OFFCURVE",
"255 9 OFFCURVE",
"290 54 CURVE SMOOTH",
"360 144 OFFCURVE",
"395 282 OFFCURVE",
"395 405 CURVE SMOOTH",
"395 472 OFFCURVE",
"372 507 OFFCURVE",
"313 507 CURVE SMOOTH",
"258 507 OFFCURVE",
"207 461 OFFCURVE",
"159 370 CURVE",
"173 442 LINE",
"173 445 OFFCURVE",
"174 449 OFFCURVE",
"175 453 CURVE SMOOTH",
"177 458 OFFCURVE",
"178 462 OFFCURVE",
"179 466 CURVE",
"182 475 OFFCURVE",
"184 483 OFFCURVE",
"184 495 CURVE SMOOTH",
"184 506 OFFCURVE",
"177 522 OFFCURVE",
"161 522 CURVE SMOOTH",
"145 522 OFFCURVE",
"131 507 OFFCURVE",
"131 494 CURVE SMOOTH",
"131 472 LINE",
"102 327 OFFCURVE",
"82 220 OFFCURVE",
"69 152 CURVE SMOOTH",
"56 84 OFFCURVE",
"46 32 OFFCURVE",
"39 -5 CURVE SMOOTH",
"32 -42 OFFCURVE",
"22 -94 OFFCURVE",
"9 -162 CURVE SMOOTH",
"-4 -229 OFFCURVE",
"-21 -306 OFFCURVE",
"-43 -390 CURVE",
"-42 -403 OFFCURVE",
"-36 -410 OFFCURVE",
"-26 -410 CURVE SMOOTH"
);
},
{
closed = 1;
nodes = (
"135 34 OFFCURVE",
"116 60 OFFCURVE",
"116 111 CURVE SMOOTH",
"116 193 OFFCURVE",
"166 329 OFFCURVE",
"244 416 CURVE SMOOTH",
"271 446 OFFCURVE",
"296 462 OFFCURVE",
"317 462 CURVE SMOOTH",
"338 462 OFFCURVE",
"349 440 OFFCURVE",
"349 397 CURVE SMOOTH",
"349 374 OFFCURVE",
"347 349 OFFCURVE",
"344 323 CURVE SMOOTH",
"332 230 OFFCURVE",
"307 156 OFFCURVE",
"270 100 CURVE SMOOTH",
"240 56 OFFCURVE",
"208 34 OFFCURVE",
"173 34 CURVE SMOOTH"
);
}
);
width = 418;
}
);
leftKerningGroup = p;
note = p;
rightKerningGroup = o;
unicode = 0070;
},
{
color = 4;
glyphname = thorn;
lastChange = "2016-08-03 07:11:53 +0000";
layers = (
{
layerId = "79E705E9-1ED7-4818-9510-7FD15DA5A41F";
paths = (
{
closed = 1;
nodes = (
"-15 -414 OFFCURVE",
"0 -405 OFFCURVE",
"3 -390 CURVE SMOOTH",
"31 -241 OFFCURVE",
"61 -99 OFFCURVE",
"93 45 CURVE",
"110 1 OFFCURVE",
"138 -16 OFFCURVE",
"176 -16 CURVE SMOOTH",
"226 -16 OFFCURVE",
"269 5 OFFCURVE",
"304 48 CURVE SMOOTH",
"364 119 OFFCURVE",
"396 241 OFFCURVE",
"396 357 CURVE SMOOTH",
"396 416 OFFCURVE",
"352 509 OFFCURVE",
"293 509 CURVE SMOOTH",
"248 509 OFFCURVE",
"205 478 OFFCURVE",
"166 415 CURVE",
"166 418 OFFCURVE",
"238 759 OFFCURVE",
"240 767 CURVE",
"240 785 OFFCURVE",
"233 794 OFFCURVE",
"220 794 CURVE SMOOTH",
"204 794 OFFCURVE",
"199 788 OFFCURVE",
"193 770 CURVE",
"-32 -304 OFFCURVE",
"-43 -346 OFFCURVE",
"-43 -392 CURVE SMOOTH",
"-43 -407 OFFCURVE",
"-37 -414 OFFCURVE",
"-24 -414 CURVE SMOOTH"
);
},
{
closed = 1;
nodes = (
"150 28 OFFCURVE",
"102 66 OFFCURVE",
"117 135 CURVE",
"138 253 LINE",
"152 333 OFFCURVE",
"221 460 OFFCURVE",
"285 460 CURVE SMOOTH",
"322 460 OFFCURVE",
"350 405 OFFCURVE",
"350 327 CURVE SMOOTH",
"350 294 OFFCURVE",
"343 252 OFFCURVE",
"330 201 CURVE SMOOTH",
"303 99 OFFCURVE",
"244 28 OFFCURVE",
"189 28 CURVE SMOOTH"
);
}
);
width = 419;
}
);
leftKerningGroup = p;
note = thorn;
rightKerningGroup = o;
unicode = 00FE;
},
{
color = 4;
glyphname = q;
lastChange = "2016-08-03 07:12:19 +0000";
layers = (
{
anchors = (
{
name = bottom;
position = "{160, -405}";
},
{
name = top;
position = "{240, 505}";
}
);
layerId = "79E705E9-1ED7-4818-9510-7FD15DA5A41F";
paths = (
{
closed = 1;
nodes = (
"165 -412 OFFCURVE",
"173 -405 OFFCURVE",
"177 -392 CURVE",
"197 -301 OFFCURVE",
"211 -234 OFFCURVE",
"220 -191 CURVE SMOOTH",
"229 -149 OFFCURVE",
"237 -109 OFFCURVE",
"246 -70 CURVE SMOOTH",
"296 167 OFFCURVE",
"322 304 OFFCURVE",
"323 343 CURVE",
"329 353 OFFCURVE",
"332 361 OFFCURVE",
"333 367 CURVE",
"333 445 OFFCURVE",
"292 510 OFFCURVE",
"234 510 CURVE SMOOTH",
"184 510 OFFCURVE",
"142 483 OFFCURVE",
"108 429 CURVE SMOOTH",
"54 342 OFFCURVE",
"30 201 OFFCURVE",
"30 88 CURVE SMOOTH",
"30 37 OFFCURVE",
"55 -8 OFFCURVE",
"101 -8 CURVE SMOOTH",
"124 -8 OFFCURVE",
"143 0 OFFCURVE",
"159 14 CURVE SMOOTH",
"190 43 OFFCURVE",
"212 87 OFFCURVE",
"223 109 CURVE SMOOTH",
"229 120 OFFCURVE",
"234 129 OFFCURVE",
"240 138 CURVE",
"246 168 OFFCURVE",
"161 -243 OFFCURVE",
"150 -297 CURVE SMOOTH",
"146 -323 OFFCURVE",
"141 -345 OFFCURVE",
"138 -363 CURVE SMOOTH",
"134 -381 OFFCURVE",
"132 -393 OFFCURVE",
"132 -396 CURVE SMOOTH",
"132 -405 OFFCURVE",
"142 -412 OFFCURVE",
"152 -412 CURVE SMOOTH"
);
},
{
closed = 1;
nodes = (
"85 41 OFFCURVE",
"75 64 OFFCURVE",
"75 110 CURVE SMOOTH",
"75 235 OFFCURVE",
"138 464 OFFCURVE",
"234 464 CURVE SMOOTH",
"258 464 OFFCURVE",
"274 442 OFFCURVE",
"283 400 CURVE",
"280 397 LINE",
"275 389 OFFCURVE",
"273 377 OFFCURVE",
"272 363 CURVE SMOOTH",
"271 349 OFFCURVE",
"270 337 OFFCURVE",
"269 330 CURVE SMOOTH",
"265 287 OFFCURVE",
"153 41 OFFCURVE",
"106 41 CURVE SMOOTH"
);
}
);
width = 373;
}
);
leftKerningGroup = o;
note = q;
rightKerningGroup = q;
unicode = 0071;
},
{
color = 4;
glyphname = r;
lastChange = "2016-08-03 07:12:25 +0000";
layers = (
{
anchors = (
{
name = bottom;
position = "{61, 0}";
},
{
name = top;
position = "{272, 505}";
}
);
layerId = "79E705E9-1ED7-4818-9510-7FD15DA5A41F";
paths = (
{
closed = 1;
nodes = (
"74 -16 OFFCURVE",
"89 10 OFFCURVE",
"99 63 CURVE SMOOTH",
"129 176 OFFCURVE",
"164 355 OFFCURVE",
"278 438 CURVE SMOOTH",
"301 455 OFFCURVE",
"316 462 OFFCURVE",
"332 451 CURVE SMOOTH",
"352 441 OFFCURVE",
"377 450 OFFCURVE",
"377 471 CURVE SMOOTH",
"377 489 OFFCURVE",
"353 506 OFFCURVE",
"318 506 CURVE SMOOTH",
"295 506 OFFCURVE",
"272 496 OFFCURVE",
"250 477 CURVE SMOOTH",
"202 432 OFFCURVE",
"175 390 OFFCURVE",
"139 310 CURVE",
"157 374 OFFCURVE",
"160 390 OFFCURVE",
"169 421 CURVE SMOOTH",
"178 451 OFFCURVE",
"183 472 OFFCURVE",
"183 491 CURVE SMOOTH",
"183 509 OFFCURVE",
"175 514 OFFCURVE",
"162 514 CURVE SMOOTH",
"147 514 OFFCURVE",
"138 502 OFFCURVE",
"133 472 CURVE SMOOTH",
"130 454 OFFCURVE",
"74 180 OFFCURVE",
"63 121 CURVE SMOOTH",
"40 2 LINE",
"40 -10 OFFCURVE",
"45 -16 OFFCURVE",
"54 -16 CURVE SMOOTH"
);
}
);
width = 355;
}
);
leftKerningGroup = r;
note = r;
rightKerningGroup = r;
unicode = 0072;
},
{
color = 4;
glyphname = s;
lastChange = "2016-08-03 07:12:32 +0000";
layers = (
{
anchors = (
{
name = bottom;
position = "{122, 0}";
},
{
name = top;
position = "{226, 505}";
}
);
layerId = "79E705E9-1ED7-4818-9510-7FD15DA5A41F";
paths = (
{
closed = 1;
nodes = (
"117 -3 CURVE",
"193 6 OFFCURVE",
"235 58 OFFCURVE",
"235 125 CURVE SMOOTH",
"235 214 OFFCURVE",
"140 319 OFFCURVE",
"140 410 CURVE SMOOTH",
"140 448 OFFCURVE",
"156 467 OFFCURVE",
"189 467 CURVE SMOOTH",
"204 467 OFFCURVE",
"217 460 OFFCURVE",
"229 446 CURVE SMOOTH",
"237 436 OFFCURVE",
"243 425 OFFCURVE",
"255 425 CURVE SMOOTH",
"271 425 OFFCURVE",
"279 435 OFFCURVE",
"279 454 CURVE SMOOTH",
"279 492 OFFCURVE",
"228 517 OFFCURVE",
"189 517 CURVE SMOOTH",
"126 517 OFFCURVE",
"90 469 OFFCURVE",
"90 400 CURVE SMOOTH",
"90 366 OFFCURVE",
"106 318 OFFCURVE",
"140 257 CURVE SMOOTH",
"170 200 OFFCURVE",
"189 158 OFFCURVE",
"189 116 CURVE SMOOTH",
"189 82 OFFCURVE",
"161 49 OFFCURVE",
"116 49 CURVE SMOOTH",
"95 49 OFFCURVE",
"90 62 OFFCURVE",
"83 74 CURVE SMOOTH",
"75 87 OFFCURVE",
"68 99 OFFCURVE",
"55 99 CURVE SMOOTH",
"43 97 OFFCURVE",
"30 93 OFFCURVE",
"30 74 CURVE SMOOTH",
"30 38 OFFCURVE",
"68 -3 OFFCURVE"
);
}
);
width = 309;
}
);
leftKerningGroup = s;
leftMetricsKey = s;
note = s;
rightKerningGroup = s;
rightMetricsKey = s;
unicode = 0073;
},
{
color = 4;
glyphname = germandbls;
lastChange = "2016-08-02 02:49:13 +0000";
layers = (
{
layerId = "79E705E9-1ED7-4818-9510-7FD15DA5A41F";
paths = (
{
closed = 1;
nodes = (
"-47 -448 OFFCURVE",
"-29 -436 OFFCURVE",
"-24 -420 CURVE",
"-2 -306 OFFCURVE",
"41 -61 OFFCURVE",
"74 95 CURVE SMOOTH",
"162 513 OFFCURVE",
"292 922 OFFCURVE",
"477 922 CURVE SMOOTH",
"515 922 OFFCURVE",
"519 908 OFFCURVE",
"519 883 CURVE SMOOTH",
"519 824 OFFCURVE",
"340 618 OFFCURVE",
"248 567 CURVE",
"220 552 OFFCURVE",
"209 551 OFFCURVE",
"209 530 CURVE SMOOTH",
"209 521 OFFCURVE",
"215 517 OFFCURVE",
"226 516 CURVE",
"256 519 OFFCURVE",
"278 520 OFFCURVE",
"293 520 CURVE SMOOTH",
"361 520 OFFCURVE",
"382 439 OFFCURVE",
"382 336 CURVE SMOOTH",
"382 225 OFFCURVE",
"345 38 OFFCURVE",
"197 38 CURVE SMOOTH",
"148 38 OFFCURVE",
"145 65 OFFCURVE",
"127 96 CURVE",
"113 110 OFFCURVE",
"81 93 OFFCURVE",
"81 60 CURVE SMOOTH",
"81 23 OFFCURVE",
"139 -8 OFFCURVE",
"178 -8 CURVE SMOOTH",
"238 -8 OFFCURVE",
"287 10 OFFCURVE",
"326 46 CURVE SMOOTH",
"399 115 OFFCURVE",
"436 227 OFFCURVE",
"436 382 CURVE SMOOTH",
"436 456 OFFCURVE",
"397 540 OFFCURVE",
"305 564 CURVE",
"429 663 OFFCURVE",
"570 846 OFFCURVE",
"570 910 CURVE SMOOTH",
"570 948 OFFCURVE",
"546 967 OFFCURVE",
"499 967 CURVE SMOOTH",
"285 967 OFFCURVE",
"226 748 OFFCURVE",
"161 574 CURVE SMOOTH",
"128 487 OFFCURVE",
"90 354 OFFCURVE",
"48 175 CURVE SMOOTH",
"-13 -86 OFFCURVE",
"-72 -424 OFFCURVE",
"-72 -434 CURVE SMOOTH",
"-72 -443 OFFCURVE",
"-67 -448 OFFCURVE",
"-59 -448 CURVE SMOOTH"
);
}
);
width = 479;
}
);
note = germandbls;
unicode = 00DF;
},
{
color = 4;
glyphname = t;
lastChange = "2016-08-03 07:12:50 +0000";
layers = (
{
anchors = (
{
name = bottom;
position = "{114, 0}";
},
{
name = center;
position = "{170, 349}";
},
{
name = top;
position = "{167, 505}";
},
{
name = topright;
position = "{225, 536}";
}
);
layerId = "79E705E9-1ED7-4818-9510-7FD15DA5A41F";
paths = (
{
closed = 1;
nodes = (
"151 -4 OFFCURVE",
"168 0 OFFCURVE",
"179 9 CURVE SMOOTH",
"202 26 OFFCURVE",
"237 65 OFFCURVE",
"237 79 CURVE SMOOTH",
"237 92 OFFCURVE",
"230 99 OFFCURVE",
"217 99 CURVE SMOOTH",
"203 99 OFFCURVE",
"192 85 OFFCURVE",
"181 71 CURVE SMOOTH",
"169 57 OFFCURVE",
"155 43 OFFCURVE",
"135 43 CURVE SMOOTH",
"125 43 OFFCURVE",
"118 45 OFFCURVE",
"114 51 CURVE",
"108 59 OFFCURVE",
"105 76 OFFCURVE",
"105 102 CURVE SMOOTH",
"105 128 OFFCURVE",
"116 185 OFFCURVE",
"137 274 CURVE SMOOTH",
"158 364 OFFCURVE",
"172 424 OFFCURVE",
"178 457 CURVE",
"204 455 OFFCURVE",
"227 454 OFFCURVE",
"249 454 CURVE SMOOTH",
"292 454 OFFCURVE",
"313 457 OFFCURVE",
"313 479 CURVE SMOOTH",
"313 485 OFFCURVE",
"310 490 OFFCURVE",
"305 494 CURVE",
"299 498 OFFCURVE",
"283 500 OFFCURVE",
"258 500 CURVE SMOOTH",
"186 500 LINE",
"192 536 OFFCURVE",
"201 573 OFFCURVE",
"210 614 CURVE",
"210 620 LINE SMOOTH",
"210 632 OFFCURVE",
"205 638 OFFCURVE",
"194 638 CURVE SMOOTH",
"183 638 OFFCURVE",
"174 631 OFFCURVE",
"168 616 CURVE SMOOTH",
"154 586 OFFCURVE",
"147 543 OFFCURVE",
"145 524 CURVE SMOOTH",
"143 514 OFFCURVE",
"142 506 OFFCURVE",
"140 499 CURVE",
"68 501 LINE",
"52 499 OFFCURVE",
"41 484 OFFCURVE",
"41 472 CURVE SMOOTH",
"41 462 OFFCURVE",
"48 457 OFFCURVE",
"61 455 CURVE",
"81 458 OFFCURVE",
"105 460 OFFCURVE",
"133 460 CURVE",
"128 437 OFFCURVE",
"124 413 OFFCURVE",
"118 387 CURVE SMOOTH",
"112 361 OFFCURVE",
"107 341 OFFCURVE",
"104 325 CURVE SMOOTH",
"100 309 OFFCURVE",
"96 291 OFFCURVE",
"91 270 CURVE SMOOTH",
"86 249 OFFCURVE",
"81 224 OFFCURVE",
"74 196 CURVE",
"65 139 LINE SMOOTH",
"61 116 OFFCURVE",
"59 96 OFFCURVE",
"59 79 CURVE SMOOTH",
"59 13 OFFCURVE",
"86 -4 OFFCURVE",
"129 -4 CURVE SMOOTH"
);
}
);
width = 316;
}
);
leftKerningGroup = t;
note = t;
rightKerningGroup = t;
unicode = 0074;
},
{
color = 4;
glyphname = tbar;
lastChange = "2016-08-03 07:12:50 +0000";
layers = (
{
components = (
{
name = t;
}
);
layerId = "79E705E9-1ED7-4818-9510-7FD15DA5A41F";
paths = (
{
closed = 1;
nodes = (
"274 324 OFFCURVE",
"283 324 OFFCURVE",
"283 355 CURVE SMOOTH",
"283 363 OFFCURVE",
"277 370 OFFCURVE",
"265 370 CURVE SMOOTH",
"233 363 OFFCURVE",
"224 362 OFFCURVE",
"198 362 CURVE SMOOTH",
"168 362 OFFCURVE",
"154 367 OFFCURVE",
"128 370 CURVE SMOOTH",
"103 373 OFFCURVE",
"90 375 OFFCURVE",
"73 375 CURVE SMOOTH",
"39 375 OFFCURVE",
"13 364 OFFCURVE",
"13 343 CURVE SMOOTH",
"13 330 OFFCURVE",
"19 324 OFFCURVE",
"31 324 CURVE SMOOTH",
"34 324 LINE",
"87 333 OFFCURVE",
"97 324 OFFCURVE",
"141 324 CURVE SMOOTH"
);
}
);
width = 316;
}
);
leftKerningGroup = t;
rightKerningGroup = t;
unicode = 0167;
},
{
color = 4;
glyphname = u;
lastChange = "2016-08-03 07:12:57 +0000";
layers = (
{
anchors = (
{
name = bottom;
position = "{169, 0}";
},
{
name = ogonek;
position = "{278, 0}";
},
{
name = top;
position = "{274, 505}";
},
{
name = topright;
position = "{383, 484}";
}
);
layerId = "79E705E9-1ED7-4818-9510-7FD15DA5A41F";
paths = (
{
closed = 1;
nodes = (
"304 -24 OFFCURVE",
"324 -11 OFFCURVE",
"324 3 CURVE SMOOTH",
"324 25 OFFCURVE",
"306 17 OFFCURVE",
"306 53 CURVE",
"312 145 OFFCURVE",
"326 232 OFFCURVE",
"350 315 CURVE SMOOTH",
"361 357 OFFCURVE",
"400 443 OFFCURVE",
"400 465 CURVE SMOOTH",
"400 478 OFFCURVE",
"394 484 OFFCURVE",
"383 484 CURVE SMOOTH",
"345 484 OFFCURVE",
"248 267 OFFCURVE",
"229 226 CURVE SMOOTH",
"167 106 OFFCURVE",
"125 46 OFFCURVE",
"99 46 CURVE SMOOTH",
"90 46 OFFCURVE",
"86 59 OFFCURVE",
"86 86 CURVE SMOOTH",
"91 314 OFFCURVE",
"139 413 OFFCURVE",
"147 487 CURVE",
"144 498 OFFCURVE",
"138 504 OFFCURVE",
"130 504 CURVE SMOOTH",
"115 504 OFFCURVE",
"105 493 OFFCURVE",
"99 471 CURVE",
"83 410 LINE SMOOTH",
"55 294 OFFCURVE",
"40 190 OFFCURVE",
"40 99 CURVE SMOOTH",
"40 28 OFFCURVE",
"58 -8 OFFCURVE",
"94 -8 CURVE SMOOTH",
"157 -8 OFFCURVE",
"228 138 OFFCURVE",
"259 202 CURVE SMOOTH",
"272 231 OFFCURVE",
"285 259 OFFCURVE",
"299 286 CURVE",
"283 211 OFFCURVE",
"262 131 OFFCURVE",
"262 56 CURVE SMOOTH",
"262 3 OFFCURVE",
"272 -24 OFFCURVE",
"292 -24 CURVE SMOOTH"
);
}
);
width = 425;
}
);
leftKerningGroup = u;
note = u;
rightKerningGroup = u;
unicode = 0075;
},
{
color = 4;
glyphname = v;
lastChange = "2016-08-03 07:13:01 +0000";
layers = (
{
anchors = (
{
name = bottom;
position = "{145, 4}";
},
{
name = top;
position = "{197, 505}";
}
);
layerId = "79E705E9-1ED7-4818-9510-7FD15DA5A41F";
paths = (
{
closed = 1;
nodes = (
"136 -3 OFFCURVE",
"145 4 OFFCURVE",
"155 17 CURVE SMOOTH",
"186 58 OFFCURVE",
"213 100 OFFCURVE",
"237 143 CURVE SMOOTH",
"311 276 OFFCURVE",
"347 396 OFFCURVE",
"347 502 CURVE SMOOTH",
"347 609 OFFCURVE",
"301 666 OFFCURVE",
"208 673 CURVE",
"189 670 OFFCURVE",
"180 662 OFFCURVE",
"180 648 CURVE SMOOTH",
"180 636 OFFCURVE",
"187 634 OFFCURVE",
"206 631 CURVE SMOOTH",
"216 630 OFFCURVE",
"227 627 OFFCURVE",
"238 623 CURVE SMOOTH",
"279 607 OFFCURVE",
"300 564 OFFCURVE",
"300 494 CURVE SMOOTH",
"300 353 OFFCURVE",
"236 223 OFFCURVE",
"139 70 CURVE",
"130 150 OFFCURVE",
"121 226 OFFCURVE",
"111 296 CURVE SMOOTH",
"102 367 OFFCURVE",
"94 436 OFFCURVE",
"87 501 CURVE",
"84 512 OFFCURVE",
"78 518 OFFCURVE",
"68 518 CURVE SMOOTH",
"59 518 OFFCURVE",
"45 507 OFFCURVE",
"41 494 CURVE",
"54 396 OFFCURVE",
"64 313 OFFCURVE",
"72 245 CURVE SMOOTH",
"79 176 OFFCURVE",
"88 101 OFFCURVE",
"100 18 CURVE SMOOTH",
"102 4 OFFCURVE",
"111 -3 OFFCURVE",
"128 -3 CURVE SMOOTH"
);
}
);
width = 342;
}
);
leftKerningGroup = v;
note = v;
rightKerningGroup = v;
unicode = 0076;
},
{
color = 4;
glyphname = w;
lastChange = "2016-08-03 07:13:08 +0000";
layers = (
{
anchors = (
{
name = bottom;
position = "{241, 0}";
},
{
name = top;
position = "{305, 505}";
}
);
layerId = "79E705E9-1ED7-4818-9510-7FD15DA5A41F";
paths = (
{
closed = 1;
nodes = (
"389 -7 OFFCURVE",
"415 56 OFFCURVE",
"430 80 CURVE SMOOTH",
"512 183 OFFCURVE",
"570 288 OFFCURVE",
"570 385 CURVE SMOOTH",
"570 465 OFFCURVE",
"537 525 OFFCURVE",
"481 526 CURVE SMOOTH",
"466 525 OFFCURVE",
"453 512 OFFCURVE",
"453 500 CURVE SMOOTH",
"453 482 OFFCURVE",
"493 471 OFFCURVE",
"504 458 CURVE SMOOTH",
"571 374 OFFCURVE",
"476 216 OFFCURVE",
"381 85 CURVE",
"360 194 OFFCURVE",
"342 327 OFFCURVE",
"327 482 CURVE SMOOTH",
"325 497 OFFCURVE",
"320 505 OFFCURVE",
"305 505 CURVE SMOOTH",
"292 505 OFFCURVE",
"285 499 OFFCURVE",
"282 486 CURVE SMOOTH",
"262 386 OFFCURVE",
"180 185 OFFCURVE",
"150 100 CURVE",
"129 128 OFFCURVE",
"100 437 OFFCURVE",
"94 469 CURVE SMOOTH",
"89 492 OFFCURVE",
"78 501 OFFCURVE",
"66 501 CURVE SMOOTH",
"54 501 OFFCURVE",
"41 485 OFFCURVE",
"41 476 CURVE SMOOTH",
"41 479 OFFCURVE",
"59 375 OFFCURVE",
"74 258 CURVE SMOOTH",
"87 158 OFFCURVE",
"99 84 OFFCURVE",
"110 38 CURVE",
"110 11 OFFCURVE",
"117 -3 OFFCURVE",
"131 -3 CURVE SMOOTH",
"140 -3 OFFCURVE",
"147 1 OFFCURVE",
"154 10 CURVE",
"200 106 OFFCURVE",
"255 276 OFFCURVE",
"289 351 CURVE",
"296 289 OFFCURVE",
"311 197 OFFCURVE",
"334 75 CURVE SMOOTH",
"336 65 OFFCURVE",
"335 50 OFFCURVE",
"335 33 CURVE SMOOTH",
"335 6 OFFCURVE",
"343 -7 OFFCURVE",
"358 -7 CURVE SMOOTH"
);
}
);
width = 575;
}
);
leftKerningGroup = w;
leftMetricsKey = w;
note = w;
rightKerningGroup = w;
rightMetricsKey = w;
unicode = 0077;
},
{
color = 4;
glyphname = x;
lastChange = "2016-08-03 07:13:11 +0000";
layers = (
{
anchors = (
{
name = bottom;
position = "{125, 0}";
},
{
name = top;
position = "{203, 505}";
}
);
layerId = "79E705E9-1ED7-4818-9510-7FD15DA5A41F";
paths = (
{
closed = 1;
nodes = (
"271 -8 OFFCURVE",
"284 3 OFFCURVE",
"286 17 CURVE",
"286 29 OFFCURVE",
"283 42 OFFCURVE",
"275 56 CURVE SMOOTH",
"268 69 OFFCURVE",
"261 86 OFFCURVE",
"255 105 CURVE SMOOTH",
"249 125 OFFCURVE",
"227 179 OFFCURVE",
"191 267 CURVE",
"208 288 OFFCURVE",
"229 316 OFFCURVE",
"253 352 CURVE SMOOTH",
"278 387 OFFCURVE",
"296 413 OFFCURVE",
"309 428 CURVE SMOOTH",
"321 443 OFFCURVE",
"330 455 OFFCURVE",
"335 465 CURVE SMOOTH",
"338 471 OFFCURVE",
"340 479 OFFCURVE",
"340 487 CURVE SMOOTH",
"340 496 OFFCURVE",
"334 501 OFFCURVE",
"324 503 CURVE",
"320 503 OFFCURVE",
"315 502 OFFCURVE",
"310 500 CURVE",
"299 494 OFFCURVE",
"290 485 OFFCURVE",
"282 476 CURVE SMOOTH",
"274 466 OFFCURVE",
"257 441 OFFCURVE",
"230 403 CURVE SMOOTH",
"203 364 OFFCURVE",
"182 336 OFFCURVE",
"169 320 CURVE",
"165 330 OFFCURVE",
"161 340 OFFCURVE",
"158 350 CURVE SMOOTH",
"150 368 OFFCURVE",
"144 386 OFFCURVE",
"138 404 CURVE SMOOTH",
"131 422 OFFCURVE",
"126 438 OFFCURVE",
"123 456 CURVE SMOOTH",
"121 465 OFFCURVE",
"118 474 OFFCURVE",
"115 483 CURVE SMOOTH",
"109 500 OFFCURVE",
"101 515 OFFCURVE",
"85 515 CURVE SMOOTH",
"69 515 OFFCURVE",
"58 501 OFFCURVE",
"58 494 CURVE SMOOTH",
"58 489 OFFCURVE",
"59 484 OFFCURVE",
"62 478 CURVE",
"63 472 OFFCURVE",
"66 465 OFFCURVE",
"68 457 CURVE SMOOTH",
"71 448 OFFCURVE",
"74 439 OFFCURVE",
"77 431 CURVE",
"79 423 OFFCURVE",
"85 407 OFFCURVE",
"93 383 CURVE SMOOTH",
"102 359 OFFCURVE",
"109 338 OFFCURVE",
"115 320 CURVE SMOOTH",
"122 302 OFFCURVE",
"125 291 OFFCURVE",
"127 285 CURVE",
"129 280 OFFCURVE",
"131 274 OFFCURVE",
"133 270 CURVE",
"105 229 OFFCURVE",
"75 182 OFFCURVE",
"41 128 CURVE SMOOTH",
"7 74 OFFCURVE",
"-12 42 OFFCURVE",
"-19 33 CURVE SMOOTH",
"-25 23 OFFCURVE",
"-28 15 OFFCURVE",
"-28 9 CURVE SMOOTH",
"-28 -1 OFFCURVE",
"-21 -7 OFFCURVE",
"-9 -7 CURVE SMOOTH",
"3 -7 OFFCURVE",
"13 -2 OFFCURVE",
"19 8 CURVE SMOOTH",
"156 218 LINE",
"166 191 OFFCURVE",
"177 166 OFFCURVE",
"187 142 CURVE SMOOTH",
"197 118 OFFCURVE",
"206 97 OFFCURVE",
"211 80 CURVE SMOOTH",
"217 63 OFFCURVE",
"223 49 OFFCURVE",
"229 40 CURVE",
"234 29 OFFCURVE",
"238 19 OFFCURVE",
"239 8 CURVE",
"242 -2 OFFCURVE",
"247 -8 OFFCURVE",
"255 -8 CURVE SMOOTH"
);
}
);
width = 342;
}
);
leftKerningGroup = x;
note = x;
rightKerningGroup = x;
unicode = 0078;
},
{
color = 4;
glyphname = y;
lastChange = "2016-08-03 07:13:17 +0000";
layers = (
{
anchors = (
{
name = bottom;
position = "{350, 0}";
},
{
name = top;
position = "{254, 505}";
}
);
layerId = "79E705E9-1ED7-4818-9510-7FD15DA5A41F";
paths = (
{
closed = 1;
nodes = (
"200 -417 OFFCURVE",
"235 -238 OFFCURVE",
"273 -30 CURVE",
"306 -5 OFFCURVE",
"340 23 OFFCURVE",
"377 56 CURVE",
"382 63 OFFCURVE",
"385 69 OFFCURVE",
"385 76 CURVE SMOOTH",
"385 87 OFFCURVE",
"378 93 OFFCURVE",
"366 93 CURVE SMOOTH",
"354 93 OFFCURVE",
"339 77 OFFCURVE",
"319 57 CURVE SMOOTH",
"309 47 OFFCURVE",
"297 36 OFFCURVE",
"284 25 CURVE",
"294 72 OFFCURVE",
"314 161 OFFCURVE",
"344 289 CURVE SMOOTH",
"373 417 OFFCURVE",
"387 485 OFFCURVE",
"387 493 CURVE SMOOTH",
"387 501 OFFCURVE",
"382 505 OFFCURVE",
"371 505 CURVE SMOOTH",
"360 505 OFFCURVE",
"352 501 OFFCURVE",
"347 493 CURVE SMOOTH",
"341 485 OFFCURVE",
"335 466 OFFCURVE",
"328 437 CURVE SMOOTH",
"313 378 OFFCURVE",
"270 189 OFFCURVE",
"213 104 CURVE SMOOTH",
"185 62 OFFCURVE",
"158 40 OFFCURVE",
"132 40 CURVE SMOOTH",
"120 40 OFFCURVE",
"110 44 OFFCURVE",
"102 53 CURVE SMOOTH",
"93 62 OFFCURVE",
"89 83 OFFCURVE",
"89 118 CURVE SMOOTH",
"89 151 OFFCURVE",
"101 219 OFFCURVE",
"126 319 CURVE SMOOTH",
"151 419 OFFCURVE",
"163 475 OFFCURVE",
"163 487 CURVE SMOOTH",
"163 500 OFFCURVE",
"157 507 OFFCURVE",
"144 507 CURVE SMOOTH",
"131 507 OFFCURVE",
"120 500 OFFCURVE",
"111 488 CURVE SMOOTH",
"108 484 OFFCURVE",
"107 478 OFFCURVE",
"109 468 CURVE",
"109 463 OFFCURVE",
"101 431 OFFCURVE",
"85 371 CURVE SMOOTH",
"53 250 OFFCURVE",
"37 162 OFFCURVE",
"37 106 CURVE SMOOTH",
"37 34 OFFCURVE",
"73 -8 OFFCURVE",
"122 -8 CURVE SMOOTH",
"147 -8 OFFCURVE",
"173 7 OFFCURVE",
"200 38 CURVE SMOOTH",
"241 83 OFFCURVE",
"275 147 OFFCURVE",
"303 229 CURVE",
"300 216 OFFCURVE",
"287 175 OFFCURVE",
"266 107 CURVE SMOOTH",
"245 39 OFFCURVE",
"232 -3 OFFCURVE",
"229 -17 CURVE",
"88 -123 OFFCURVE",
"192 -43 OFFCURVE",
"82 -123 CURVE SMOOTH",
"50 -146 OFFCURVE",
"22 -169 OFFCURVE",
"2 -198 CURVE SMOOTH",
"-18 -227 OFFCURVE",
"-31 -260 OFFCURVE",
"-31 -307 CURVE SMOOTH",
"-31 -354 OFFCURVE",
"8 -417 OFFCURVE",
"76 -417 CURVE SMOOTH"
);
},
{
closed = 1;
nodes = (
"64 -369 OFFCURVE",
"54 -366 OFFCURVE",
"47 -360 CURVE SMOOTH",
"29 -345 OFFCURVE",
"20 -324 OFFCURVE",
"20 -297 CURVE SMOOTH",
"20 -210 OFFCURVE",
"93 -163 OFFCURVE",
"141 -130 CURVE SMOOTH",
"165 -114 OFFCURVE",
"190 -96 OFFCURVE",
"217 -75 CURVE",
"204 -140 LINE",
"201 -150 OFFCURVE",
"186 -210 OFFCURVE",
"181 -228 CURVE SMOOTH",
"161 -294 OFFCURVE",
"128 -369 OFFCURVE",
"77 -369 CURVE SMOOTH"
);
}
);
width = 420;
}
);
leftKerningGroup = y;
note = y;
rightKerningGroup = y;
unicode = 0079;
},
{
color = 4;
glyphname = z;
lastChange = "2016-08-03 07:13:23 +0000";
layers = (
{
anchors = (
{
name = bottom;
position = "{200, 0}";
},
{
name = top;
position = "{242, 505}";
}
);
layerId = "79E705E9-1ED7-4818-9510-7FD15DA5A41F";
paths = (
{
closed = 1;
nodes = (
"300 -11 OFFCURVE",
"348 29 OFFCURVE",
"348 95 CURVE SMOOTH",
"348 119 OFFCURVE",
"334 163 OFFCURVE",
"309 163 CURVE SMOOTH",
"294 163 OFFCURVE",
"282 146 OFFCURVE",
"282 135 CURVE SMOOTH",
"282 117 OFFCURVE",
"300 104 OFFCURVE",
"300 88 CURVE SMOOTH",
"300 51 OFFCURVE",
"268 33 OFFCURVE",
"203 33 CURVE SMOOTH",
"157 33 OFFCURVE",
"146 60 OFFCURVE",
"78 60 CURVE",
"178 197 OFFCURVE",
"241 275 OFFCURVE",
"338 407 CURVE SMOOTH",
"360 437 OFFCURVE",
"389 468 OFFCURVE",
"389 481 CURVE SMOOTH",
"389 485 OFFCURVE",
"389 488 OFFCURVE",
"389 490 CURVE",
"388 497 OFFCURVE",
"379 500 OFFCURVE",
"362 500 CURVE SMOOTH",
"147 501 LINE",
"105 504 LINE",
"82 504 OFFCURVE",
"71 496 OFFCURVE",
"71 480 CURVE SMOOTH",
"71 463 OFFCURVE",
"86 455 OFFCURVE",
"116 455 CURVE SMOOTH",
"200 460 LINE",
"320 455 LINE",
"292 420 OFFCURVE",
"50 101 OFFCURVE",
"-5 29 CURVE",
"-16 10 OFFCURVE",
"-12 -6 OFFCURVE",
"7 -6 CURVE SMOOTH",
"13 -6 OFFCURVE",
"23 -1 OFFCURVE",
"38 8 CURVE SMOOTH",
"53 17 OFFCURVE",
"65 21 OFFCURVE",
"75 21 CURVE SMOOTH",
"94 21 OFFCURVE",
"108 15 OFFCURVE",
"148 0 CURVE SMOOTH",
"168 -7 OFFCURVE",
"189 -11 OFFCURVE",
"212 -11 CURVE SMOOTH"
);
}
);
width = 399;
}
);
leftKerningGroup = z;
note = z;
rightKerningGroup = z;
unicode = 007A;
},
{
color = 4;
glyphname = k.alt;
lastChange = "2016-08-03 07:13:26 +0000";
layers = (
{
layerId = "79E705E9-1ED7-4818-9510-7FD15DA5A41F";
paths = (
{
closed = 1;
nodes = (
"535 -201 OFFCURVE",
"584 -191 OFFCURVE",
"626 -171 CURVE SMOOTH",
"649 -161 OFFCURVE",
"660 -150 OFFCURVE",
"660 -139 CURVE SMOOTH",
"660 -127 OFFCURVE",
"650 -117 OFFCURVE",
"644 -117 CURVE SMOOTH",
"640 -117 OFFCURVE",
"637 -118 OFFCURVE",
"634 -119 CURVE",
"591 -142 OFFCURVE",
"543 -154 OFFCURVE",
"492 -154 CURVE SMOOTH",
"440 -154 OFFCURVE",
"392 -134 OFFCURVE",
"346 -96 CURVE SMOOTH",
"280 -41 OFFCURVE",
"214 63 OFFCURVE",
"150 215 CURVE",
"214 254 OFFCURVE",
"257 285 OFFCURVE",
"279 307 CURVE SMOOTH",
"316 342 OFFCURVE",
"334 380 OFFCURVE",
"334 421 CURVE SMOOTH",
"334 466 OFFCURVE",
"317 510 OFFCURVE",
"264 510 CURVE SMOOTH",
"237 510 OFFCURVE",
"210 496 OFFCURVE",
"183 467 CURVE",
"186 480 OFFCURVE",
"190 499 OFFCURVE",
"195 521 CURVE SMOOTH",
"200 543 OFFCURVE",
"205 568 OFFCURVE",
"211 595 CURVE SMOOTH",
"216 622 OFFCURVE",
"229 682 OFFCURVE",
"250 775 CURVE SMOOTH",
"270 868 OFFCURVE",
"279 920 OFFCURVE",
"279 932 CURVE SMOOTH",
"279 953 OFFCURVE",
"268 964 OFFCURVE",
"246 964 CURVE SMOOTH",
"238 964 OFFCURVE",
"229 936 OFFCURVE",
"220 880 CURVE SMOOTH",
"180 646 OFFCURVE",
"138 478 OFFCURVE",
"78 224 CURVE SMOOTH",
"47 98 OFFCURVE",
"32 25 OFFCURVE",
"32 6 CURVE SMOOTH",
"32 2 LINE SMOOTH",
"32 0 OFFCURVE",
"34 -3 OFFCURVE",
"39 -7 CURVE SMOOTH",
"43 -10 OFFCURVE",
"50 -12 OFFCURVE",
"60 -12 CURVE SMOOTH",
"72 -12 OFFCURVE",
"80 -4 OFFCURVE",
"83 13 CURVE SMOOTH",
"85 23 OFFCURVE",
"88 36 OFFCURVE",
"92 51 CURVE SMOOTH",
"105 114 LINE SMOOTH",
"111 140 OFFCURVE",
"115 162 OFFCURVE",
"117 180 CURVE",
"138 122 OFFCURVE",
"166 64 OFFCURVE",
"201 7 CURVE SMOOTH",
"270 -108 OFFCURVE",
"372 -201 OFFCURVE",
"481 -201 CURVE SMOOTH"
);
},
{
closed = 1;
nodes = (
"138 281 LINE SMOOTH",
"142 302 OFFCURVE",
"146 317 OFFCURVE",
"147 327 CURVE SMOOTH",
"164 419 OFFCURVE",
"202 464 OFFCURVE",
"253 464 CURVE SMOOTH",
"273 464 OFFCURVE",
"283 449 OFFCURVE",
"283 420 CURVE SMOOTH",
"283 391 OFFCURVE",
"273 364 OFFCURVE",
"253 341 CURVE SMOOTH",
"212 294 OFFCURVE",
"167 268 OFFCURVE",
"150 257 CURVE SMOOTH",
"141 252 OFFCURVE",
"134 249 OFFCURVE",
"131 246 CURVE"
);
}
);
width = 366;
}
);
leftKerningGroup = k;
note = k.alt;
rightKerningGroup = k;
},
{
color = 4;
glyphname = w.fina;
lastChange = "2016-08-03 07:13:31 +0000";
layers = (
{
layerId = "79E705E9-1ED7-4818-9510-7FD15DA5A41F";
paths = (
{
closed = 1;
nodes = (
"375 -7 OFFCURVE",
"394 13 OFFCURVE",
"415 53 CURVE SMOOTH",
"420 63 OFFCURVE",
"425 72 OFFCURVE",
"430 80 CURVE SMOOTH",
"514 205 OFFCURVE",
"574 338 OFFCURVE",
"574 475 CURVE SMOOTH",
"574 515 OFFCURVE",
"566 550 OFFCURVE",
"551 579 CURVE SMOOTH",
"520 638 OFFCURVE",
"459 669 OFFCURVE",
"443 669 CURVE SMOOTH",
"428 669 OFFCURVE",
"415 656 OFFCURVE",
"415 643 CURVE SMOOTH",
"415 626 OFFCURVE",
"450 610 OFFCURVE",
"466 601 CURVE SMOOTH",
"473 597 OFFCURVE",
"479 592 OFFCURVE",
"484 587 CURVE SMOOTH",
"515 554 OFFCURVE",
"530 514 OFFCURVE",
"530 467 CURVE SMOOTH",
"530 372 OFFCURVE",
"480 245 OFFCURVE",
"381 85 CURVE",
"360 194 OFFCURVE",
"342 327 OFFCURVE",
"327 482 CURVE SMOOTH",
"325 497 OFFCURVE",
"320 505 OFFCURVE",
"305 505 CURVE SMOOTH",
"292 505 OFFCURVE",
"285 499 OFFCURVE",
"282 486 CURVE SMOOTH",
"272 435 OFFCURVE",
"241 339 OFFCURVE",
"187 198 CURVE SMOOTH",
"173 164 OFFCURVE",
"161 131 OFFCURVE",
"150 100 CURVE",
"147 105 OFFCURVE",
"141 146 OFFCURVE",
"130 222 CURVE SMOOTH",
"120 297 OFFCURVE",
"112 354 OFFCURVE",
"106 394 CURVE SMOOTH",
"100 432 OFFCURVE",
"96 458 OFFCURVE",
"94 469 CURVE SMOOTH",
"89 492 OFFCURVE",
"78 501 OFFCURVE",
"66 501 CURVE SMOOTH",
"54 501 OFFCURVE",
"41 485 OFFCURVE",
"41 476 CURVE SMOOTH",
"41 471 OFFCURVE",
"43 458 OFFCURVE",
"48 438 CURVE SMOOTH",
"52 418 OFFCURVE",
"61 358 OFFCURVE",
"74 258 CURVE SMOOTH",
"87 158 OFFCURVE",
"99 84 OFFCURVE",
"110 38 CURVE",
"110 11 OFFCURVE",
"117 -3 OFFCURVE",
"131 -3 CURVE SMOOTH",
"140 -3 OFFCURVE",
"147 1 OFFCURVE",
"154 10 CURVE",
"175 54 OFFCURVE",
"200 117 OFFCURVE",
"230 197 CURVE SMOOTH",
"260 278 OFFCURVE",
"279 329 OFFCURVE",
"289 351 CURVE",
"296 289 OFFCURVE",
"311 197 OFFCURVE",
"334 75 CURVE SMOOTH",
"336 62 OFFCURVE",
"337 53 OFFCURVE",
"336 48 CURVE",
"335 43 OFFCURVE",
"335 38 OFFCURVE",
"335 33 CURVE SMOOTH",
"335 6 OFFCURVE",
"343 -7 OFFCURVE",
"358 -7 CURVE SMOOTH"
);
}
);
width = 600;
}
);
leftKerningGroup = w;
rightKerningGroup = w;
},
{
color = 4;
glyphname = f_f;
lastChange = "2016-08-03 07:13:39 +0000";
layers = (
{
background = {
paths = (
{
closed = 1;
nodes = (
"-144 -411 OFFCURVE",
"-86 -394 OFFCURVE",
"-43 -358 CURVE SMOOTH",
"27 -301 OFFCURVE",
"73 -201 OFFCURVE",
"96 -59 CURVE SMOOTH",
"115 56 OFFCURVE",
"150 312 OFFCURVE",
"176 454 CURVE",
"192 454 OFFCURVE",
"476 456 OFFCURVE",
"485 457 CURVE SMOOTH",
"517 461 OFFCURVE",
"533 465 OFFCURVE",
"533 481 CURVE SMOOTH",
"533 494 OFFCURVE",
"524 500 OFFCURVE",
"505 500 CURVE",
"186 500 LINE",
"211 670 OFFCURVE",
"280 800 OFFCURVE",
"377 800 CURVE SMOOTH",
"405 800 OFFCURVE",
"430 800 OFFCURVE",
"457 795 CURVE",
"470 804 OFFCURVE",
"477 813 OFFCURVE",
"477 824 CURVE SMOOTH",
"477 844 OFFCURVE",
"449 854 OFFCURVE",
"394 854 CURVE SMOOTH",
"237 854 OFFCURVE",
"190 716 OFFCURVE",
"137 500 CURVE",
"36 500 OFFCURVE",
"14 500 OFFCURVE",
"14 472 CURVE SMOOTH",
"14 461 OFFCURVE",
"21 455 OFFCURVE",
"34 454 CURVE",
"127 456 LINE",
"106 319 OFFCURVE",
"58 -50 OFFCURVE",
"19 -164 CURVE SMOOTH",
"-19 -274 OFFCURVE",
"-85 -363 OFFCURVE",
"-211 -363 CURVE SMOOTH",
"-273 -363 OFFCURVE",
"-297 -356 OFFCURVE",
"-371 -303 CURVE",
"-394 -302 OFFCURVE",
"-406 -312 OFFCURVE",
"-406 -324 CURVE SMOOTH",
"-406 -362 OFFCURVE",
"-289 -411 OFFCURVE",
"-215 -411 CURVE SMOOTH"
);
}
);
};
components = (
{
name = f;
transform = "{1, 0, 0, 1, 342, 0}";
}
);
layerId = "79E705E9-1ED7-4818-9510-7FD15DA5A41F";
paths = (
{
closed = 1;
nodes = (
"-144 -411 OFFCURVE",
"-86 -394 OFFCURVE",
"-43 -358 CURVE SMOOTH",
"27 -301 OFFCURVE",
"73 -201 OFFCURVE",
"96 -59 CURVE SMOOTH",
"115 56 OFFCURVE",
"150 312 OFFCURVE",
"176 454 CURVE",
"192 454 OFFCURVE",
"476 456 OFFCURVE",
"485 457 CURVE SMOOTH",
"517 461 OFFCURVE",
"533 465 OFFCURVE",
"533 481 CURVE SMOOTH",
"533 494 OFFCURVE",
"524 500 OFFCURVE",
"505 500 CURVE",
"186 500 LINE",
"211 670 OFFCURVE",
"280 800 OFFCURVE",
"377 800 CURVE SMOOTH",
"405 800 OFFCURVE",
"430 800 OFFCURVE",
"457 795 CURVE",
"470 804 OFFCURVE",
"477 813 OFFCURVE",
"477 824 CURVE SMOOTH",
"477 844 OFFCURVE",
"449 854 OFFCURVE",
"394 854 CURVE SMOOTH",
"237 854 OFFCURVE",
"190 716 OFFCURVE",
"137 500 CURVE",
"36 500 OFFCURVE",
"14 500 OFFCURVE",
"14 472 CURVE SMOOTH",
"14 461 OFFCURVE",
"21 455 OFFCURVE",
"34 454 CURVE",
"127 456 LINE",
"106 319 OFFCURVE",
"58 -50 OFFCURVE",
"19 -164 CURVE SMOOTH",
"-19 -274 OFFCURVE",
"-85 -363 OFFCURVE",
"-211 -363 CURVE SMOOTH",
"-273 -363 OFFCURVE",
"-297 -356 OFFCURVE",
"-371 -303 CURVE",
"-394 -302 OFFCURVE",
"-406 -312 OFFCURVE",
"-406 -324 CURVE SMOOTH",
"-406 -362 OFFCURVE",
"-289 -411 OFFCURVE",
"-215 -411 CURVE SMOOTH"
);
}
);
width = 684;
}
);
leftKerningGroup = f;
leftMetricsKey = f;
rightKerningGroup = f;
rightMetricsKey = f;
},
{
color = 4;
glyphname = f_f_i;
lastChange = "2016-08-03 07:13:45 +0000";
layers = (
{
background = {
components = (
{
name = f_f;
transform = "{1, 0, 0, 1, -7, 0}";
}
);
};
components = (
{
name = fi;
transform = "{1, 0, 0, 1, 343, 0}";
}
);
layerId = "79E705E9-1ED7-4818-9510-7FD15DA5A41F";
paths = (
{
closed = 1;
nodes = (
"-144 -411 OFFCURVE",
"-86 -394 OFFCURVE",
"-43 -358 CURVE SMOOTH",
"26 -300 OFFCURVE",
"73 -201 OFFCURVE",
"96 -59 CURVE SMOOTH",
"115 56 OFFCURVE",
"150 312 OFFCURVE",
"176 454 CURVE",
"192 454 OFFCURVE",
"476 456 OFFCURVE",
"485 457 CURVE SMOOTH",
"517 461 OFFCURVE",
"533 465 OFFCURVE",
"533 481 CURVE SMOOTH",
"533 494 OFFCURVE",
"524 500 OFFCURVE",
"505 500 CURVE",
"186 500 LINE",
"211 670 OFFCURVE",
"280 800 OFFCURVE",
"377 800 CURVE SMOOTH",
"405 800 OFFCURVE",
"430 800 OFFCURVE",
"457 795 CURVE",
"470 804 OFFCURVE",
"477 813 OFFCURVE",
"477 824 CURVE SMOOTH",
"477 844 OFFCURVE",
"449 854 OFFCURVE",
"394 854 CURVE SMOOTH",
"237 854 OFFCURVE",
"190 716 OFFCURVE",
"137 500 CURVE",
"36 500 OFFCURVE",
"14 500 OFFCURVE",
"14 472 CURVE SMOOTH",
"14 461 OFFCURVE",
"21 455 OFFCURVE",
"34 454 CURVE",
"127 456 LINE",
"106 319 OFFCURVE",
"58 -50 OFFCURVE",
"19 -164 CURVE SMOOTH",
"-19 -274 OFFCURVE",
"-85 -363 OFFCURVE",
"-211 -363 CURVE SMOOTH",
"-273 -363 OFFCURVE",
"-297 -356 OFFCURVE",
"-371 -303 CURVE",
"-394 -302 OFFCURVE",
"-406 -312 OFFCURVE",
"-406 -324 CURVE SMOOTH",
"-406 -362 OFFCURVE",
"-289 -411 OFFCURVE",
"-215 -411 CURVE SMOOTH"
);
}
);
width = 869;
}
);
leftKerningGroup = f;
leftMetricsKey = f;
rightKerningGroup = i;
rightMetricsKey = i;
},
{
color = 4;
glyphname = f_f_l;
lastChange = "2016-08-03 07:13:49 +0000";
layers = (
{
components = (
{
name = fl;
transform = "{1, 0, 0, 1, 350, 0}";
}
);
layerId = "79E705E9-1ED7-4818-9510-7FD15DA5A41F";
paths = (
{
closed = 1;
nodes = (
"-144 -411 OFFCURVE",
"-86 -394 OFFCURVE",
"-43 -358 CURVE SMOOTH",
"26 -300 OFFCURVE",
"73 -201 OFFCURVE",
"96 -59 CURVE SMOOTH",
"115 56 OFFCURVE",
"150 312 OFFCURVE",
"176 454 CURVE",
"192 454 OFFCURVE",
"476 456 OFFCURVE",
"485 457 CURVE SMOOTH",
"517 461 OFFCURVE",
"533 465 OFFCURVE",
"533 481 CURVE SMOOTH",
"533 494 OFFCURVE",
"524 500 OFFCURVE",
"505 500 CURVE",
"186 500 LINE",
"211 670 OFFCURVE",
"280 800 OFFCURVE",
"377 800 CURVE SMOOTH",
"405 800 OFFCURVE",
"430 800 OFFCURVE",
"457 795 CURVE",
"470 804 OFFCURVE",
"477 813 OFFCURVE",
"477 824 CURVE SMOOTH",
"477 844 OFFCURVE",
"449 854 OFFCURVE",
"394 854 CURVE SMOOTH",
"237 854 OFFCURVE",
"190 716 OFFCURVE",
"137 500 CURVE",
"36 500 OFFCURVE",
"14 500 OFFCURVE",
"14 472 CURVE SMOOTH",
"14 461 OFFCURVE",
"21 455 OFFCURVE",
"34 454 CURVE",
"127 456 LINE",
"106 319 OFFCURVE",
"58 -50 OFFCURVE",
"19 -164 CURVE SMOOTH",
"-19 -274 OFFCURVE",
"-85 -363 OFFCURVE",
"-211 -363 CURVE SMOOTH",
"-273 -363 OFFCURVE",
"-297 -356 OFFCURVE",
"-371 -303 CURVE",
"-394 -302 OFFCURVE",
"-406 -312 OFFCURVE",
"-406 -324 CURVE SMOOTH",
"-406 -362 OFFCURVE",
"-289 -411 OFFCURVE",
"-215 -411 CURVE SMOOTH"
);
}
);
width = 953;
}
);
leftKerningGroup = f;
leftMetricsKey = f;
rightKerningGroup = l;
rightMetricsKey = l;
},
{
color = 4;
glyphname = fi;
lastChange = "2016-08-03 07:13:53 +0000";
layers = (
{
anchors = (
{
name = bottom;
position = "{171, 0}";
},
{
name = top;
position = "{209, 844}";
}
);
background = {
paths = (
{
closed = 1;
nodes = (
"-144 -411 OFFCURVE",
"-86 -394 OFFCURVE",
"-43 -358 CURVE SMOOTH",
"27 -301 OFFCURVE",
"73 -201 OFFCURVE",
"96 -59 CURVE SMOOTH",
"115 56 OFFCURVE",
"150 312 OFFCURVE",
"176 454 CURVE",
"192 454 OFFCURVE",
"433 464 OFFCURVE",
"442 465 CURVE SMOOTH",
"454 466 OFFCURVE",
"470 475 OFFCURVE",
"470 491 CURVE SMOOTH",
"470 493 OFFCURVE",
"471 519 OFFCURVE",
"452 519 CURVE",
"186 500 LINE",
"211 670 OFFCURVE",
"280 800 OFFCURVE",
"377 800 CURVE SMOOTH",
"405 800 OFFCURVE",
"430 800 OFFCURVE",
"457 795 CURVE",
"470 804 OFFCURVE",
"477 813 OFFCURVE",
"477 824 CURVE SMOOTH",
"477 844 OFFCURVE",
"449 854 OFFCURVE",
"394 854 CURVE SMOOTH",
"237 854 OFFCURVE",
"190 716 OFFCURVE",
"137 500 CURVE",
"36 500 OFFCURVE",
"14 500 OFFCURVE",
"14 472 CURVE SMOOTH",
"14 461 OFFCURVE",
"21 455 OFFCURVE",
"34 454 CURVE",
"127 456 LINE",
"106 319 OFFCURVE",
"58 -50 OFFCURVE",
"19 -164 CURVE SMOOTH",
"-19 -274 OFFCURVE",
"-85 -363 OFFCURVE",
"-211 -363 CURVE SMOOTH",
"-273 -363 OFFCURVE",
"-297 -356 OFFCURVE",
"-371 -303 CURVE",
"-394 -302 OFFCURVE",
"-406 -312 OFFCURVE",
"-406 -324 CURVE SMOOTH",
"-406 -362 OFFCURVE",
"-289 -411 OFFCURVE",
"-215 -411 CURVE SMOOTH"
);
}
);
};
components = (
{
name = idotless;
transform = "{1, 0, 0, 1, 312, 0}";
},
{
name = dotaccentcomb;
transform = "{1, 0, 0, -1, 371, 1414}";
}
);
layerId = "79E705E9-1ED7-4818-9510-7FD15DA5A41F";
paths = (
{
closed = 1;
nodes = (
"-144 -411 OFFCURVE",
"-86 -394 OFFCURVE",
"-43 -358 CURVE SMOOTH",
"27 -301 OFFCURVE",
"73 -201 OFFCURVE",
"96 -59 CURVE SMOOTH",
"115 56 OFFCURVE",
"150 312 OFFCURVE",
"176 454 CURVE",
"192 454 OFFCURVE",
"433 464 OFFCURVE",
"442 465 CURVE SMOOTH",
"454 466 OFFCURVE",
"470 475 OFFCURVE",
"470 491 CURVE SMOOTH",
"470 493 OFFCURVE",
"471 519 OFFCURVE",
"452 519 CURVE",
"186 500 LINE",
"211 670 OFFCURVE",
"290 802 OFFCURVE",
"391 802 CURVE SMOOTH",
"425 802 OFFCURVE",
"441 798 OFFCURVE",
"467 779 CURVE",
"518 781 LINE",
"517 822 OFFCURVE",
"477 854 OFFCURVE",
"394 854 CURVE SMOOTH",
"237 854 OFFCURVE",
"190 716 OFFCURVE",
"137 500 CURVE",
"36 500 OFFCURVE",
"14 500 OFFCURVE",
"14 472 CURVE SMOOTH",
"14 461 OFFCURVE",
"21 455 OFFCURVE",
"34 454 CURVE",
"127 456 LINE",
"106 319 OFFCURVE",
"58 -50 OFFCURVE",
"19 -164 CURVE SMOOTH",
"-19 -274 OFFCURVE",
"-85 -363 OFFCURVE",
"-211 -363 CURVE SMOOTH",
"-273 -363 OFFCURVE",
"-297 -356 OFFCURVE",
"-371 -303 CURVE",
"-394 -302 OFFCURVE",
"-406 -312 OFFCURVE",
"-406 -324 CURVE SMOOTH",
"-406 -362 OFFCURVE",
"-289 -411 OFFCURVE",
"-215 -411 CURVE SMOOTH"
);
}
);
width = 526;
}
);
leftKerningGroup = f;
leftMetricsKey = f;
rightKerningGroup = i;
rightMetricsKey = i;
unicode = FB01;
},
{
color = 4;
glyphname = fl;
lastChange = "2016-08-03 07:13:57 +0000";
layers = (
{
layerId = "79E705E9-1ED7-4818-9510-7FD15DA5A41F";
paths = (
{
closed = 1;
nodes = (
"-144 -411 OFFCURVE",
"-86 -394 OFFCURVE",
"-43 -358 CURVE SMOOTH",
"26 -300 OFFCURVE",
"73 -201 OFFCURVE",
"96 -59 CURVE SMOOTH",
"115 56 OFFCURVE",
"150 312 OFFCURVE",
"176 454 CURVE",
"192 454 OFFCURVE",
"327 456 OFFCURVE",
"336 457 CURVE SMOOTH",
"360 460 OFFCURVE",
"376 465 OFFCURVE",
"376 481 CURVE SMOOTH",
"376 494 OFFCURVE",
"367 500 OFFCURVE",
"348 500 CURVE",
"186 500 LINE",
"231 719 OFFCURVE",
"356 879 OFFCURVE",
"570 839 CURVE",
"583 848 OFFCURVE",
"590 849 OFFCURVE",
"592 859 CURVE SMOOTH",
"600 899 OFFCURVE",
"562 898 OFFCURVE",
"507 898 CURVE SMOOTH",
"281 898 OFFCURVE",
"213 743 OFFCURVE",
"137 500 CURVE",
"36 500 OFFCURVE",
"14 500 OFFCURVE",
"14 472 CURVE SMOOTH",
"14 461 OFFCURVE",
"21 455 OFFCURVE",
"34 454 CURVE",
"127 456 LINE",
"106 319 OFFCURVE",
"58 -50 OFFCURVE",
"19 -164 CURVE SMOOTH",
"-19 -274 OFFCURVE",
"-85 -363 OFFCURVE",
"-201 -363 CURVE SMOOTH",
"-273 -363 OFFCURVE",
"-297 -356 OFFCURVE",
"-371 -303 CURVE",
"-394 -302 OFFCURVE",
"-406 -312 OFFCURVE",
"-406 -324 CURVE SMOOTH",
"-406 -362 OFFCURVE",
"-289 -411 OFFCURVE",
"-215 -411 CURVE SMOOTH"
);
},
{
closed = 1;
nodes = (
"509 -8 OFFCURVE",
"555 9 OFFCURVE",
"555 39 CURVE SMOOTH",
"555 55 OFFCURVE",
"544 61 OFFCURVE",
"534 61 CURVE SMOOTH",
"507 61 OFFCURVE",
"504 34 OFFCURVE",
"462 34 CURVE SMOOTH",
"445 34 OFFCURVE",
"432 46 OFFCURVE",
"432 74 CURVE SMOOTH",
"432 126 OFFCURVE",
"531 591 OFFCURVE",
"566 752 CURVE",
"592 859 LINE",
"592 874 OFFCURVE",
"585 882 OFFCURVE",
"571 882 CURVE SMOOTH",
"559 882 OFFCURVE",
"552 876 OFFCURVE",
"549 866 CURVE",
"522 767 OFFCURVE",
"458 473 OFFCURVE",
"442 393 CURVE SMOOTH",
"420 284 OFFCURVE",
"387 128 OFFCURVE",
"387 61 CURVE SMOOTH",
"387 22 OFFCURVE",
"410 -8 OFFCURVE",
"460 -8 CURVE SMOOTH"
);
}
);
width = 593;
}
);
leftKerningGroup = f;
leftMetricsKey = f;
rightKerningGroup = l;
rightMetricsKey = sl;
unicode = FB02;
},
{
color = 4;
glyphname = ordfeminine;
lastChange = "2016-08-03 07:14:04 +0000";
layers = (
{
layerId = "79E705E9-1ED7-4818-9510-7FD15DA5A41F";
paths = (
{
closed = 1;
nodes = (
"292 600 OFFCURVE",
"296 601 OFFCURVE",
"300 603 CURVE",
"313 608 OFFCURVE",
"319 616 OFFCURVE",
"319 625 CURVE SMOOTH",
"319 645 OFFCURVE",
"299 646 OFFCURVE",
"288 649 CURVE",
"283 651 OFFCURVE",
"277 654 OFFCURVE",
"273 658 CURVE",
"264 665 OFFCURVE",
"257 676 OFFCURVE",
"257 707 CURVE SMOOTH",
"257 722 OFFCURVE",
"261 749 OFFCURVE",
"269 790 CURVE SMOOTH",
"276 830 OFFCURVE",
"280 863 OFFCURVE",
"280 890 CURVE SMOOTH",
"280 942 OFFCURVE",
"253 975 OFFCURVE",
"191 975 CURVE SMOOTH",
"158 975 OFFCURVE",
"104 951 OFFCURVE",
"83 926 CURVE",
"78 920 OFFCURVE",
"75 915 OFFCURVE",
"74 908 CURVE SMOOTH",
"72 902 OFFCURVE",
"70 896 OFFCURVE",
"69 890 CURVE",
"70 877 OFFCURVE",
"76 870 OFFCURVE",
"86 870 CURVE SMOOTH",
"99 870 OFFCURVE",
"108 876 OFFCURVE",
"113 890 CURVE SMOOTH",
"115 896 OFFCURVE",
"119 901 OFFCURVE",
"123 906 CURVE",
"138 921 OFFCURVE",
"158 929 OFFCURVE",
"184 929 CURVE SMOOTH",
"217 929 OFFCURVE",
"234 912 OFFCURVE",
"234 878 CURVE SMOOTH",
"234 862 OFFCURVE",
"233 848 OFFCURVE",
"231 835 CURVE",
"230 835 LINE SMOOTH",
"155 835 OFFCURVE",
"77 771 OFFCURVE",
"77 706 CURVE SMOOTH",
"77 641 OFFCURVE",
"112 609 OFFCURVE",
"162 609 CURVE SMOOTH",
"186 609 OFFCURVE",
"208 616 OFFCURVE",
"227 629 CURVE",
"241 610 OFFCURVE",
"261 600 OFFCURVE",
"288 600 CURVE SMOOTH"
);
},
{
closed = 1;
nodes = (
"137 657 OFFCURVE",
"122 674 OFFCURVE",
"122 708 CURVE SMOOTH",
"122 741 OFFCURVE",
"160 788 OFFCURVE",
"215 788 CURVE SMOOTH",
"222 788 LINE",
"214 747 OFFCURVE",
"210 719 OFFCURVE",
"210 706 CURVE SMOOTH",
"210 681 LINE SMOOTH",
"210 677 OFFCURVE",
"210 673 OFFCURVE",
"211 670 CURVE",
"203 662 OFFCURVE",
"188 657 OFFCURVE",
"166 657 CURVE SMOOTH"
);
}
);
width = 281;
}
);
note = ordfeminine;
unicode = 00AA;
},
{
color = 4;
glyphname = ordmasculine;
lastChange = "2016-08-03 07:14:04 +0000";
layers = (
{
layerId = "79E705E9-1ED7-4818-9510-7FD15DA5A41F";
paths = (
{
closed = 1;
nodes = (
"157 530 OFFCURVE",
"192 547 OFFCURVE",
"220 582 CURVE SMOOTH",
"265 639 OFFCURVE",
"288 731 OFFCURVE",
"288 857 CURVE",
"298 864 OFFCURVE",
"303 871 OFFCURVE",
"303 877 CURVE SMOOTH",
"303 884 OFFCURVE",
"301 890 OFFCURVE",
"297 894 CURVE SMOOTH",
"285 904 OFFCURVE",
"269 909 OFFCURVE",
"249 909 CURVE",
"218 907 OFFCURVE",
"187 889 OFFCURVE",
"155 856 CURVE SMOOTH",
"93 790 OFFCURVE",
"48 689 OFFCURVE",
"48 609 CURVE SMOOTH",
"48 569 OFFCURVE",
"79 530 OFFCURVE",
"114 530 CURVE SMOOTH"
);
},
{
closed = 1;
nodes = (
"121 576 OFFCURVE",
"113 578 OFFCURVE",
"109 581 CURVE",
"99 589 OFFCURVE",
"94 603 OFFCURVE",
"94 622 CURVE SMOOTH",
"94 724 OFFCURVE",
"163 832 OFFCURVE",
"240 863 CURVE",
"242 863 LINE SMOOTH",
"243 863 OFFCURVE",
"244 862 OFFCURVE",
"245 862 CURVE",
"250 840 LINE",
"250 756 OFFCURVE",
"231 667 OFFCURVE",
"204 628 CURVE SMOOTH",
"177 590 OFFCURVE",
"152 576 OFFCURVE",
"131 576 CURVE SMOOTH"
);
}
);
width = 256;
}
);
note = ordmasculine;
unicode = 00BA;
},
{
glyphname = "A-cy";
lastChange = "2016-08-02 01:43:54 +0000";
layers = (
{
anchors = (
{
name = top;
position = "{600, 962}";
}
);
layerId = "79E705E9-1ED7-4818-9510-7FD15DA5A41F";
paths = (
{
closed = 1;
nodes = (
"588 -3 OFFCURVE",
"601 10 OFFCURVE",
"601 24 CURVE SMOOTH",
"601 32 OFFCURVE",
"599 46 OFFCURVE",
"594 69 CURVE SMOOTH",
"588 92 OFFCURVE",
"584 109 OFFCURVE",
"582 121 CURVE SMOOTH",
"577 145 OFFCURVE",
"575 166 OFFCURVE",
"575 194 CURVE",
"574 208 OFFCURVE",
"574 220 OFFCURVE",
"573 228 CURVE",
"571 236 OFFCURVE",
"571 241 OFFCURVE",
"571 243 CURVE SMOOTH",
"571 248 LINE",
"576 248 OFFCURVE",
"582 247 OFFCURVE",
"587 246 CURVE",
"592 245 OFFCURVE",
"598 245 OFFCURVE",
"605 244 CURVE SMOOTH",
"619 243 OFFCURVE",
"634 257 OFFCURVE",
"634 269 CURVE SMOOTH",
"634 274 OFFCURVE",
"632 279 OFFCURVE",
"629 284 CURVE SMOOTH",
"625 288 OFFCURVE",
"604 292 OFFCURVE",
"564 297 CURVE",
"556 373 OFFCURVE",
"552 437 OFFCURVE",
"552 490 CURVE SMOOTH",
"552 543 OFFCURVE",
"557 609 OFFCURVE",
"566 687 CURVE SMOOTH",
"576 764 OFFCURVE",
"582 818 OFFCURVE",
"585 847 CURVE SMOOTH",
"588 875 OFFCURVE",
"594 903 OFFCURVE",
"601 929 CURVE",
"608 937 OFFCURVE",
"610 952 OFFCURVE",
"600 962 CURVE",
"599 972 OFFCURVE",
"594 977 OFFCURVE",
"586 977 CURVE SMOOTH",
"575 977 OFFCURVE",
"562 967 OFFCURVE",
"556 953 CURVE",
"523 803 OFFCURVE",
"346 480 OFFCURVE",
"233 310 CURVE",
"172 313 OFFCURVE",
"129 315 OFFCURVE",
"103 319 CURVE",
"89 317 OFFCURVE",
"75 303 OFFCURVE",
"75 289 CURVE SMOOTH",
"75 282 OFFCURVE",
"80 276 OFFCURVE",
"89 273 CURVE",
"114 271 OFFCURVE",
"152 268 OFFCURVE",
"202 265 CURVE",
"197 257 OFFCURVE",
"191 249 OFFCURVE",
"185 242 CURVE SMOOTH",
"179 234 OFFCURVE",
"171 224 OFFCURVE",
"162 211 CURVE SMOOTH",
"100 128 OFFCURVE",
"35 74 OFFCURVE",
"-35 47 CURVE",
"-36 46 LINE",
"-40 51 OFFCURVE",
"-44 54 OFFCURVE",
"-51 54 CURVE SMOOTH",
"-63 54 OFFCURVE",
"-78 40 OFFCURVE",
"-78 23 CURVE SMOOTH",
"-78 6 OFFCURVE",
"-69 -2 OFFCURVE",
"-52 -2 CURVE SMOOTH",
"-38 -2 OFFCURVE",
"-18 4 OFFCURVE",
"8 17 CURVE",
"84 52 OFFCURVE",
"165 134 OFFCURVE",
"251 264 CURVE",
"296 263 OFFCURVE",
"341 262 OFFCURVE",
"387 262 CURVE SMOOTH",
"432 261 OFFCURVE",
"477 258 OFFCURVE",
"521 254 CURVE",
"524 240 LINE",
"525 231 OFFCURVE",
"526 219 OFFCURVE",
"528 204 CURVE SMOOTH",
"529 188 OFFCURVE",
"530 172 OFFCURVE",
"532 154 CURVE SMOOTH",
"535 118 OFFCURVE",
"539 78 OFFCURVE",
"545 48 CURVE SMOOTH",
"552 19 OFFCURVE",
"562 -3 OFFCURVE",
"575 -3 CURVE SMOOTH"
);
},
{
closed = 1;
nodes = (
"478 305 OFFCURVE",
"439 307 OFFCURVE",
"400 308 CURVE SMOOTH",
"360 308 OFFCURVE",
"321 309 OFFCURVE",
"282 309 CURVE",
"340 399 OFFCURVE",
"450 587 OFFCURVE",
"529 751 CURVE",
"515 645 OFFCURVE",
"508 554 OFFCURVE",
"508 479 CURVE SMOOTH",
"508 405 OFFCURVE",
"511 345 OFFCURVE",
"516 302 CURVE"
);
}
);
width = 702;
}
);
leftKerningGroup = "A-cy";
note = uni0410;
rightKerningGroup = "A-cy";
unicode = 0410;
},
{
glyphname = "Be-cy";
lastChange = "2016-08-02 08:00:27 +0000";
layers = (
{
layerId = "79E705E9-1ED7-4818-9510-7FD15DA5A41F";
paths = (
{
closed = 1;
nodes = (
"175 -30 OFFCURVE",
"190 -23 OFFCURVE",
"192 -14 CURVE",
"193 -10 OFFCURVE",
"193 -7 OFFCURVE",
"194 -7 CURVE",
"211 -9 OFFCURVE",
"229 -10 OFFCURVE",
"249 -10 CURVE SMOOTH",
"268 -10 OFFCURVE",
"292 -7 OFFCURVE",
"321 -3 CURVE SMOOTH",
"518 28 OFFCURVE",
"610 143 OFFCURVE",
"610 278 CURVE SMOOTH",
"610 413 OFFCURVE",
"493 515 OFFCURVE",
"310 527 CURVE",
"323 592 OFFCURVE",
"336 657 OFFCURVE",
"349 722 CURVE SMOOTH",
"362 788 OFFCURVE",
"375 853 OFFCURVE",
"389 917 CURVE",
"437 921 OFFCURVE",
"484 925 OFFCURVE",
"529 929 CURVE SMOOTH",
"574 933 OFFCURVE",
"625 935 OFFCURVE",
"680 935 CURVE SMOOTH",
"735 935 OFFCURVE",
"792 930 OFFCURVE",
"849 920 CURVE",
"866 920 OFFCURVE",
"880 934 OFFCURVE",
"880 948 CURVE SMOOTH",
"880 971 OFFCURVE",
"801 982 OFFCURVE",
"645 982 CURVE SMOOTH",
"618 982 OFFCURVE",
"582 979 OFFCURVE",
"536 975 CURVE SMOOTH",
"491 970 OFFCURVE",
"445 965 OFFCURVE",
"399 961 CURVE",
"399 962 LINE SMOOTH",
"399 978 OFFCURVE",
"394 986 OFFCURVE",
"383 986 CURVE SMOOTH",
"370 986 OFFCURVE",
"358 976 OFFCURVE",
"349 957 CURVE",
"322 955 OFFCURVE",
"295 954 OFFCURVE",
"268 954 CURVE SMOOTH",
"256 954 LINE",
"254 959 OFFCURVE",
"249 963 OFFCURVE",
"240 966 CURVE",
"234 965 OFFCURVE",
"229 964 OFFCURVE",
"223 963 CURVE",
"204 959 OFFCURVE",
"194 948 OFFCURVE",
"194 930 CURVE",
"195 913 OFFCURVE",
"218 905 OFFCURVE",
"263 905 CURVE SMOOTH",
"286 905 OFFCURVE",
"310 907 OFFCURVE",
"334 910 CURVE",
"333 905 OFFCURVE",
"332 900 OFFCURVE",
"332 896 CURVE SMOOTH",
"332 891 OFFCURVE",
"334 886 OFFCURVE",
"336 882 CURVE",
"311 761 OFFCURVE",
"287 643 OFFCURVE",
"264 528 CURVE",
"222 524 OFFCURVE",
"201 511 OFFCURVE",
"201 488 CURVE SMOOTH",
"201 475 OFFCURVE",
"208 468 OFFCURVE",
"221 468 CURVE SMOOTH",
"227 468 OFFCURVE",
"234 472 OFFCURVE",
"240 480 CURVE",
"254 480 LINE",
"223 328 OFFCURVE",
"192 183 OFFCURVE",
"161 45 CURVE",
"102 56 OFFCURVE",
"56 76 OFFCURVE",
"22 105 CURVE SMOOTH",
"9 117 OFFCURVE",
"-2 135 OFFCURVE",
"-10 161 CURVE SMOOTH",
"-17 187 OFFCURVE",
"-26 199 OFFCURVE",
"-36 199 CURVE SMOOTH",
"-52 199 OFFCURVE",
"-60 188 OFFCURVE",
"-60 165 CURVE SMOOTH",
"-60 141 OFFCURVE",
"-54 120 OFFCURVE",
"-40 102 CURVE SMOOTH",
"-6 53 OFFCURVE",
"58 19 OFFCURVE",
"150 0 CURVE",
"150 -3 LINE",
"149 -7 OFFCURVE",
"148 -11 OFFCURVE",
"148 -14 CURVE SMOOTH",
"148 -24 OFFCURVE",
"154 -30 OFFCURVE",
"165 -30 CURVE SMOOTH"
);
},
{
closed = 1;
nodes = (
"233 36 OFFCURVE",
"217 37 OFFCURVE",
"205 38 CURVE",
"226 121 OFFCURVE",
"257 268 OFFCURVE",
"300 478 CURVE",
"345 475 OFFCURVE",
"385 467 OFFCURVE",
"418 456 CURVE SMOOTH",
"515 421 OFFCURVE",
"564 359 OFFCURVE",
"564 270 CURVE SMOOTH",
"564 218 OFFCURVE",
"547 174 OFFCURVE",
"512 139 CURVE SMOOTH",
"443 68 OFFCURVE",
"337 36 OFFCURVE",
"253 36 CURVE SMOOTH"
);
}
);
width = 782;
}
);
leftKerningGroup = H;
leftMetricsKey = B;
note = uni0411;
rightKerningGroup = "Be-cy";
unicode = 0411;
},
{
glyphname = "Ve-cy";
lastChange = "2016-08-02 01:43:54 +0000";
layers = (
{
layerId = "79E705E9-1ED7-4818-9510-7FD15DA5A41F";
paths = (
{
closed = 1;
nodes = (
"33 -60 OFFCURVE",
"46 -48 OFFCURVE",
"50 -31 CURVE",
"50 -24 OFFCURVE",
"51 -16 OFFCURVE",
"53 -7 CURVE",
"74 -8 LINE",
"323 -8 OFFCURVE",
"479 88 OFFCURVE",
"479 278 CURVE SMOOTH",
"479 377 OFFCURVE",
"379 489 OFFCURVE",
"266 496 CURVE",
"368 510 OFFCURVE",
"465 619 OFFCURVE",
"465 730 CURVE SMOOTH",
"465 865 OFFCURVE",
"383 952 OFFCURVE",
"260 956 CURVE",
"255 961 OFFCURVE",
"250 964 OFFCURVE",
"245 964 CURVE SMOOTH",
"238 964 OFFCURVE",
"233 961 OFFCURVE",
"229 954 CURVE",
"179 944 OFFCURVE",
"133 919 OFFCURVE",
"133 888 CURVE SMOOTH",
"133 873 OFFCURVE",
"144 868 OFFCURVE",
"150 868 CURVE SMOOTH",
"161 868 OFFCURVE",
"170 874 OFFCURVE",
"176 886 CURVE",
"186 895 OFFCURVE",
"197 902 OFFCURVE",
"209 907 CURVE",
"191 850 OFFCURVE",
"176 785 OFFCURVE",
"165 712 CURVE SMOOTH",
"154 640 OFFCURVE",
"141 572 OFFCURVE",
"126 510 CURVE",
"90 510 OFFCURVE",
"72 502 OFFCURVE",
"72 486 CURVE SMOOTH",
"72 475 OFFCURVE",
"77 469 OFFCURVE",
"87 469 CURVE",
"117 468 LINE",
"105 415 OFFCURVE",
"92 362 OFFCURVE",
"80 310 CURVE SMOOTH",
"67 258 OFFCURVE",
"56 206 OFFCURVE",
"46 155 CURVE",
"20 46 LINE",
"-4 46 OFFCURVE",
"-21 48 OFFCURVE",
"-32 54 CURVE",
"-42 59 OFFCURVE",
"-50 62 OFFCURVE",
"-55 63 CURVE",
"-58 64 OFFCURVE",
"-62 65 OFFCURVE",
"-65 65 CURVE SMOOTH",
"-72 65 OFFCURVE",
"-82 54 OFFCURVE",
"-82 46 CURVE SMOOTH",
"-82 42 OFFCURVE",
"-82 40 OFFCURVE",
"-81 38 CURVE",
"-80 25 OFFCURVE",
"-59 14 OFFCURVE",
"-19 6 CURVE SMOOTH",
"-9 4 OFFCURVE",
"0 2 OFFCURVE",
"10 0 CURVE",
"6 -16 OFFCURVE",
"4 -30 OFFCURVE",
"3 -40 CURVE",
"4 -53 OFFCURVE",
"11 -60 OFFCURVE",
"22 -60 CURVE SMOOTH"
);
},
{
closed = 1;
nodes = (
"84 37 OFFCURVE",
"71 38 OFFCURVE",
"62 39 CURVE",
"64 50 OFFCURVE",
"67 62 OFFCURVE",
"70 73 CURVE SMOOTH",
"78 106 LINE SMOOTH",
"81 117 OFFCURVE",
"83 126 OFFCURVE",
"85 135 CURVE SMOOTH",
"88 144 OFFCURVE",
"93 167 OFFCURVE",
"101 204 CURVE SMOOTH",
"109 242 OFFCURVE",
"128 329 OFFCURVE",
"160 466 CURVE",
"181 464 OFFCURVE",
"199 464 OFFCURVE",
"213 464 CURVE SMOOTH",
"324 464 OFFCURVE",
"433 372 OFFCURVE",
"433 272 CURVE SMOOTH",
"433 129 OFFCURVE",
"314 37 OFFCURVE",
"101 37 CURVE SMOOTH"
);
},
{
closed = 1;
nodes = (
"177 542 OFFCURVE",
"188 604 OFFCURVE",
"203 695 CURVE SMOOTH",
"218 787 OFFCURVE",
"234 859 OFFCURVE",
"250 913 CURVE",
"348 911 OFFCURVE",
"416 849 OFFCURVE",
"416 729 CURVE SMOOTH",
"416 610 OFFCURVE",
"307 521 OFFCURVE",
"170 511 CURVE"
);
}
);
width = 514;
}
);
leftKerningGroup = H;
leftMetricsKey = B;
note = uni0412;
rightKerningGroup = B;
rightMetricsKey = B;
unicode = 0412;
},
{
glyphname = "Ge-cy";
lastChange = "2016-08-02 01:43:54 +0000";
layers = (
{
anchors = (
{
name = bottom;
position = "{66, 61}";
},
{
name = bottomright;
position = "{27, 10}";
},
{
name = top;
position = "{404, 960}";
}
);
layerId = "79E705E9-1ED7-4818-9510-7FD15DA5A41F";
paths = (
{
closed = 1;
nodes = (
"48 -19 OFFCURVE",
"63 -13 OFFCURVE",
"66 0 CURVE SMOOTH",
"105 154 OFFCURVE",
"126 272 OFFCURVE",
"181 568 CURVE SMOOTH",
"208 716 OFFCURVE",
"230 832 OFFCURVE",
"248 917 CURVE",
"346 924 OFFCURVE",
"275 916 OFFCURVE",
"378 916 CURVE",
"510 924 LINE",
"530 924 OFFCURVE",
"546 922 OFFCURVE",
"560 920 CURVE",
"577 920 OFFCURVE",
"591 934 OFFCURVE",
"591 948 CURVE SMOOTH",
"591 960 OFFCURVE",
"563 967 OFFCURVE",
"509 967 CURVE SMOOTH",
"383 963 LINE SMOOTH",
"339 963 OFFCURVE",
"313 962 OFFCURVE",
"305 961 CURVE",
"257 957 LINE",
"257 959 OFFCURVE",
"257 960 OFFCURVE",
"258 962 CURVE",
"258 978 OFFCURVE",
"252 986 OFFCURVE",
"242 986 CURVE SMOOTH",
"228 986 OFFCURVE",
"217 976 OFFCURVE",
"208 957 CURVE",
"195 957 LINE",
"128 962 LINE",
"114 959 OFFCURVE",
"107 949 OFFCURVE",
"107 930 CURVE",
"108 913 OFFCURVE",
"128 905 OFFCURVE",
"166 905 CURVE",
"203 906 LINE",
"195 881 LINE",
"178 796 OFFCURVE",
"152 661 OFFCURVE",
"119 476 CURVE SMOOTH",
"85 291 OFFCURVE",
"60 166 OFFCURVE",
"44 100 CURVE SMOOTH",
"29 35 OFFCURVE",
"21 0 OFFCURVE",
"21 -3 CURVE SMOOTH",
"21 -14 OFFCURVE",
"27 -19 OFFCURVE",
"38 -19 CURVE SMOOTH"
);
}
);
width = 542;
}
);
leftKerningGroup = H;
note = uni0413;
rightKerningGroup = "Ge-cy";
unicode = 0413;
},
{
glyphname = "Gheupturn-cy";
lastChange = "2016-08-02 08:00:27 +0000";
layers = (
{
layerId = "79E705E9-1ED7-4818-9510-7FD15DA5A41F";
paths = (
{
closed = 1;
nodes = (
"48 -19 OFFCURVE",
"63 -13 OFFCURVE",
"66 0 CURVE SMOOTH",
"105 154 OFFCURVE",
"126 272 OFFCURVE",
"181 568 CURVE SMOOTH",
"208 716 OFFCURVE",
"230 832 OFFCURVE",
"248 917 CURVE",
"276 919 OFFCURVE",
"293 920 OFFCURVE",
"300 920 CURVE SMOOTH",
"510 924 LINE SMOOTH",
"530 924 OFFCURVE",
"546 922 OFFCURVE",
"560 920 CURVE",
"577 922 OFFCURVE",
"600 942 OFFCURVE",
"588 954 CURVE",
"596 976 OFFCURVE",
"604 999 OFFCURVE",
"610 1021 CURVE SMOOTH",
"617 1042 OFFCURVE",
"624 1060 OFFCURVE",
"631 1072 CURVE SMOOTH",
"638 1084 OFFCURVE",
"641 1093 OFFCURVE",
"641 1098 CURVE SMOOTH",
"641 1109 OFFCURVE",
"635 1115 OFFCURVE",
"623 1115 CURVE SMOOTH",
"614 1115 OFFCURVE",
"605 1110 OFFCURVE",
"598 1100 CURVE",
"587 1078 OFFCURVE",
"570 1033 OFFCURVE",
"546 966 CURVE",
"541 966 OFFCURVE",
"535 967 OFFCURVE",
"528 967 CURVE SMOOTH",
"437 967 LINE SMOOTH",
"382 967 OFFCURVE",
"322 963 OFFCURVE",
"257 957 CURVE",
"257 959 OFFCURVE",
"257 960 OFFCURVE",
"258 962 CURVE",
"258 978 OFFCURVE",
"252 986 OFFCURVE",
"242 986 CURVE SMOOTH",
"228 986 OFFCURVE",
"217 976 OFFCURVE",
"208 957 CURVE",
"143 965 LINE",
"137 964 OFFCURVE",
"132 963 OFFCURVE",
"128 962 CURVE SMOOTH",
"114 959 OFFCURVE",
"107 949 OFFCURVE",
"107 930 CURVE",
"108 913 OFFCURVE",
"128 905 OFFCURVE",
"166 905 CURVE SMOOTH",
"184 905 LINE SMOOTH",
"191 905 OFFCURVE",
"197 905 OFFCURVE",
"200 906 CURVE",
"184 828 OFFCURVE",
"161 708 OFFCURVE",
"131 544 CURVE SMOOTH",
"101 380 OFFCURVE",
"78 263 OFFCURVE",
"64 194 CURVE SMOOTH",
"49 125 OFFCURVE",
"39 76 OFFCURVE",
"32 46 CURVE SMOOTH",
"24 17 OFFCURVE",
"21 0 OFFCURVE",
"21 -3 CURVE SMOOTH",
"21 -14 OFFCURVE",
"27 -19 OFFCURVE",
"38 -19 CURVE SMOOTH"
);
}
);
width = 565;
}
);
leftKerningGroup = H;
note = uni0490;
rightKerningGroup = "Ge-cy";
rightMetricsKey = "Ge-cy";
unicode = 0490;
},
{
glyphname = "De-cy";
lastChange = "2016-08-02 01:43:54 +0000";
layers = (
{
layerId = "79E705E9-1ED7-4818-9510-7FD15DA5A41F";
paths = (
{
closed = 1;
nodes = (
"261 -10 OFFCURVE",
"282 9 OFFCURVE",
"297 32 CURVE SMOOTH",
"305 44 OFFCURVE",
"313 67 OFFCURVE",
"320 101 CURVE SMOOTH",
"327 135 OFFCURVE",
"333 163 OFFCURVE",
"338 184 CURVE",
"354 176 OFFCURVE",
"371 165 OFFCURVE",
"388 150 CURVE SMOOTH",
"405 136 OFFCURVE",
"433 109 OFFCURVE",
"472 69 CURVE SMOOTH",
"522 17 OFFCURVE",
"567 -9 OFFCURVE",
"608 -9 CURVE SMOOTH",
"648 -9 OFFCURVE",
"686 -2 OFFCURVE",
"721 12 CURVE SMOOTH",
"922 94 OFFCURVE",
"995 334 OFFCURVE",
"995 500 CURVE SMOOTH",
"995 562 OFFCURVE",
"978 629 OFFCURVE",
"944 701 CURVE SMOOTH",
"876 845 OFFCURVE",
"730 965 OFFCURVE",
"521 971 CURVE",
"524 992 LINE",
"521 1003 OFFCURVE",
"515 1009 OFFCURVE",
"505 1009 CURVE SMOOTH",
"496 1009 OFFCURVE",
"481 998 OFFCURVE",
"478 985 CURVE",
"475 971 LINE",
"361 967 OFFCURVE",
"270 939 OFFCURVE",
"202 888 CURVE SMOOTH",
"160 856 OFFCURVE",
"113 810 OFFCURVE",
"60 700 CURVE",
"62 687 OFFCURVE",
"67 680 OFFCURVE",
"77 680 CURVE SMOOTH",
"89 680 OFFCURVE",
"99 687 OFFCURVE",
"105 700 CURVE SMOOTH",
"119 730 OFFCURVE",
"136 759 OFFCURVE",
"156 786 CURVE SMOOTH",
"223 875 OFFCURVE",
"327 921 OFFCURVE",
"467 927 CURVE",
"426 726 OFFCURVE",
"402 594 OFFCURVE",
"310 240 CURVE",
"291 245 OFFCURVE",
"274 247 OFFCURVE",
"260 247 CURVE SMOOTH",
"230 247 OFFCURVE",
"192 239 OFFCURVE",
"161 217 CURVE SMOOTH",
"130 195 OFFCURVE",
"107 161 OFFCURVE",
"107 103 CURVE SMOOTH",
"107 45 OFFCURVE",
"143 -10 OFFCURVE",
"217 -10 CURVE SMOOTH"
);
},
{
closed = 1;
nodes = (
"201 40 OFFCURVE",
"192 42 OFFCURVE",
"184 47 CURVE SMOOTH",
"162 58 OFFCURVE",
"151 79 OFFCURVE",
"151 109 CURVE SMOOTH",
"151 170 OFFCURVE",
"192 201 OFFCURVE",
"274 201 CURVE SMOOTH",
"279 201 OFFCURVE",
"287 200 OFFCURVE",
"299 198 CURVE",
"270 86 LINE SMOOTH",
"260 51 OFFCURVE",
"230 40 OFFCURVE",
"211 40 CURVE SMOOTH"
);
},
{
closed = 1;
nodes = (
"567 37 OFFCURVE",
"522 84 OFFCURVE",
"494 112 CURVE SMOOTH",
"480 126 OFFCURVE",
"464 140 OFFCURVE",
"449 154 CURVE SMOOTH",
"413 188 OFFCURVE",
"379 213 OFFCURVE",
"348 227 CURVE",
"370 321 OFFCURVE",
"399 442 OFFCURVE",
"437 589 CURVE SMOOTH",
"474 737 OFFCURVE",
"500 849 OFFCURVE",
"513 927 CURVE",
"596 923 OFFCURVE",
"670 903 OFFCURVE",
"736 864 CURVE SMOOTH",
"867 787 OFFCURVE",
"945 649 OFFCURVE",
"945 503 CURVE SMOOTH",
"945 431 OFFCURVE",
"931 358 OFFCURVE",
"903 286 CURVE SMOOTH",
"846 142 OFFCURVE",
"740 37 OFFCURVE",
"625 37 CURVE SMOOTH"
);
}
);
width = 1054;
}
);
leftKerningGroup = "De-cy";
note = uni0414;
rightKerningGroup = "De-cy";
unicode = 0414;
},
{
glyphname = "Ie-cy";
lastChange = "2016-08-02 01:43:54 +0000";
layers = (
{
anchors = (
{
name = top;
position = "{387, 960}";
}
);
layerId = "79E705E9-1ED7-4818-9510-7FD15DA5A41F";
paths = (
{
closed = 1;
nodes = (
"324 -11 OFFCURVE",
"362 -4 OFFCURVE",
"396 9 CURVE SMOOTH",
"491 47 OFFCURVE",
"554 127 OFFCURVE",
"583 249 CURVE",
"583 265 OFFCURVE",
"578 273 OFFCURVE",
"568 273 CURVE SMOOTH",
"557 273 OFFCURVE",
"548 268 OFFCURVE",
"541 257 CURVE",
"525 125 OFFCURVE",
"414 33 OFFCURVE",
"278 33 CURVE SMOOTH",
"158 33 OFFCURVE",
"98 105 OFFCURVE",
"98 250 CURVE SMOOTH",
"98 378 OFFCURVE",
"191 521 OFFCURVE",
"290 550 CURVE",
"327 530 OFFCURVE",
"396 506 OFFCURVE",
"415 506 CURVE SMOOTH",
"424 506 OFFCURVE",
"432 507 OFFCURVE",
"436 509 CURVE SMOOTH",
"452 517 OFFCURVE",
"460 528 OFFCURVE",
"460 543 CURVE SMOOTH",
"460 578 OFFCURVE",
"384 604 OFFCURVE",
"326 604 CURVE SMOOTH",
"315 604 LINE SMOOTH",
"312 604 OFFCURVE",
"309 604 OFFCURVE",
"307 603 CURVE",
"248 646 OFFCURVE",
"219 705 OFFCURVE",
"219 779 CURVE SMOOTH",
"219 856 OFFCURVE",
"268 923 OFFCURVE",
"362 923 CURVE SMOOTH",
"456 923 OFFCURVE",
"499 884 OFFCURVE",
"542 787 CURVE SMOOTH",
"546 778 OFFCURVE",
"551 773 OFFCURVE",
"558 773 CURVE SMOOTH",
"572 773 OFFCURVE",
"585 787 OFFCURVE",
"588 801 CURVE",
"576 828 OFFCURVE",
"563 852 OFFCURVE",
"549 873 CURVE SMOOTH",
"505 938 OFFCURVE",
"442 970 OFFCURVE",
"358 970 CURVE SMOOTH",
"314 970 OFFCURVE",
"274 954 OFFCURVE",
"237 922 CURVE SMOOTH",
"200 889 OFFCURVE",
"171 835 OFFCURVE",
"171 784 CURVE SMOOTH",
"171 701 OFFCURVE",
"197 633 OFFCURVE",
"249 580 CURVE",
"130 518 OFFCURVE",
"49 376 OFFCURVE",
"49 239 CURVE SMOOTH",
"49 101 OFFCURVE",
"125 -11 OFFCURVE",
"281 -11 CURVE SMOOTH"
);
}
);
width = 637;
}
);
leftKerningGroup = H;
note = uni0415;
rightKerningGroup = E;
unicode = 0415;
},
{
glyphname = "Io-cy";
lastChange = "2016-08-02 01:43:54 +0000";
layers = (
{
layerId = "79E705E9-1ED7-4818-9510-7FD15DA5A41F";
paths = (
{
closed = 1;
nodes = (
"335 -11 OFFCURVE",
"373 -4 OFFCURVE",
"407 9 CURVE SMOOTH",
"503 47 OFFCURVE",
"565 127 OFFCURVE",
"595 249 CURVE",
"595 265 OFFCURVE",
"590 273 OFFCURVE",
"580 273 CURVE SMOOTH",
"569 273 OFFCURVE",
"560 268 OFFCURVE",
"552 257 CURVE",
"537 125 OFFCURVE",
"426 33 OFFCURVE",
"289 33 CURVE SMOOTH",
"152 33 OFFCURVE",
"109 123 OFFCURVE",
"109 250 CURVE SMOOTH",
"109 378 OFFCURVE",
"202 521 OFFCURVE",
"301 550 CURVE",
"338 530 OFFCURVE",
"407 506 OFFCURVE",
"426 506 CURVE SMOOTH",
"435 506 OFFCURVE",
"443 507 OFFCURVE",
"447 509 CURVE SMOOTH",
"464 517 OFFCURVE",
"472 528 OFFCURVE",
"472 543 CURVE SMOOTH",
"472 578 OFFCURVE",
"396 604 OFFCURVE",
"337 604 CURVE SMOOTH",
"327 604 LINE SMOOTH",
"323 604 OFFCURVE",
"320 604 OFFCURVE",
"318 603 CURVE",
"259 646 OFFCURVE",
"230 705 OFFCURVE",
"230 779 CURVE SMOOTH",
"230 856 OFFCURVE",
"279 923 OFFCURVE",
"373 923 CURVE SMOOTH",
"467 923 OFFCURVE",
"511 883 OFFCURVE",
"553 787 CURVE",
"557 778 OFFCURVE",
"562 773 OFFCURVE",
"569 773 CURVE SMOOTH",
"583 773 OFFCURVE",
"597 787 OFFCURVE",
"599 801 CURVE",
"588 828 OFFCURVE",
"575 852 OFFCURVE",
"560 873 CURVE SMOOTH",
"517 938 OFFCURVE",
"453 970 OFFCURVE",
"369 970 CURVE SMOOTH",
"326 970 OFFCURVE",
"286 954 OFFCURVE",
"248 922 CURVE SMOOTH",
"211 889 OFFCURVE",
"182 835 OFFCURVE",
"182 784 CURVE SMOOTH",
"182 702 OFFCURVE",
"208 633 OFFCURVE",
"260 580 CURVE",
"143 519 OFFCURVE",
"60 377 OFFCURVE",
"60 239 CURVE SMOOTH",
"60 101 OFFCURVE",
"136 -11 OFFCURVE",
"292 -11 CURVE SMOOTH"
);
},
{
closed = 1;
nodes = (
"327 1053 OFFCURVE",
"366 1091 OFFCURVE",
"366 1112 CURVE SMOOTH",
"366 1122 OFFCURVE",
"361 1133 OFFCURVE",
"350 1146 CURVE",
"350 1145 LINE",
"343 1152 OFFCURVE",
"335 1156 OFFCURVE",
"328 1156 CURVE SMOOTH",
"312 1156 OFFCURVE",
"303 1150 OFFCURVE",
"295 1140 CURVE SMOOTH",
"287 1130 OFFCURVE",
"281 1118 OFFCURVE",
"281 1100 CURVE SMOOTH",
"281 1082 OFFCURVE",
"291 1053 OFFCURVE",
"309 1053 CURVE SMOOTH"
);
},
{
closed = 1;
nodes = (
"533 1059 OFFCURVE",
"558 1093 OFFCURVE",
"558 1122 CURVE SMOOTH",
"558 1143 OFFCURVE",
"548 1153 OFFCURVE",
"527 1153 CURVE SMOOTH",
"509 1153 OFFCURVE",
"476 1125 OFFCURVE",
"476 1093 CURVE SMOOTH",
"476 1077 OFFCURVE",
"484 1066 OFFCURVE",
"500 1061 CURVE",
"503 1060 OFFCURVE",
"506 1059 OFFCURVE",
"508 1059 CURVE SMOOTH"
);
}
);
width = 639;
}
);
leftKerningGroup = H;
note = uni0401;
rightKerningGroup = E;
unicode = 0401;
},
{
glyphname = "Zhe-cy";
lastChange = "2016-08-02 01:43:54 +0000";
layers = (
{
anchors = (
{
name = bottomright;
position = "{874, 13}";
},
{
name = top;
position = "{655, 962}";
}
);
layerId = "79E705E9-1ED7-4818-9510-7FD15DA5A41F";
paths = (
{
closed = 1;
nodes = (
"67 -9 OFFCURVE",
"137 16 OFFCURVE",
"204 64 CURVE SMOOTH",
"312 143 OFFCURVE",
"384 252 OFFCURVE",
"472 406 CURVE",
"478 395 OFFCURVE",
"485 386 OFFCURVE",
"493 379 CURVE",
"472 278 OFFCURVE",
"458 209 OFFCURVE",
"450 173 CURVE SMOOTH",
"443 136 OFFCURVE",
"437 107 OFFCURVE",
"432 85 CURVE SMOOTH",
"426 64 OFFCURVE",
"423 42 OFFCURVE",
"421 18 CURVE",
"422 4 OFFCURVE",
"428 -3 OFFCURVE",
"438 -3 CURVE SMOOTH",
"450 -3 OFFCURVE",
"464 5 OFFCURVE",
"468 36 CURVE SMOOTH",
"469 51 OFFCURVE",
"473 68 OFFCURVE",
"478 88 CURVE SMOOTH",
"482 108 OFFCURVE",
"489 138 OFFCURVE",
"497 178 CURVE SMOOTH",
"505 217 OFFCURVE",
"520 282 OFFCURVE",
"540 372 CURVE",
"545 372 LINE",
"554 375 OFFCURVE",
"565 383 OFFCURVE",
"579 397 CURVE",
"590 335 OFFCURVE",
"607 273 OFFCURVE",
"631 212 CURVE SMOOTH",
"679 90 OFFCURVE",
"765 -9 OFFCURVE",
"878 -9 CURVE SMOOTH",
"908 -9 OFFCURVE",
"928 -6 OFFCURVE",
"940 0 CURVE SMOOTH",
"964 12 OFFCURVE",
"1011 48 OFFCURVE",
"1011 70 CURVE SMOOTH",
"1011 82 OFFCURVE",
"1005 87 OFFCURVE",
"992 87 CURVE SMOOTH",
"986 87 OFFCURVE",
"979 84 OFFCURVE",
"973 79 CURVE",
"946 40 OFFCURVE",
"927 30 OFFCURVE",
"879 30 CURVE SMOOTH",
"855 30 OFFCURVE",
"832 36 OFFCURVE",
"809 49 CURVE SMOOTH",
"721 100 OFFCURVE",
"634 255 OFFCURVE",
"620 436 CURVE",
"617 443 LINE",
"666 509 OFFCURVE",
"763 609 OFFCURVE",
"873 725 CURVE SMOOTH",
"927 783 OFFCURVE",
"980 845 OFFCURVE",
"1032 910 CURVE SMOOTH",
"1038 917 OFFCURVE",
"1040 923 OFFCURVE",
"1040 930 CURVE SMOOTH",
"1040 941 OFFCURVE",
"1034 947 OFFCURVE",
"1023 947 CURVE SMOOTH",
"1016 947 OFFCURVE",
"1009 944 OFFCURVE",
"1003 939 CURVE",
"931 848 OFFCURVE",
"868 780 OFFCURVE",
"742 646 CURVE SMOOTH",
"679 578 OFFCURVE",
"616 508 OFFCURVE",
"553 434 CURVE",
"601 648 OFFCURVE",
"636 816 OFFCURVE",
"660 938 CURVE",
"660 954 OFFCURVE",
"655 962 OFFCURVE",
"645 962 CURVE SMOOTH",
"634 962 OFFCURVE",
"621 952 OFFCURVE",
"615 938 CURVE",
"578 777 OFFCURVE",
"541 606 OFFCURVE",
"503 427 CURVE",
"492 455 OFFCURVE",
"476 489 OFFCURVE",
"456 530 CURVE SMOOTH",
"414 610 OFFCURVE",
"345 742 OFFCURVE",
"273 939 CURVE",
"270 944 OFFCURVE",
"264 947 OFFCURVE",
"257 947 CURVE SMOOTH",
"243 947 OFFCURVE",
"230 934 OFFCURVE",
"230 922 CURVE SMOOTH",
"230 906 OFFCURVE",
"281 794 OFFCURVE",
"383 585 CURVE SMOOTH",
"420 511 OFFCURVE",
"439 471 OFFCURVE",
"441 465 CURVE SMOOTH",
"444 458 OFFCURVE",
"447 452 OFFCURVE",
"450 446 CURVE",
"449 445 OFFCURVE",
"447 443 OFFCURVE",
"446 442 CURVE",
"444 440 OFFCURVE",
"442 438 OFFCURVE",
"441 436 CURVE",
"384 321 OFFCURVE",
"244 121 OFFCURVE",
"89 49 CURVE SMOOTH",
"61 36 OFFCURVE",
"38 30 OFFCURVE",
"20 30 CURVE SMOOTH",
"-16 30 OFFCURVE",
"-51 22 OFFCURVE",
"-63 79 CURVE",
"-66 84 OFFCURVE",
"-72 87 OFFCURVE",
"-79 87 CURVE SMOOTH",
"-93 87 OFFCURVE",
"-107 75 OFFCURVE",
"-107 63 CURVE SMOOTH",
"-107 58 OFFCURVE",
"-106 53 OFFCURVE",
"-104 50 CURVE",
"-80 1 OFFCURVE",
"-61 -9 OFFCURVE",
"-6 -9 CURVE SMOOTH"
);
}
);
width = 1030;
}
);
leftKerningGroup = "Zhe-cy";
note = uni0416;
rightKerningGroup = "Zhe-cy";
unicode = 0416;
},
{
glyphname = "Ze-cy";
lastChange = "2016-08-02 08:00:27 +0000";
layers = (
{
anchors = (
{
name = bottom;
position = "{314, 0}";
},
{
name = top;
position = "{503, 960}";
}
);
layerId = "79E705E9-1ED7-4818-9510-7FD15DA5A41F";
paths = (
{
closed = 1;
nodes = (
"518 -10 OFFCURVE",
"636 120 OFFCURVE",
"636 300 CURVE SMOOTH",
"636 448 OFFCURVE",
"578 545 OFFCURVE",
"454 567 CURVE",
"476 582 OFFCURVE",
"498 599 OFFCURVE",
"519 616 CURVE SMOOTH",
"592 677 OFFCURVE",
"628 745 OFFCURVE",
"628 821 CURVE SMOOTH",
"628 913 OFFCURVE",
"578 973 OFFCURVE",
"487 973 CURVE SMOOTH",
"397 973 OFFCURVE",
"312 916 OFFCURVE",
"312 890 CURVE SMOOTH",
"312 877 OFFCURVE",
"318 871 OFFCURVE",
"329 871 CURVE SMOOTH",
"334 871 OFFCURVE",
"340 873 OFFCURVE",
"347 877 CURVE",
"385 909 OFFCURVE",
"430 925 OFFCURVE",
"481 925 CURVE SMOOTH",
"540 925 OFFCURVE",
"584 884 OFFCURVE",
"584 820 CURVE SMOOTH",
"584 734 OFFCURVE",
"519 651 OFFCURVE",
"388 572 CURVE",
"307 570 OFFCURVE",
"264 560 OFFCURVE",
"264 518 CURVE SMOOTH",
"264 496 OFFCURVE",
"278 493 OFFCURVE",
"295 493 CURVE SMOOTH",
"324 493 OFFCURVE",
"362 508 OFFCURVE",
"411 539 CURVE",
"444 536 OFFCURVE",
"471 527 OFFCURVE",
"494 512 CURVE SMOOTH",
"558 469 OFFCURVE",
"590 396 OFFCURVE",
"590 293 CURVE SMOOTH",
"590 123 OFFCURVE",
"446 35 OFFCURVE",
"304 35 CURVE SMOOTH",
"161 35 OFFCURVE",
"21 185 OFFCURVE",
"-5 342 CURVE",
"-9 349 OFFCURVE",
"-15 353 OFFCURVE",
"-22 353 CURVE SMOOTH",
"-36 353 OFFCURVE",
"-49 337 OFFCURVE",
"-49 321 CURVE",
"-6 145 OFFCURVE",
"127 -10 OFFCURVE",
"297 -10 CURVE SMOOTH"
);
}
);
width = 669;
}
);
leftKerningGroup = "Ze-cy";
note = uni0417;
rightKerningGroup = B;
rightMetricsKey = B;
unicode = 0417;
},
{
glyphname = "Ii-cy";
lastChange = "2016-08-02 01:43:54 +0000";
layers = (
{
anchors = (
{
name = bottomright;
position = "{827, 0}";
},
{
name = top;
position = "{533, 960}";
}
);
layerId = "79E705E9-1ED7-4818-9510-7FD15DA5A41F";
paths = (
{
closed = 1;
nodes = (
"679 -1 OFFCURVE",
"717 32 OFFCURVE",
"762 90 CURVE SMOOTH",
"779 112 OFFCURVE",
"792 129 OFFCURVE",
"801 141 CURVE SMOOTH",
"809 152 OFFCURVE",
"817 163 OFFCURVE",
"825 172 CURVE",
"828 176 OFFCURVE",
"829 181 OFFCURVE",
"829 187 CURVE SMOOTH",
"829 198 OFFCURVE",
"823 203 OFFCURVE",
"811 203 CURVE SMOOTH",
"804 203 OFFCURVE",
"797 200 OFFCURVE",
"791 195 CURVE",
"780 182 OFFCURVE",
"769 168 OFFCURVE",
"760 154 CURVE SMOOTH",
"721 98 OFFCURVE",
"687 60 OFFCURVE",
"659 41 CURVE",
"644 84 OFFCURVE",
"636 160 OFFCURVE",
"636 268 CURVE SMOOTH",
"636 410 OFFCURVE",
"669 563 OFFCURVE",
"736 730 CURVE SMOOTH",
"755 778 OFFCURVE",
"775 828 OFFCURVE",
"796 880 CURVE",
"801 897 OFFCURVE",
"807 912 OFFCURVE",
"813 922 CURVE SMOOTH",
"820 933 OFFCURVE",
"824 940 OFFCURVE",
"825 944 CURVE",
"827 948 OFFCURVE",
"828 951 OFFCURVE",
"828 951 CURVE",
"827 951 LINE",
"829 955 OFFCURVE",
"830 959 OFFCURVE",
"830 963 CURVE SMOOTH",
"830 975 OFFCURVE",
"825 981 OFFCURVE",
"813 981 CURVE SMOOTH",
"802 981 OFFCURVE",
"790 972 OFFCURVE",
"777 953 CURVE SMOOTH",
"765 934 OFFCURVE",
"749 904 OFFCURVE",
"729 866 CURVE SMOOTH",
"715 840 OFFCURVE",
"709 827 OFFCURVE",
"709 827 CURVE",
"703 814 OFFCURVE",
"697 804 OFFCURVE",
"692 796 CURVE SMOOTH",
"620 684 OFFCURVE",
"530 562 OFFCURVE",
"422 432 CURVE SMOOTH",
"375 375 OFFCURVE",
"328 319 OFFCURVE",
"279 263 CURVE SMOOTH",
"231 207 OFFCURVE",
"183 148 OFFCURVE",
"133 88 CURVE",
"181 294 OFFCURVE",
"218 465 OFFCURVE",
"245 603 CURVE SMOOTH",
"271 739 OFFCURVE",
"286 813 OFFCURVE",
"288 822 CURVE SMOOTH",
"305 881 OFFCURVE",
"313 924 OFFCURVE",
"313 953 CURVE",
"310 964 OFFCURVE",
"304 970 OFFCURVE",
"296 970 CURVE SMOOTH",
"284 970 OFFCURVE",
"271 959 OFFCURVE",
"267 946 CURVE",
"267 941 OFFCURVE",
"266 937 OFFCURVE",
"265 933 CURVE",
"256 913 OFFCURVE",
"220 726 OFFCURVE",
"154 373 CURVE SMOOTH",
"126 219 OFFCURVE",
"99 101 OFFCURVE",
"73 16 CURVE",
"73 2 OFFCURVE",
"78 -7 OFFCURVE",
"100 -7 CURVE",
"106 -4 LINE",
"159 59 OFFCURVE",
"210 119 OFFCURVE",
"261 176 CURVE SMOOTH",
"444 386 OFFCURVE",
"585 565 OFFCURVE",
"686 713 CURVE",
"676 686 LINE SMOOTH",
"617 540 OFFCURVE",
"593 405 OFFCURVE",
"593 314 CURVE SMOOTH",
"593 269 OFFCURVE",
"593 237 OFFCURVE",
"594 219 CURVE SMOOTH",
"595 73 OFFCURVE",
"612 -3 OFFCURVE",
"646 -10 CURVE"
);
}
);
width = 854;
}
);
leftKerningGroup = H;
note = uni0418;
rightKerningGroup = H;
unicode = 0418;
},
{
glyphname = "Iishort-cy";
lastChange = "2016-08-02 08:00:27 +0000";
layers = (
{
layerId = "79E705E9-1ED7-4818-9510-7FD15DA5A41F";
paths = (
{
closed = 1;
nodes = (
"576 -1 OFFCURVE",
"614 32 OFFCURVE",
"659 90 CURVE SMOOTH",
"676 112 OFFCURVE",
"689 129 OFFCURVE",
"698 141 CURVE SMOOTH",
"706 152 OFFCURVE",
"714 163 OFFCURVE",
"722 172 CURVE",
"725 176 OFFCURVE",
"726 181 OFFCURVE",
"726 187 CURVE SMOOTH",
"726 198 OFFCURVE",
"720 203 OFFCURVE",
"708 203 CURVE SMOOTH",
"701 203 OFFCURVE",
"694 200 OFFCURVE",
"688 195 CURVE",
"677 182 OFFCURVE",
"666 168 OFFCURVE",
"657 154 CURVE SMOOTH",
"618 98 OFFCURVE",
"584 60 OFFCURVE",
"556 41 CURVE",
"541 84 OFFCURVE",
"533 160 OFFCURVE",
"533 268 CURVE SMOOTH",
"533 410 OFFCURVE",
"566 563 OFFCURVE",
"633 730 CURVE SMOOTH",
"652 778 OFFCURVE",
"672 828 OFFCURVE",
"693 880 CURVE",
"698 897 OFFCURVE",
"704 912 OFFCURVE",
"710 922 CURVE SMOOTH",
"717 933 OFFCURVE",
"721 940 OFFCURVE",
"722 944 CURVE",
"724 948 OFFCURVE",
"725 951 OFFCURVE",
"725 951 CURVE",
"724 951 LINE",
"726 955 OFFCURVE",
"727 959 OFFCURVE",
"727 963 CURVE SMOOTH",
"727 975 OFFCURVE",
"722 981 OFFCURVE",
"710 981 CURVE SMOOTH",
"699 981 OFFCURVE",
"687 972 OFFCURVE",
"674 953 CURVE SMOOTH",
"662 934 OFFCURVE",
"645 904 OFFCURVE",
"625 866 CURVE SMOOTH",
"612 840 OFFCURVE",
"606 827 OFFCURVE",
"606 827 CURVE",
"600 814 OFFCURVE",
"594 804 OFFCURVE",
"589 796 CURVE SMOOTH",
"517 684 OFFCURVE",
"427 562 OFFCURVE",
"319 432 CURVE SMOOTH",
"272 375 OFFCURVE",
"225 319 OFFCURVE",
"176 263 CURVE SMOOTH",
"128 207 OFFCURVE",
"80 148 OFFCURVE",
"30 88 CURVE",
"78 294 OFFCURVE",
"115 465 OFFCURVE",
"142 603 CURVE SMOOTH",
"168 739 OFFCURVE",
"183 813 OFFCURVE",
"185 822 CURVE SMOOTH",
"202 881 OFFCURVE",
"210 924 OFFCURVE",
"210 953 CURVE",
"206 964 OFFCURVE",
"201 970 OFFCURVE",
"193 970 CURVE SMOOTH",
"181 970 OFFCURVE",
"168 959 OFFCURVE",
"164 946 CURVE",
"164 941 OFFCURVE",
"163 937 OFFCURVE",
"162 933 CURVE",
"153 913 OFFCURVE",
"117 726 OFFCURVE",
"51 373 CURVE SMOOTH",
"23 219 OFFCURVE",
"-4 101 OFFCURVE",
"-30 16 CURVE",
"-30 2 OFFCURVE",
"-25 -7 OFFCURVE",
"-3 -7 CURVE",
"3 -4 LINE",
"56 59 OFFCURVE",
"107 119 OFFCURVE",
"158 176 CURVE SMOOTH",
"341 386 OFFCURVE",
"482 565 OFFCURVE",
"583 713 CURVE",
"573 686 LINE SMOOTH",
"514 540 OFFCURVE",
"490 405 OFFCURVE",
"490 314 CURVE SMOOTH",
"490 269 OFFCURVE",
"490 237 OFFCURVE",
"491 219 CURVE SMOOTH",
"492 73 OFFCURVE",
"509 -3 OFFCURVE",
"543 -10 CURVE"
);
},
{
closed = 1;
nodes = (
"516 1040 OFFCURVE",
"589 1090 OFFCURVE",
"663 1191 CURVE",
"665 1195 OFFCURVE",
"667 1200 OFFCURVE",
"667 1206 CURVE SMOOTH",
"667 1217 OFFCURVE",
"661 1222 OFFCURVE",
"649 1222 CURVE SMOOTH",
"642 1222 OFFCURVE",
"635 1219 OFFCURVE",
"629 1214 CURVE",
"575 1140 OFFCURVE",
"523 1085 OFFCURVE",
"437 1085 CURVE SMOOTH",
"402 1085 OFFCURVE",
"382 1106 OFFCURVE",
"375 1149 CURVE SMOOTH",
"371 1178 OFFCURVE",
"368 1196 OFFCURVE",
"365 1203 CURVE SMOOTH",
"362 1209 OFFCURVE",
"357 1213 OFFCURVE",
"350 1213 CURVE SMOOTH",
"336 1213 OFFCURVE",
"322 1199 OFFCURVE",
"322 1182 CURVE SMOOTH",
"322 1099 OFFCURVE",
"367 1040 OFFCURVE",
"443 1040 CURVE SMOOTH"
);
}
);
width = 734;
}
);
leftKerningGroup = "Iishort-cy";
leftMetricsKey = P;
note = uni0419;
rightKerningGroup = "Iishort-cy";
unicode = 0419;
},
{
glyphname = "Ka-cy";
lastChange = "2016-08-02 01:43:54 +0000";
layers = (
{
anchors = (
{
name = bottomright;
position = "{429, 19}";
},
{
name = top;
position = "{307, 960}";
}
);
layerId = "79E705E9-1ED7-4818-9510-7FD15DA5A41F";
paths = (
{
closed = 1;
nodes = (
"22 -9 OFFCURVE",
"36 3 OFFCURVE",
"39 19 CURVE",
"51 94 OFFCURVE",
"74 207 OFFCURVE",
"108 360 CURVE",
"112 367 OFFCURVE",
"118 374 OFFCURVE",
"125 380 CURVE SMOOTH",
"131 386 OFFCURVE",
"138 393 OFFCURVE",
"145 401 CURVE",
"167 276 OFFCURVE",
"219 141 OFFCURVE",
"297 63 CURVE SMOOTH",
"339 19 OFFCURVE",
"396 -9 OFFCURVE",
"440 -9 CURVE SMOOTH",
"462 -9 OFFCURVE",
"482 -7 OFFCURVE",
"499 -4 CURVE SMOOTH",
"533 1 OFFCURVE",
"584 46 OFFCURVE",
"584 69 CURVE SMOOTH",
"584 81 OFFCURVE",
"578 87 OFFCURVE",
"564 87 CURVE SMOOTH",
"559 87 OFFCURVE",
"552 84 OFFCURVE",
"546 79 CURVE",
"521 42 OFFCURVE",
"500 36 OFFCURVE",
"452 36 CURVE SMOOTH",
"428 36 OFFCURVE",
"405 42 OFFCURVE",
"382 55 CURVE SMOOTH",
"292 103 OFFCURVE",
"203 251 OFFCURVE",
"185 438 CURVE",
"219 478 OFFCURVE",
"287 555 OFFCURVE",
"388 669 CURVE SMOOTH",
"489 783 OFFCURVE",
"565 870 OFFCURVE",
"615 930 CURVE SMOOTH",
"621 937 OFFCURVE",
"623 943 OFFCURVE",
"623 950 CURVE SMOOTH",
"623 961 OFFCURVE",
"617 967 OFFCURVE",
"606 967 CURVE SMOOTH",
"599 967 OFFCURVE",
"592 964 OFFCURVE",
"586 959 CURVE",
"525 887 OFFCURVE",
"444 793 OFFCURVE",
"341 679 CURVE SMOOTH",
"238 564 OFFCURVE",
"168 486 OFFCURVE",
"131 444 CURVE",
"150 529 OFFCURVE",
"169 614 OFFCURVE",
"189 699 CURVE SMOOTH",
"209 784 OFFCURVE",
"227 869 OFFCURVE",
"243 952 CURVE",
"243 958 LINE SMOOTH",
"243 970 OFFCURVE",
"238 976 OFFCURVE",
"227 976 CURVE SMOOTH",
"217 976 OFFCURVE",
"204 966 OFFCURVE",
"198 952 CURVE",
"181 876 OFFCURVE",
"150 742 OFFCURVE",
"105 549 CURVE SMOOTH",
"61 357 OFFCURVE",
"23 178 OFFCURVE",
"-7 12 CURVE",
"-5 -2 OFFCURVE",
"0 -9 OFFCURVE",
"11 -9 CURVE SMOOTH"
);
}
);
width = 613;
}
);
leftKerningGroup = H;
leftMetricsKey = K;
note = uni041A;
rightKerningGroup = K;
rightMetricsKey = K;
unicode = 041A;
},
{
glyphname = "Kje-cy";
lastChange = "2016-08-02 01:43:54 +0000";
layers = (
{
layerId = "79E705E9-1ED7-4818-9510-7FD15DA5A41F";
paths = (
{
closed = 1;
nodes = (
"496 -9 OFFCURVE",
"517 -6 OFFCURVE",
"529 0 CURVE SMOOTH",
"552 12 OFFCURVE",
"600 49 OFFCURVE",
"600 69 CURVE SMOOTH",
"600 81 OFFCURVE",
"594 87 OFFCURVE",
"581 87 CURVE SMOOTH",
"575 87 OFFCURVE",
"568 84 OFFCURVE",
"562 79 CURVE",
"536 40 OFFCURVE",
"516 30 OFFCURVE",
"468 30 CURVE SMOOTH",
"444 30 OFFCURVE",
"421 36 OFFCURVE",
"398 49 CURVE SMOOTH",
"311 99 OFFCURVE",
"223 254 OFFCURVE",
"209 436 CURVE",
"206 443 LINE",
"254 509 OFFCURVE",
"351 608 OFFCURVE",
"464 728 CURVE SMOOTH",
"520 787 OFFCURVE",
"573 848 OFFCURVE",
"621 910 CURVE",
"626 917 OFFCURVE",
"629 923 OFFCURVE",
"629 930 CURVE SMOOTH",
"629 941 OFFCURVE",
"623 947 OFFCURVE",
"612 947 CURVE SMOOTH",
"605 947 OFFCURVE",
"598 944 OFFCURVE",
"592 939 CURVE",
"520 848 OFFCURVE",
"457 780 OFFCURVE",
"331 646 CURVE SMOOTH",
"268 578 OFFCURVE",
"205 508 OFFCURVE",
"142 434 CURVE",
"185 622 OFFCURVE",
"220 790 OFFCURVE",
"249 938 CURVE",
"249 944 LINE SMOOTH",
"249 956 OFFCURVE",
"244 962 OFFCURVE",
"234 962 CURVE SMOOTH",
"223 962 OFFCURVE",
"209 952 OFFCURVE",
"204 938 CURVE",
"149 696 OFFCURVE",
"106 499 OFFCURVE",
"75 346 CURVE SMOOTH",
"44 194 OFFCURVE",
"26 107 OFFCURVE",
"21 85 CURVE SMOOTH",
"16 64 OFFCURVE",
"12 42 OFFCURVE",
"10 18 CURVE",
"11 4 OFFCURVE",
"17 -3 OFFCURVE",
"27 -3 CURVE SMOOTH",
"39 -3 OFFCURVE",
"54 9 OFFCURVE",
"56 25 CURVE SMOOTH",
"58 47 OFFCURVE",
"62 68 OFFCURVE",
"66 88 CURVE SMOOTH",
"76 129 OFFCURVE",
"88 188 OFFCURVE",
"104 261 CURVE SMOOTH",
"112 298 OFFCURVE",
"121 334 OFFCURVE",
"129 372 CURVE",
"134 372 LINE",
"143 375 OFFCURVE",
"154 383 OFFCURVE",
"168 397 CURVE",
"179 334 OFFCURVE",
"196 272 OFFCURVE",
"221 211 CURVE SMOOTH",
"270 89 OFFCURVE",
"355 -9 OFFCURVE",
"467 -9 CURVE SMOOTH"
);
},
{
closed = 1;
nodes = (
"123 410 LINE",
"122 409 OFFCURVE",
"122 409 OFFCURVE",
"122 408 CURVE",
"121 408 LINE"
);
},
{
closed = 1;
nodes = (
"421 996 OFFCURVE",
"433 1007 OFFCURVE",
"435 1020 CURVE",
"468 1062 OFFCURVE",
"494 1122 OFFCURVE",
"508 1153 CURVE SMOOTH",
"516 1168 OFFCURVE",
"521 1181 OFFCURVE",
"527 1190 CURVE",
"532 1199 OFFCURVE",
"534 1207 OFFCURVE",
"534 1212 CURVE SMOOTH",
"534 1223 OFFCURVE",
"528 1229 OFFCURVE",
"516 1229 CURVE SMOOTH",
"507 1229 OFFCURVE",
"499 1224 OFFCURVE",
"491 1214 CURVE",
"484 1199 OFFCURVE",
"477 1184 OFFCURVE",
"469 1169 CURVE SMOOTH",
"462 1154 OFFCURVE",
"455 1138 OFFCURVE",
"447 1123 CURVE SMOOTH",
"432 1092 OFFCURVE",
"415 1060 OFFCURVE",
"401 1041 CURVE SMOOTH",
"394 1031 OFFCURVE",
"390 1023 OFFCURVE",
"390 1019 CURVE SMOOTH",
"390 1003 OFFCURVE",
"397 996 OFFCURVE",
"413 996 CURVE SMOOTH"
);
}
);
width = 618;
}
);
leftKerningGroup = K;
note = uni040C;
rightKerningGroup = H;
unicode = 040C;
},
{
glyphname = "El-cy";
lastChange = "2016-08-02 08:00:27 +0000";
layers = (
{
layerId = "79E705E9-1ED7-4818-9510-7FD15DA5A41F";
paths = (
{
closed = 1;
nodes = (
"107 -11 OFFCURVE",
"118 -7 OFFCURVE",
"126 2 CURVE SMOOTH",
"165 46 OFFCURVE",
"211 113 OFFCURVE",
"265 203 CURVE SMOOTH",
"362 368 OFFCURVE",
"452 553 OFFCURVE",
"533 757 CURVE",
"524 654 OFFCURVE",
"519 540 OFFCURVE",
"519 414 CURVE SMOOTH",
"519 289 OFFCURVE",
"528 152 OFFCURVE",
"546 4 CURVE",
"548 -5 OFFCURVE",
"553 -10 OFFCURVE",
"561 -10 CURVE SMOOTH",
"565 -10 OFFCURVE",
"569 -9 OFFCURVE",
"573 -7 CURVE SMOOTH",
"586 0 OFFCURVE",
"593 11 OFFCURVE",
"593 25 CURVE",
"575 168 OFFCURVE",
"566 320 OFFCURVE",
"566 481 CURVE SMOOTH",
"566 642 OFFCURVE",
"578 801 OFFCURVE",
"602 957 CURVE",
"601 968 OFFCURVE",
"597 974 OFFCURVE",
"588 974 CURVE SMOOTH",
"577 974 OFFCURVE",
"560 962 OFFCURVE",
"555 947 CURVE",
"554 946 OFFCURVE",
"554 945 OFFCURVE",
"553 943 CURVE SMOOTH",
"553 942 OFFCURVE",
"552 941 OFFCURVE",
"551 940 CURVE",
"505 791 OFFCURVE",
"435 623 OFFCURVE",
"339 437 CURVE SMOOTH",
"295 351 OFFCURVE",
"261 289 OFFCURVE",
"236 251 CURVE SMOOTH",
"211 213 OFFCURVE",
"187 173 OFFCURVE",
"162 130 CURVE SMOOTH",
"137 88 OFFCURVE",
"117 58 OFFCURVE",
"101 41 CURVE",
"98 43 OFFCURVE",
"93 45 OFFCURVE",
"87 45 CURVE SMOOTH",
"75 45 OFFCURVE",
"61 31 OFFCURVE",
"61 17 CURVE SMOOTH",
"61 3 OFFCURVE",
"69 -11 OFFCURVE",
"95 -11 CURVE SMOOTH"
);
}
);
width = 732;
}
);
leftKerningGroup = "El-cy";
leftMetricsKey = M;
note = uni041B;
rightKerningGroup = H;
rightMetricsKey = M;
unicode = 041B;
},
{
glyphname = "Em-cy";
lastChange = "2016-08-02 08:00:27 +0000";
layers = (
{
layerId = "79E705E9-1ED7-4818-9510-7FD15DA5A41F";
paths = (
{
closed = 1;
nodes = (
"835 -12 OFFCURVE",
"850 20 OFFCURVE",
"842 37 CURVE",
"845 315 OFFCURVE",
"855 619 OFFCURVE",
"875 950 CURVE",
"875 951 OFFCURVE",
"875 952 OFFCURVE",
"875 953 CURVE SMOOTH",
"875 963 OFFCURVE",
"870 968 OFFCURVE",
"860 968 CURVE SMOOTH",
"849 968 OFFCURVE",
"839 960 OFFCURVE",
"830 944 CURVE SMOOTH",
"785 857 OFFCURVE",
"744 776 OFFCURVE",
"708 703 CURVE SMOOTH",
"634 555 OFFCURVE",
"560 403 OFFCURVE",
"471 249 CURVE",
"453 325 OFFCURVE",
"430 431 OFFCURVE",
"402 567 CURVE SMOOTH",
"374 703 OFFCURVE",
"346 831 OFFCURVE",
"318 950 CURVE SMOOTH",
"315 961 OFFCURVE",
"309 967 OFFCURVE",
"300 967 CURVE SMOOTH",
"290 967 OFFCURVE",
"276 956 OFFCURVE",
"272 943 CURVE",
"253 858 OFFCURVE",
"218 710 OFFCURVE",
"167 500 CURVE SMOOTH",
"117 289 OFFCURVE",
"80 125 OFFCURVE",
"59 9 CURVE",
"61 -4 OFFCURVE",
"66 -11 OFFCURVE",
"77 -11 CURVE SMOOTH",
"89 -11 OFFCURVE",
"98 -4 OFFCURVE",
"104 9 CURVE",
"116 58 OFFCURVE",
"144 180 OFFCURVE",
"192 375 CURVE SMOOTH",
"239 570 OFFCURVE",
"273 722 OFFCURVE",
"295 833 CURVE",
"308 770 OFFCURVE",
"331 661 OFFCURVE",
"366 506 CURVE SMOOTH",
"401 352 OFFCURVE",
"426 235 OFFCURVE",
"443 157 CURVE",
"447 148 OFFCURVE",
"453 143 OFFCURVE",
"463 143 CURVE SMOOTH",
"472 143 OFFCURVE",
"481 150 OFFCURVE",
"488 164 CURVE SMOOTH",
"515 219 OFFCURVE",
"569 322 OFFCURVE",
"649 474 CURVE SMOOTH",
"728 625 OFFCURVE",
"784 737 OFFCURVE",
"816 809 CURVE",
"815 746 OFFCURVE",
"812 683 OFFCURVE",
"810 619 CURVE SMOOTH",
"807 554 OFFCURVE",
"805 490 OFFCURVE",
"803 425 CURVE SMOOTH",
"798 296 OFFCURVE",
"793 153 OFFCURVE",
"793 83 CURVE SMOOTH",
"793 14 OFFCURVE",
"789 -12 OFFCURVE",
"814 -12 CURVE SMOOTH"
);
}
);
width = 983;
}
);
leftKerningGroup = "Em-cy";
leftMetricsKey = M;
note = uni041C;
rightKerningGroup = "Em-cy";
rightMetricsKey = M;
unicode = 041C;
},
{
glyphname = "En-cy";
lastChange = "2016-08-02 01:43:54 +0000";
layers = (
{
anchors = (
{
name = bottomright;
position = "{602, 0}";
},
{
name = topright;
position = "{775, 951}";
}
);
layerId = "79E705E9-1ED7-4818-9510-7FD15DA5A41F";
paths = (
{
closed = 1;
nodes = (
"149 -34 OFFCURVE",
"158 -27 OFFCURVE",
"165 -14 CURVE",
"184 63 OFFCURVE",
"206 142 OFFCURVE",
"229 222 CURVE SMOOTH",
"251 301 OFFCURVE",
"273 382 OFFCURVE",
"293 464 CURVE",
"396 492 OFFCURVE",
"525 509 OFFCURVE",
"680 515 CURVE",
"666 427 LINE SMOOTH",
"660 392 OFFCURVE",
"654 357 OFFCURVE",
"647 323 CURVE SMOOTH",
"633 254 OFFCURVE",
"606 130 OFFCURVE",
"602 10 CURVE",
"604 -4 OFFCURVE",
"609 -11 OFFCURVE",
"619 -11 CURVE SMOOTH",
"631 -11 OFFCURVE",
"646 1 OFFCURVE",
"648 17 CURVE",
"652 134 OFFCURVE",
"676 245 OFFCURVE",
"699 360 CURVE SMOOTH",
"710 417 OFFCURVE",
"719 470 OFFCURVE",
"725 517 CURVE",
"764 518 OFFCURVE",
"802 519 OFFCURVE",
"840 520 CURVE SMOOTH",
"877 520 OFFCURVE",
"916 521 OFFCURVE",
"953 523 CURVE",
"966 527 OFFCURVE",
"977 540 OFFCURVE",
"977 552 CURVE SMOOTH",
"977 560 OFFCURVE",
"971 566 OFFCURVE",
"960 569 CURVE",
"732 562 LINE",
"737 604 OFFCURVE",
"744 655 OFFCURVE",
"752 717 CURVE SMOOTH",
"761 779 OFFCURVE",
"768 822 OFFCURVE",
"773 848 CURVE SMOOTH",
"786 900 LINE SMOOTH",
"791 923 OFFCURVE",
"794 943 OFFCURVE",
"795 961 CURVE",
"792 972 OFFCURVE",
"787 978 OFFCURVE",
"778 978 CURVE SMOOTH",
"766 978 OFFCURVE",
"753 967 OFFCURVE",
"749 954 CURVE",
"748 934 OFFCURVE",
"740 895 OFFCURVE",
"726 837 CURVE SMOOTH",
"721 818 OFFCURVE",
"708 727 OFFCURVE",
"686 561 CURVE",
"532 554 OFFCURVE",
"405 538 OFFCURVE",
"305 512 CURVE",
"337 711 OFFCURVE",
"357 858 OFFCURVE",
"365 951 CURVE",
"367 963 OFFCURVE",
"362 968 OFFCURVE",
"348 968 CURVE SMOOTH",
"331 968 OFFCURVE",
"321 960 OFFCURVE",
"319 944 CURVE SMOOTH",
"314 907 OFFCURVE",
"310 870 OFFCURVE",
"306 833 CURVE SMOOTH",
"298 758 OFFCURVE",
"284 616 OFFCURVE",
"256 499 CURVE",
"253 498 OFFCURVE",
"245 495 OFFCURVE",
"232 491 CURVE SMOOTH",
"220 487 OFFCURVE",
"205 481 OFFCURVE",
"187 473 CURVE SMOOTH",
"169 465 OFFCURVE",
"152 458 OFFCURVE",
"135 452 CURVE SMOOTH",
"118 446 OFFCURVE",
"96 435 OFFCURVE",
"69 419 CURVE SMOOTH",
"-9 372 OFFCURVE",
"-49 329 OFFCURVE",
"-49 289 CURVE SMOOTH",
"-49 270 OFFCURVE",
"-42 260 OFFCURVE",
"-28 260 CURVE SMOOTH",
"-15 260 OFFCURVE",
"-2 273 OFFCURVE",
"-2 288 CURVE",
"-4 297 LINE",
"-4 297 OFFCURVE",
"-4 298 OFFCURVE",
"-4 299 CURVE SMOOTH",
"-4 310 OFFCURVE",
"7 323 OFFCURVE",
"30 340 CURVE SMOOTH",
"35 343 OFFCURVE",
"39 346 OFFCURVE",
"41 348 CURVE SMOOTH",
"91 388 OFFCURVE",
"159 422 OFFCURVE",
"244 450 CURVE",
"224 371 OFFCURVE",
"203 292 OFFCURVE",
"181 215 CURVE SMOOTH",
"159 137 OFFCURVE",
"138 61 OFFCURVE",
"120 -14 CURVE",
"122 -27 OFFCURVE",
"127 -34 OFFCURVE",
"137 -34 CURVE SMOOTH"
);
}
);
width = 879;
}
);
leftKerningGroup = H;
note = uni041D;
rightKerningGroup = H;
unicode = 041D;
},
